<svg xmlns="http://www.w3.org/2000/svg" width="177.6" height="177.6" xml:space="preserve"><path fill="#FFF" d="M82.787 82.734h12.047v12.021H82.787z"/><path fill="#009262" d="M82.477 82.478v12.643h12.645V82.478H82.477zm9.748.766h1.186l.002 1.138h1.109v1.132h-1.109v1.131h-1.184v-1.131h-1.111v-1.141l.65.002.461.014-.004-1.145zm-6.178 3.037a2.05 2.05 0 0 1 1.545.625l.271.287.303-.279c.5-.461.887-.606 1.696-.604 1.238.004 2.121.785 2.281 2.095.227 1.869-.827 3.466-3.612 5.496-.714.521-.721.525-.769.448l-.767-.62c-2.232-1.703-3.165-2.909-3.354-4.333-.146-1.096.061-1.75.759-2.41a2.512 2.512 0 0 1 1.647-.705zm2.681 1.449-2.285 2.776 1.455-.011-.979 2.21 2.283-2.818-1.421.003.947-2.16z"/></svg>