<svg xmlns="http://www.w3.org/2000/svg" xmlns:xlink="http://www.w3.org/1999/xlink" width="256" height="256"><defs><g id="b" style="fill:#6a4"><path d="M2 0 0 6v1h2v3h1V7h2V6L3 0Zm.5 1L4 6H1ZM7 5h1v5H7z" transform="matrix(1.25 0 0 1.25 -6.25 -6.25)"/><path d="M7.5 0a2.5 3 0 0 1 0 6V5a1.5 2 0 0 0 0-4 1.5 2 0 1 0 0 4v1a2.5 3 0 1 1 0-6z" transform="matrix(1.25 0 0 1.25 -6.25 -6.25)"/></g><g id="c" style="fill:#6a4"><path d="M2 5h1v5H2z" transform="matrix(1.25 0 0 1.25 -6.25 -6.25)"/><path d="M2.5 0a2.5 3 0 0 1 0 6V5a1.5 2 0 0 0 0-4 1.5 2 0 1 0 0 4v1a2.5 3 0 1 1 0-6zM7 0 5 6v1h2v3h1V7h2V6L8 0Zm.5 1L9 6H6Z" transform="matrix(1.25 0 0 1.25 -6.25 -6.25)"/></g><clipPath id="a"><path d="M0 0h256v256H0z"/></clipPath></defs><path style="fill:#8dc56c;stroke-opacity:0" d="M0 0h256v256H0z"/><g style="clip-path:url(#a)" clip-path="url(#a)"><use xlink:href="#b" x="10.333" y="211.911"/><use xlink:href="#b" x="266.333" y="211.911"/><use xlink:href="#b" x="266.333" y="-44.089"/><use xlink:href="#b" x="10.333" y="-44.089"/><use xlink:href="#b" x="266.333" y="-44.089"/><use xlink:href="#c" x="166.551" y="88.537"/><use xlink:href="#c" x="239.929" y="55.112"/><use xlink:href="#c" x="-16.071" y="55.112"/><use xlink:href="#c" x="-16.071" y="311.112"/><use xlink:href="#c" x="239.929" y="311.112"/><use xlink:href="#c" x="-16.071" y="311.112"/><use xlink:href="#b" x="58.865" y="117.36"/><use xlink:href="#b" x="314.865" y="117.36"/><use xlink:href="#c" x="219.606" y="36.039"/><use xlink:href="#c" x="-36.394" y="36.039"/><use xlink:href="#c" x="-36.394" y="292.039"/><use xlink:href="#c" x="219.606" y="292.039"/><use xlink:href="#c" x="-36.394" y="292.039"/><use xlink:href="#c" x="112.923" y="52.493"/><use xlink:href="#c" x="112.923" y="308.493"/><use xlink:href="#b" x="202.1" y="120.186"/><use xlink:href="#b" x="-53.9" y="120.186"/><use xlink:href="#c" x="80.542" y="192.572"/><use xlink:href="#c" x="80.542" y="-63.428"/><use xlink:href="#c" x="187.231" y="251.975"/><use xlink:href="#c" x="187.231" y="-4.025"/><use xlink:href="#c" x="108.811" y="13.995"/><use xlink:href="#c" x="108.811" y="269.995"/><use xlink:href="#b" x="44.422" y="104.144"/><use xlink:href="#b" x="300.422" y="104.144"/><use xlink:href="#b" x="221.859" y="214.871"/><use xlink:href="#b" x="-34.141" y="214.871"/><use xlink:href="#b" x="-34.141" y="-41.129"/><use xlink:href="#b" x="221.859" y="-41.129"/><use xlink:href="#b" x="-34.141" y="-41.129"/><use xlink:href="#c" x="95.828" y="235.362"/><use xlink:href="#c" x="95.828" y="-20.638"/><use xlink:href="#c" x="235.433" y="200.155"/><use xlink:href="#c" x="-20.567" y="200.155"/><use xlink:href="#c" x="-20.567" y="-55.845"/><use xlink:href="#c" x="235.433" y="-55.845"/><use xlink:href="#c" x="-20.567" y="-55.845"/><use xlink:href="#c" x="54.729" y="202.135"/><use xlink:href="#c" x="310.729" y="202.135"/><use xlink:href="#c" x="310.729" y="-53.865"/><use xlink:href="#c" x="54.729" y="-53.865"/><use xlink:href="#c" x="310.729" y="-53.865"/><use xlink:href="#b" x="95.493" y="211.993"/><use xlink:href="#b" x="95.493" y="-44.007"/><use xlink:href="#b" x="216.528" y="141.416"/><use xlink:href="#b" x="-39.472" y="141.416"/><use xlink:href="#b" x="86.318" y="79.729"/><use xlink:href="#b" x="147.999" y="17.55"/><use xlink:href="#b" x="147.999" y="273.55"/><use xlink:href="#c" x="148.403" y="124.126"/><use xlink:href="#c" x="9.233" y="197.129"/><use xlink:href="#c" x="265.233" y="197.129"/><use xlink:href="#c" x="265.233" y="-58.871"/><use xlink:href="#c" x="9.233" y="-58.871"/><use xlink:href="#c" x="265.233" y="-58.871"/><use xlink:href="#b" x="189.868" y="81.961"/><use xlink:href="#c" x="207.642" y="2.34"/><use xlink:href="#c" x="-48.358" y="2.34"/><use xlink:href="#c" x="-48.358" y="258.34"/><use xlink:href="#c" x="207.642" y="258.34"/><use xlink:href="#c" x="-48.358" y="258.34"/><use xlink:href="#b" x="100.668" y="61.085"/><use xlink:href="#b" x="100.668" y="317.085"/><use xlink:href="#c" x="36.833" y="40.515"/><use xlink:href="#c" x="292.833" y="40.515"/><use xlink:href="#c" x="292.833" y="296.515"/><use xlink:href="#c" x="36.833" y="296.515"/><use xlink:href="#c" x="292.833" y="296.515"/><use xlink:href="#c" x="60.955" y="150.83"/><use xlink:href="#c" x="316.955" y="150.83"/><use xlink:href="#c" x="143.117" y="222.923"/><use xlink:href="#c" x="143.117" y="-33.077"/><use xlink:href="#b" x="213.173" y="191.083"/><use xlink:href="#b" x="-42.827" y="191.083"/><use xlink:href="#b" x="33.644" y="252.373"/><use xlink:href="#b" x="289.644" y="252.373"/><use xlink:href="#b" x="289.644" y="-3.627"/><use xlink:href="#b" x="33.644" y="-3.627"/><use xlink:href="#b" x="289.644" y="-3.627"/><use xlink:href="#b" x="172.31" y="254.554"/><use xlink:href="#b" x="172.31" y="-1.446"/><use xlink:href="#b" x="21.16" y="5.741"/><use xlink:href="#b" x="277.16" y="5.741"/><use xlink:href="#b" x="277.16" y="261.741"/><use xlink:href="#b" x="21.16" y="261.741"/><use xlink:href="#b" x="277.16" y="261.741"/><use xlink:href="#c" x="244.144" y="22.077"/><use xlink:href="#c" x="-11.856" y="22.077"/><use xlink:href="#c" x="-11.856" y="278.077"/><use xlink:href="#c" x="244.144" y="278.077"/><use xlink:href="#c" x="-11.856" y="278.077"/><use xlink:href="#c" x="191.103" y="142.932"/><use xlink:href="#b" x="199.944" y="188.433"/><use xlink:href="#b" x="-56.056" y="188.433"/><use xlink:href="#c" x="245.228" y="38.069"/><use xlink:href="#c" x="-10.772" y="38.069"/><use xlink:href="#c" x="-10.772" y="294.069"/><use xlink:href="#c" x="245.228" y="294.069"/><use xlink:href="#c" x="-10.772" y="294.069"/><use xlink:href="#c" x="61.422" y="58.525"/><use xlink:href="#c" x="317.422" y="58.525"/><use xlink:href="#c" x="317.422" y="314.525"/><use xlink:href="#c" x="61.422" y="314.525"/><use xlink:href="#c" x="317.422" y="314.525"/><use xlink:href="#c" x="251.701" y="237.622"/><use xlink:href="#c" x="-4.299" y="237.622"/><use xlink:href="#c" x="-4.299" y="-18.378"/><use xlink:href="#c" x="251.701" y="-18.378"/><use xlink:href="#c" x="-4.299" y="-18.378"/><use xlink:href="#c" x="158.441" y="176.915"/><use xlink:href="#c" x="137.253" y="176.957"/><use xlink:href="#b" x="181.408" y="214.942"/><use xlink:href="#b" x="181.408" y="-41.058"/><use xlink:href="#c" x="85.58" y="103.911"/><use xlink:href="#b" x="90.836" y="8.508"/><use xlink:href="#b" x="90.836" y="264.508"/><use xlink:href="#b" x="250.059" y="212.058"/><use xlink:href="#b" x="-5.941" y="212.058"/><use xlink:href="#b" x="-5.941" y="-43.942"/><use xlink:href="#b" x="250.059" y="-43.942"/><use xlink:href="#b" x="-5.941" y="-43.942"/><use xlink:href="#c" x="104.109" y="150.587"/><use xlink:href="#b" x="224.767" y="55.548"/><use xlink:href="#b" x="-31.233" y="55.548"/><use xlink:href="#b" x="-31.233" y="311.548"/><use xlink:href="#b" x="224.767" y="311.548"/><use xlink:href="#b" x="-31.233" y="311.548"/><use xlink:href="#b" x="16.99" y="84.569"/><use xlink:href="#b" x="272.99" y="84.569"/><use xlink:href="#c" x="225.138" y="108.397"/><use xlink:href="#c" x="-30.862" y="108.397"/><use xlink:href="#b" x="162.562" y="106.662"/><use xlink:href="#b" x="41.007" y="169.375"/><use xlink:href="#b" x="297.007" y="169.375"/><use xlink:href="#c" x="139.32" y="63.401"/><use xlink:href="#c" x="139.32" y="319.401"/><use xlink:href="#c" x="88.275" y="165.792"/><use xlink:href="#c" x="6.429" y="70.875"/><use xlink:href="#c" x="262.429" y="70.875"/><use xlink:href="#c" x="168.702" y="195.436"/><use xlink:href="#c" x="168.702" y="-60.564"/><use xlink:href="#c" x="200.978" y="61.156"/><use xlink:href="#c" x="-55.022" y="61.156"/><use xlink:href="#c" x="-55.022" y="317.156"/><use xlink:href="#c" x="200.978" y="317.156"/><use xlink:href="#c" x="-55.022" y="317.156"/><use xlink:href="#c" x="142.746" y="32.681"/><use xlink:href="#c" x="142.746" y="288.681"/><use xlink:href="#c" x="248.942" y="168.6"/><use xlink:href="#c" x="-7.058" y="168.6"/><use xlink:href="#b" x="78.153" y="134.523"/><use xlink:href="#b" x="168.719" y="73.297"/><use xlink:href="#b" x="1.382" y="26.898"/><use xlink:href="#b" x="257.382" y="26.898"/><use xlink:href="#b" x="257.382" y="282.898"/><use xlink:href="#b" x="1.382" y="282.898"/><use xlink:href="#b" x="257.382" y="282.898"/><use xlink:href="#b" x="220.439" y="254.059"/><use xlink:href="#b" x="-35.561" y="254.059"/><use xlink:href="#b" x="-35.561" y="-1.941"/><use xlink:href="#b" x="220.439" y="-1.941"/><use xlink:href="#b" x="-35.561" y="-1.941"/><use xlink:href="#c" x="169.182" y="43.326"/><use xlink:href="#c" x="169.182" y="299.326"/><use xlink:href="#b" x="217.949" y="89.499"/><use xlink:href="#b" x="-38.051" y="89.499"/><use xlink:href="#b" x="103.878" y="175.826"/><use xlink:href="#b" x="5.483" y="248.115"/><use xlink:href="#b" x="261.483" y="248.115"/><use xlink:href="#b" x="261.483" y="-7.885"/><use xlink:href="#b" x="5.483" y="-7.885"/><use xlink:href="#b" x="261.483" y="-7.885"/><use xlink:href="#c" x="112.215" y="250.695"/><use xlink:href="#c" x="112.215" y="-5.305"/><use xlink:href="#c" x="6.999" y="158.891"/><use xlink:href="#c" x="262.999" y="158.891"/><use xlink:href="#c" x="125.881" y="228.005"/><use xlink:href="#c" x="125.881" y="-27.995"/><use xlink:href="#c" x="145.762" y="96.925"/><use xlink:href="#b" x="146.083" y="146.498"/><use xlink:href="#b" x="106.944" y="201.193"/><use xlink:href="#b" x="106.944" y="-54.807"/><use xlink:href="#b" x="46.963" y="5.817"/><use xlink:href="#b" x="302.963" y="5.817"/><use xlink:href="#b" x="302.963" y="261.817"/><use xlink:href="#b" x="46.963" y="261.817"/><use xlink:href="#b" x="302.963" y="261.817"/><use xlink:href="#b" x="203.107" y="41.875"/><use xlink:href="#b" x="-52.893" y="41.875"/><use xlink:href="#b" x="-52.893" y="297.875"/><use xlink:href="#b" x="-52.893" y="297.875"/><use xlink:href="#c" x="104.947" y="36.84"/><use xlink:href="#c" x="104.947" y="292.84"/><use xlink:href="#c" x="208.887" y="174.263"/><use xlink:href="#c" x="-47.113" y="174.263"/><use xlink:href="#b" x="48.758" y="186.426"/><use xlink:href="#b" x="304.758" y="186.426"/><use xlink:href="#b" x="254.457" y="92.931"/><use xlink:href="#b" x="-1.543" y="92.931"/><use xlink:href="#c" x="40.594" y="227.908"/><use xlink:href="#c" x="296.594" y="227.908"/><use xlink:href="#c" x="296.594" y="-28.092"/><use xlink:href="#c" x="40.594" y="-28.092"/><use xlink:href="#c" x="296.594" y="-28.092"/><use xlink:href="#b" x="119.923" y="104.898"/><use xlink:href="#b" x="109.962" y="89.369"/><use xlink:href="#b" x="15.478" y="143.468"/><use xlink:href="#b" x="271.478" y="143.468"/><use xlink:href="#b" x="174.717" y="147.23"/><use xlink:href="#b" x="164.302" y="5.522"/><use xlink:href="#b" x="164.302" y="261.522"/><use xlink:href="#c" x="37.609" y="86.563"/><use xlink:href="#c" x="293.609" y="86.563"/><use xlink:href="#c" x="74.408" y="86.778"/><use xlink:href="#b" x="73.447" y="23.653"/><use xlink:href="#b" x="73.447" y="279.653"/><use xlink:href="#c" x="239.891" y="109.925"/><use xlink:href="#c" x="-16.109" y="109.925"/><use xlink:href="#b" x="142.868" y="187.965"/><use xlink:href="#b" x="35.158" y="151.428"/><use xlink:href="#b" x="291.158" y="151.428"/><use xlink:href="#c" x="9.328" y="121.59"/><use xlink:href="#c" x="265.328" y="121.59"/><use xlink:href="#b" x="190.913" y="4.882"/><use xlink:href="#b" x="190.913" y="260.882"/><use xlink:href="#b" x="177.762" y="206.497"/><use xlink:href="#b" x="177.762" y="-49.503"/><use xlink:href="#c" x="54.514" y="226.173"/><use xlink:href="#c" x="310.514" y="226.173"/><use xlink:href="#c" x="310.514" y="-29.827"/><use xlink:href="#c" x="54.514" y="-29.827"/><use xlink:href="#c" x="310.514" y="-29.827"/><use xlink:href="#c" x="144.96" y="232.014"/><use xlink:href="#c" x="144.96" y="-23.986"/><use xlink:href="#c" x="29.455" y="64.822"/><use xlink:href="#c" x="285.455" y="64.822"/><use xlink:href="#c" x="68.712" y="238.39"/><use xlink:href="#c" x="68.712" y="-17.61"/><use xlink:href="#c" x="197.342" y="173.283"/><use xlink:href="#c" x="-58.658" y="173.283"/><use xlink:href="#c" x="63.411" y="36.091"/><use xlink:href="#c" x="319.411" y="36.091"/><use xlink:href="#c" x="319.411" y="292.091"/><use xlink:href="#c" x="63.411" y="292.091"/><use xlink:href="#c" x="319.411" y="292.091"/><use xlink:href="#c" x="233.807" y="149.199"/><use xlink:href="#c" x="-22.193" y="149.199"/><use xlink:href="#c" x="57.076" y="170.85"/><use xlink:href="#c" x="313.076" y="170.85"/><use xlink:href="#c" x="90.764" y="38.603"/><use xlink:href="#c" x="90.764" y="294.603"/></g></svg>