<svg xmlns="http://www.w3.org/2000/svg" width="580" height="580" viewBox="0 -0.11 580 580" xml:space="preserve"><circle style="fill:#0071bc" transform="matrix(2.07143 0 0 2.07143 -579.536 -539.217)" cx="420" cy="400" r="140"/><path style="fill:#00f" d="M0 0z" transform="translate(0 -.11)"/><path d="M546.696 289.328c-2.372-4.237-4.484-10.548-8.063-13.852l-13.47-12.435c-31.25-28.845-68.607-51.36-104.816-73.179-33.14-19.968-69.988-40.188-108.941-45.303-19.482-2.559-41.064-3.564-60.34.425-9.001 1.862-20.75 3.016-28.855 7.357a1054.888 1054.888 0 0 0-29.02 16.12c-16.584 9.567-30.047 27.508-38.653 44.146-5.089 9.838-8.387 19.889-11.979 30.386-1.563 4.567-1.106 10.807-1.574 15.588-.423 4.31-1.76 9.453-1.296 13.78 2.349 21.927 7.986 43.07 12.926 64.559 1.283 5.582-6.004.699-7.032-.236-5.11-4.644-10.218-9.29-15.327-13.934-3.693-3.357-6.622-4.324-6.129-9.249.502-5.013 1.723-10.399 1.164-15.429-1.185-10.667-10.334-15.484-18.026-21.893l-16.529-13.775c-3.975-3.312-4.07-.61-7.485 3.26-4.336 4.914-3.623 4.205-8.456.088l-16.14-13.75c-.816-.694-9.392-8.55-9.87-8.059L37.917 255.09C44.42 261 50.923 266.91 57.424 272.823l8.193 7.448c.918.835-2.931 5.963-3.61 7.127l-29.475-26.074c-1.716 2.002-11.151 10.992-9.458 12.618L39.9 290.094c1.735 1.665 11.622 9.093 10.142 11.264-2.455 3.6-9.864 9.844-5.942 13.196l28.519 24.37c7.129 6.093 17.803 4.022 26.51 4.022 4.428 0 6.354 2.53 9.867 5.282l16.676 13.063c7.084 5.548 14.525 13.168 23.82 13.633 5.201.26 10.473.462 15.573-.93 5.66-1.542 6.965-3.417 11.406-7.117 7.978-6.65 7.855-18.358 6.553-27.899-2.754-20.193-10.718-39.242-11.531-59.57-.403-10.051-.624-18.853 2.745-28.287 3.065-8.582 6.072-18.385 11.248-25.89 10.962-15.894 25.625-35.07 44.608-41.925 19.313-6.974 38.692-12.577 59.532-9.451 11.271 1.69 21.714 3.485 32.638 6.647 9.814 2.84 17.381 7.544 26.15 12.903 18.422 11.258 34.746 23.714 50.999 37.935 15.232 13.33 31.558 24.143 49.882 32.888 19.415 9.267 39.73 17.99 56.696 31.383 17.647 13.93 11.554 38.667-7.823 46.972-9.851 4.222-19.089 5.792-28.917 6.362-6.765-14.546-22.099-24.705-39.944-24.705-18.117 0-33.651 10.463-40.255 25.363l-7.861.04c-34.648.175-69.296.35-103.944.523-6.09-14.866-20.852-25.36-38.108-25.36-22.696 0-41.094 18.145-41.094 40.528s18.399 40.527 41.094 40.527c16.656 0 30.987-9.778 37.44-23.825 6.052.067 12.103.094 18.158.123l94.77.443c6.839 14.38 22.08 24.394 39.8 24.394 18.734 0 34.704-11.191 40.895-26.906 15.375-1.098 29.519-3.986 44.161-10.429 9.548-4.2 17.876-10.2 25.067-17.856 9.958-10.603 13.443-21.357 13.443-35.544 0-9.875-1.242-18.122-6.176-26.933z" style="fill:#fff"/></svg>