<svg xmlns="http://www.w3.org/2000/svg" width="170.08" height="85.04" xml:space="preserve"><path fill="#FFF" stroke="#000" stroke-width=".017" d="M156.494 31.802H11.303v44.459h137.263z"/><linearGradient id="a" gradientUnits="userSpaceOnUse" x1="190.236" y1="-264.617" x2="351.966" y2="-264.617" gradientTransform="matrix(1 0 0 -1 -185.688 -222.188)"><stop offset="0" style="stop-color:#832c71"/><stop offset=".252" style="stop-color:#ad066f"/><stop offset=".503" style="stop-color:#c4064c"/><stop offset="1" style="stop-color:#dc021b"/></linearGradient><path fill="url(#a)" stroke="#000" stroke-width=".017" d="M5.64 84.383a6.39 6.39 0 0 1-.716-.774l-.376-.485V42.707c0-38.146.016-40.45.294-40.995C5.449.521 5.584.486 10.134.339c11.296-.366 24.461-.037 37.757.945 37.157 2.744 70.334 10.192 96.029 21.555 8.218 3.636 20.598 10.428 21.965 12.051.804.955 1.11-.159-6.675 24.209-6.629 20.744-7.873 24.524-8.212 24.942-.215.266-.571.401-1.29.491-.546.067-33.108.127-72.362.133-67.206.008-71.387-.01-71.706-.282zm26.091-10.816c4.546-.336 7.599-1.049 10.436-2.436 3.101-1.518 5.171-3.576 6.352-6.31.484-1.126.544-1.436.547-2.864.002-1.468-.043-1.695-.539-2.704-.692-1.409-2.417-3.172-4.375-4.476-.815-.542-4.162-2.349-7.44-4.014-4.762-2.42-6.143-3.196-6.871-3.87-.819-.756-.911-.911-.918-1.547-.015-1.289.905-2.304 2.952-3.262 1.303-.611 2.967-.972 5.412-1.175 2.006-.167 2.86-.126 6.281.3 1.951.242 2.263.247 2.402.037.25-.387 1.504-4.384 1.546-4.933.048-.616-.108-.667-3.236-1.047-3.161-.385-9.215-.26-11.885.244-6.446 1.215-10.603 3.574-12.263 6.955-1.539 3.129-1.012 5.805 1.663 8.472 1.566 1.561 2.866 2.4 7.27 4.69 7.356 3.831 8.519 4.583 9.513 6.151.544.855.585 1.276.216 2.163-.778 1.864-2.898 2.908-6.605 3.248-5.507.504-10.018-.336-17.751-3.303-.217-.083-.441.22-1.043 1.414-1.123 2.241-1.99 4.421-1.826 4.587.232.233 3.524 1.432 5.443 1.985 2.749.791 6.177 1.43 9.419 1.756 1.253.128 3.038.107 5.3-.061zm81.555-.478a88.202 88.202 0 0 0 3.784-.698c1.63-.351 5.027-1.377 5.406-1.636.103-.069 1.175-3.258 2.388-7.085 1.208-3.828 2.247-7.009 2.31-7.069.06-.062 3.993-.137 8.742-.168l8.629-.058.782-2.472c.43-1.36.781-2.631.781-2.824 0-.526-.638-.565-9.282-.565-4.245 0-7.718-.046-7.718-.103 0-.116 2.698-8.543 2.752-8.598.02-.019 4.699-.088 10.402-.154l10.368-.12.778-2.55c.429-1.403.779-2.743.779-2.979 0-.415-.044-.431-1.39-.535-1.821-.142-19.604-.141-24.16 0l-3.551.11-1.768 5.319c-.971 2.924-2.723 8.309-3.893 11.965-1.168 3.657-2.615 8.178-3.213 10.047l-1.089 3.398-.879.175c-3.743.747-9.618.638-12.986-.242-4.204-1.098-6.927-3.416-8.093-6.886-.643-1.919-.627-4.94.04-7.081 1.347-4.327 5.318-7.986 10.398-9.579 3.006-.941 3.793-1.026 9.533-1.021l5.33.004.958-3.008c.529-1.656.896-3.074.818-3.152-.576-.573-10.367-.763-13.761-.266-6.374.933-11.508 3.229-15.721 7.032-.795.72-1.474 1.287-1.498 1.259-.029-.027.396-1.558.944-3.402 1.304-4.396 1.331-4.538.825-4.672-.527-.142-5.774-.122-6.619.026l-.673.119-.724 2.103c-.398 1.156-2.236 6.792-4.081 12.523-1.846 5.731-3.378 10.443-3.407 10.471-.026.027-.572-1.177-1.212-2.678a98.422 98.422 0 0 0-7.71-14.594c-1.454-2.272-4.286-6.249-5.198-7.297l-.562-.65-3.204-.09c-1.761-.049-3.617-.039-4.126.025l-.925.116-1.63 4.915a612.582 612.582 0 0 0-2.99 9.294c-.748 2.406-1.395 4.474-1.436 4.596-.042.121.554.842 1.324 1.599 1.582 1.556 2.279 2.511 2.996 4.094.418.918.557 1.085.867 1.042.336-.049.65-.881 2.984-7.913 1.434-4.323 2.652-7.901 2.706-7.952.053-.05.629.722 1.282 1.716 4.514 6.889 8.251 14.707 10.987 22.978l1.047 3.159 4.47-.044 4.472-.045 2.054-6.355c1.128-3.494 2.124-6.52 2.214-6.722.141-.317.229-.166.622 1.097 1.602 5.138 5.267 8.74 11.134 10.94 1.518.569 4.434 1.267 6.098 1.457 2.237.254 9.094.069 11.495-.316z"/></svg>