<svg xmlns="http://www.w3.org/2000/svg" width="400" height="400" xml:space="preserve"><path style="fill:#14489e;fill-opacity:1" d="M398.996 200.987C398.996 90.544 306.459 1 200.516 1 90.563 1 1.003 90.544 1.003 200.987 1.003 309.923 90.563 399 200.516 399c109.937 0 198.48-88.082 198.48-198.013"/><path style="fill:#fff;fill-opacity:1" d="M371.635 200.987c0 93.532-77.119 170.638-171.119 170.638-94.535 0-172.152-76.615-172.152-170.638 0-95.003 77.617-173.125 172.152-173.125 94 0 171.119 78.605 171.119 173.125z"/><path d="M342.791 169.148c0-26.862-19.904-39.302-39.318-39.302h-37.297c-6.967 0-10.961 5.488-10.961 11.452v116.89c0 6.995 6.98 10.472 13.441 10.472 7.441 0 13.428-3.477 13.428-10.472V212.93h11.438l22.414 50.264c1.961 3.967 5.451 5.467 9.447 5.467 7.961 0 19.398-7.457 14.928-16.428l-21.404-44.77c12.921-6.476 23.884-17.913 23.884-38.315zm-101.004 86.575c0-5.986-3.982-12.433-10.934-12.433H193.03v-34.341h31.363c6.951 0 10.918-5.972 10.918-11.438 0-5.956-3.967-11.452-10.918-11.452H193.03V154.71h34.853c6.951 0 10.934-6.951 10.934-12.425 0-5.964-3.982-12.439-10.934-12.439h-50.761c-6.966 0-10.939 5.488-10.939 11.452v116.414c0 6.967 6.966 10.441 13.435 10.441h51.237c6.95.001 10.932-6.95 10.932-12.43zm-91.543-86.575c0-26.862-19.896-39.302-39.288-39.302H73.645c-6.966 0-10.932 5.488-10.932 11.452v116.89c0 6.995 6.951 10.472 13.413 10.472 7.486 0 13.427-3.477 13.427-10.472V212.93h11.459l22.384 50.264c1.998 3.967 5.481 5.467 9.447 5.467 7.954 0 19.406-7.457 14.92-16.428l-21.381-44.77c12.945-6.476 23.862-17.913 23.862-38.315zm164.695 2.994c0 16.918-15.432 20.885-24.879 20.885h-7.977v-40.291h9.461c12.448-.001 23.395 5.473 23.395 19.406zm-192.53 0c0 16.918-15.44 20.885-24.88 20.885h-7.976v-40.291h9.461c12.447-.001 23.395 5.473 23.395 19.406z" style="fill:#14489e;fill-opacity:1"/></svg>