<svg xmlns="http://www.w3.org/2000/svg" width="400" height="400" xml:space="preserve"><path d="M399 200.987C399 90.544 306.459 1 200.49 1 90.54 1 1 90.544 1 200.987 1 310.429 90.54 399 200.49 399S399 310.919 399 200.987" style="fill:#14489e;fill-opacity:1"/><path d="M371.639 200.987c0 93.534-77.106 171.617-171.148 171.617-94.509 0-172.129-77.09-172.129-171.617 0-95.003 77.62-173.631 172.129-173.631 94.041 0 171.148 79.111 171.148 173.631z" style="fill:#fff;fill-opacity:1"/><path d="M298.987 289.039V115.424c0-9.945-5.452-20.394-21.879-20.394-12.417 0-17.411 5.474-22.877 16.428L200.49 223.387H200l-54.232-111.929c-5.474-10.954-10.442-16.428-22.89-16.428-16.414 0-21.889 10.449-21.889 20.394v173.615c0 9.479 7.472 14.929 16.415 14.929 7.954 0 16.911-5.45 16.911-14.929V159.702h.505l49.249 100.491c3.483 6.967 7.97 10.963 15.931 10.963 7.947 0 12.434-3.996 15.923-10.963l49.241-100.491h.506v129.337c0 9.479 8.942 14.929 16.904 14.929 8.971 0 16.413-5.45 16.413-14.929z" style="fill:#14489e;fill-opacity:1"/></svg>