<svg xmlns="http://www.w3.org/2000/svg" width="400" height="400" xml:space="preserve"><path fill="#14489E" d="M398.996 200.986C398.996 90.544 306.459 1 200.516 1 90.563 1 1.003 90.544 1.003 200.986 1.003 309.923 90.563 399 200.516 399c109.937 0 198.48-88.082 198.48-198.014"/><path fill="#FFF" d="M371.635 200.986c0 93.533-77.119 170.639-171.119 170.639-94.535 0-172.152-76.615-172.152-170.639 0-95.002 77.617-173.125 172.152-173.125 94 .001 171.119 78.606 171.119 173.125z"/><path fill="#14489E" d="M345.279 227.452c0-20.462-11.49-32.43-25.963-40.434l-10.986-5.976c-6.48-3.504-11.953-8.987-11.953-15.992 0-7.974 6.453-13.473 15.932-13.473 6.498 0 12.464 2.504 16.961 4.501 6.976 3.503 11.511-.999 13.488-8.48 2.519-8.496-1-11.476-6.977-14.486-5.972-2.997-14.486-4.993-22.951-4.993-23.473 0-42.938 15.485-42.938 40.434 0 19.463 9.981 30.43 25.946 39.451l11.492 6.482c6.988 3.981 11.475 9.492 11.475 16.962 0 9.478-8.973 13.979-17.959 13.979-7.006 0-15.483-2.981-19.981-4.995-7.467-3.498-11.48 1-13.979 8.985-2.507 8.478 1.504 11.981 7.957 14.994 6.021 2.964 16.497 5.458 26.003 5.458 24.463.001 44.433-16.454 44.433-42.417zM257.883 222.475V139.61c0-7.005-6.945-10.478-13.473-10.478-6.941 0-13.453 3.473-13.453 10.478v79.363c0 15.963-5.008 26.455-17.975 26.455-12.49 0-18.5-9.967-18.5-26.455V139.61c0-7.005-7.452-10.478-13.946-10.478-7.486 0-13.979 3.473-13.979 10.478v82.359c0 32.938 16.479 47.901 46.425 47.901 26.942 0 44.901-15.44 44.901-47.395zM153.558 228.451c0-22.951-15.981-31.432-24.442-32.937v-.492c9.985-5.008 21.938-14.487 21.938-31.448 0-22.966-19.953-33.95-39.436-33.95H74.179c-6.945 0-10.969 5.487-10.969 11.475v116.797c0 6.992 6.971 10.512 13.469 10.512h35.445c21.488.001 41.434-11.506 41.434-39.957z"/><path fill="#FFF" d="M123.094 170.043c0 12.997-10.969 17.467-22.445 17.467H90.156v-34.934h10.493c11.979.001 22.445 4.009 22.445 17.467zM127.099 225.441c0 13.485-7.448 19.985-23.443 19.985H91.654v-38.931h12.001c9.926.002 23.444 3.491 23.444 18.946z"/></svg>