<svg xmlns="http://www.w3.org/2000/svg" width="400" height="400" xml:space="preserve"><path fill="#14489E" d="M399 200.986C399 90.544 306.459 1 200.49 1 90.54 1 1 90.544 1 200.986 1 310.43 90.54 399 200.49 399S399 310.919 399 200.986"/><path fill="#FFF" d="M371.639 200.986c0 93.535-77.105 171.617-171.147 171.617-94.509 0-172.129-77.09-172.129-171.617 0-95.002 77.62-173.63 172.129-173.63 94.04 0 171.147 79.111 171.147 173.63z"/><path fill="#14489E" d="M293.645 125.875c0-8.024-4.996-15.531-14.012-15.531H120.875c-9.016 0-14.025 7.507-14.025 15.531 0 7.013 5.01 15.514 14.025 15.514h61.068v164.287c0 9.016 9.523 14.025 18.033 14.025 9.555 0 18.559-5.01 18.559-14.025V141.385h61.098c9.015 0 14.012-8.497 14.012-15.51z"/></svg>