<?xml version="1.0" encoding="UTF-8" standalone="no"?>
<!-- Svg Vector Icons : http://www.onlinewebfonts.com/icon -->

<svg
   xmlns:dc="http://purl.org/dc/elements/1.1/"
   xmlns:cc="http://creativecommons.org/ns#"
   xmlns:rdf="http://www.w3.org/1999/02/22-rdf-syntax-ns#"
   xmlns:svg="http://www.w3.org/2000/svg"
   xmlns="http://www.w3.org/2000/svg"
   xmlns:sodipodi="http://sodipodi.sourceforge.net/DTD/sodipodi-0.dtd"
   xmlns:inkscape="http://www.inkscape.org/namespaces/inkscape"
   version="1.1"
   x="0px"
   y="0px"
   viewBox="0 0 1000 1000"
   enable-background="new 0 0 1000 1000"
   xml:space="preserve"
   id="svg10"
   sodipodi:docname="shop_frozenfood.svg"
   inkscape:version="0.92.5 (2060ec1f9f, 2020-04-08)"><defs
   id="defs14" /><sodipodi:namedview
   pagecolor="#ffffff"
   bordercolor="#666666"
   borderopacity="1"
   objecttolerance="10"
   gridtolerance="10"
   guidetolerance="10"
   inkscape:pageopacity="0"
   inkscape:pageshadow="2"
   inkscape:window-width="1559"
   inkscape:window-height="1100"
   id="namedview12"
   showgrid="false"
   inkscape:zoom="46.824595"
   inkscape:cx="78.234914"
   inkscape:cy="16.792054"
   inkscape:window-x="49"
   inkscape:window-y="24"
   inkscape:window-maximized="0"
   inkscape:current-layer="g8" />
<metadata
   id="metadata2"> Svg Vector Icons : http://www.onlinewebfonts.com/icon <rdf:RDF><cc:Work
     rdf:about=""><dc:format>image/svg+xml</dc:format><dc:type
       rdf:resource="http://purl.org/dc/dcmitype/StillImage" /><dc:title></dc:title></cc:Work></rdf:RDF></metadata>
<g
   id="g8"><g
     transform="matrix(0.00142859,0,0,-0.00142859,70.232018,983.1615)"
     id="g6"><path
       d="m 4903.4,5012.3 c -65.2,-26.8 -136.1,-88.2 -168.7,-145.7 -28.8,-53.7 -34.5,-143.8 -42.2,-738.1 l -9.6,-674.8 -458.2,316.3 c -251.1,174.5 -481.2,329.7 -511.9,345.1 -113.1,59.4 -287.6,17.3 -368.1,-90.1 -84.4,-111.2 -72.9,-295.2 23,-387.2 28.8,-26.8 333.6,-245.4 680.6,-485 l 628.8,-437.1 -1.9,-996.9 c -1.9,-546.4 -7.7,-998.8 -11.5,-1002.6 -5.8,-7.7 -1694.7,945.1 -1719.6,970 -5.7,7.7 -38.3,354.6 -70.9,770.7 -34.5,416 -69,789.8 -80.5,828.2 -40.3,155.3 -214.7,253 -366.2,207 -97.8,-28.8 -201.3,-132.3 -216.6,-216.6 -7.7,-34.5 9.6,-320.2 36.4,-636.5 24.9,-316.3 46,-577 44.1,-579 -1.9,-1.9 -262.6,143.8 -579,324 -490.8,279.9 -588.5,327.8 -671,335.5 -180.2,15.3 -316.3,-107.4 -316.3,-285.7 0,-99.7 30.7,-176.4 88.2,-230 21.1,-17.3 281.8,-174.4 582.8,-350.8 301,-174.5 552.1,-325.9 561.7,-333.6 7.7,-7.7 -214.7,-120.8 -496.5,-253.1 -554,-258.8 -646,-320.1 -669,-444.8 -32.6,-170.6 74.8,-339.3 230,-370 101.6,-19.2 155.3,1.9 941.3,375.7 l 653.7,310.6 856.9,-502.3 c 471.6,-278 851.2,-509.9 841.6,-517.6 -7.7,-7.7 -394.9,-235.8 -856.9,-508 l -841.6,-492.7 -653.7,310.6 c -824.3,391.1 -843.5,398.8 -950.9,366.2 -232,-69 -301,-348.9 -124.6,-510 36.4,-32.6 289.5,-162.9 573.2,-295.2 281.8,-132.3 504.2,-245.4 496.5,-253.1 -9.6,-7.7 -260.7,-159.1 -561.7,-333.6 -301,-176.4 -569.4,-343.1 -600,-370 -101.6,-95.8 -111.2,-279.9 -19.2,-389.1 67.1,-78.6 141.9,-113.1 245.4,-113.1 78.6,0 149.5,34.5 676.7,333.6 322.1,184 588.5,333.6 590.5,331.7 3.8,-1.9 -17.2,-270.3 -44.1,-594.3 -47.9,-575.1 -47.9,-592.4 -13.4,-667.1 59.4,-136.1 205.1,-203.2 352.7,-166.8 93.9,24.9 205.1,139.9 218.5,230.1 5.8,34.5 38.3,400.6 70.9,810.9 32.6,412.1 65.2,753.4 72.8,761.1 23,24.9 1711.9,977.7 1717.7,970 17.3,-17.2 11.5,-1976.5 -5.8,-1993.7 -9.6,-9.6 -302.9,-214.7 -648,-454.3 -393,-272.2 -646,-460.1 -674.8,-500.4 -30.7,-46 -42.2,-92 -42.2,-161 0,-184 141.9,-312.5 325.9,-295.2 78.6,7.7 147.6,47.9 577,345.1 l 486.9,337.4 9.6,-694 c 11.5,-766.8 11.5,-766.8 138,-858.8 47.9,-34.5 88.2,-44.1 172.5,-44.1 116.9,0 180.2,32.6 253.1,132.3 38.3,49.8 40.3,80.5 46,751.5 1.9,383.4 13.4,697.8 21.1,697.8 9.6,0 216.6,-138 462,-306.7 243.5,-168.7 467.8,-320.2 498.4,-335.5 113.1,-59.4 283.7,-23 360.4,76.7 92,115 90.1,289.5 -1.9,389.2 -23,24.9 -329.7,243.5 -678.6,486.9 l -638,440.7 v 995 c 0,546.4 5.8,994.9 13.4,994.9 13.4,0 1652.5,-929.8 1698.5,-964.3 26.8,-19.2 42.2,-151.4 97.8,-809 47.9,-588.5 70.9,-803.2 93.9,-847.3 67.1,-126.5 214.7,-193.6 348.9,-157.2 95.8,26.8 195.5,130.4 212.8,220.4 5.8,36.4 -9.6,324 -34.5,636.5 -26.8,312.5 -46,571.3 -44.1,573.2 0,1.9 260.7,-143.8 575.1,-324 571.3,-327.8 575.1,-329.7 694,-331.6 132.3,0 199.4,36.4 260.7,139.9 44.1,74.8 46,209 5.7,287.6 -42.2,82.4 -84.3,111.2 -688.2,463.9 -293.3,170.6 -529.1,314.4 -527.2,316.3 3.8,3.8 239.6,115 523.4,249.2 285.6,134.2 540.6,266.5 569.4,293.3 107.4,99.7 118.9,276.1 26.8,394.9 -57.5,76.7 -195.5,136.1 -278,120.8 -30.7,-5.7 -375.7,-162.9 -768.7,-348.9 -391.1,-184 -715.1,-335.5 -717,-335.5 -19.2,0 -1700.4,994.9 -1700.4,1006.5 0,13.4 1683.2,1006.5 1706.2,1006.5 5.8,0 333.6,-151.5 728.5,-339.3 776.4,-366.2 810.9,-377.7 943.2,-301 109.3,65.2 155.3,153.4 147.6,278 -13.4,182.1 -24.9,191.7 -628.8,477.3 -295.2,141.9 -536.8,260.7 -536.8,266.5 0,5.8 243.5,153.4 542.5,327.8 297.1,174.5 567.5,341.2 602,370 199.4,174.5 65.2,511.9 -205.1,511.9 -94,0 -70.9,11.5 -724.6,-358.5 -287.6,-164.9 -529.1,-293.3 -532.9,-287.6 -5.8,5.8 7.7,237.7 30.7,515.7 53.7,653.7 53.7,684.4 0,772.6 -47.9,76.7 -164.9,141.9 -255,143.8 -117,0 -266.5,-109.3 -291.4,-216.6 -5.8,-23 -40.3,-391.1 -74.8,-816.7 -55.6,-680.6 -67.1,-778.3 -97.8,-799.4 -51.8,-38.3 -1688.9,-966.2 -1702.3,-966.2 -7.7,0 -13.4,450.5 -13.4,1002.6 v 1002.6 l 657.5,454.3 c 381.5,264.6 671,477.4 688.2,508 51.8,86.3 59.4,178.3 24.9,268.4 -57.5,143.8 -189.8,216.6 -343.2,187.9 -38.3,-7.7 -255,-145.7 -550.2,-348.9 L 5315.6,3451.8 5306,4142 c -9.6,657.6 -11.5,692.1 -49.8,741.9 -65.2,88.2 -132.3,128.4 -232,134.2 -49.8,3.8 -105.4,1.9 -120.8,-5.8 z"
       id="path4"
       inkscape:connector-curvature="0" /></g></g>
</svg>