<svg xmlns="http://www.w3.org/2000/svg" width="800" height="600" xml:space="preserve"><path fill="none" stroke="#FFF" stroke-width="2" d="M43.31 114.045h280M43.31 114.045v150M43.31 264.045h280M183.31 114.045v150"/><circle fill="none" stroke="#FFF" stroke-width="2" cx="183.31" cy="189.045" r="18"/><path fill="none" stroke="#FFF" stroke-width="2" d="m59.06 121.545 17.47 2.3M76.53 123.845l16.28 6.743M92.81 130.588l13.979 10.727M106.789 141.315l10.727 13.98M117.516 155.295l6.744 16.28M124.26 171.575l2.3 17.47M126.56 189.045l-2.3 17.47M124.26 206.515l-6.744 16.28M117.516 222.795l-10.727 13.979M106.789 236.774 92.81 247.501M92.81 247.501l-16.28 6.744M76.53 254.245l-17.47 2.3M59.06 256.545H43.31M59.06 121.545H43.31"/><circle fill="none" stroke="#FFF" stroke-width="2" cx="59.06" cy="189.045" r="5"/><path fill="none" stroke="#FFF" stroke-width="2" d="M48.31 180.31v17.47M54.06 189.045h-5.75M323.31 264.045v-150M307.56 256.545l-17.471-2.3M290.089 254.245l-16.279-6.743M273.81 247.502l-13.98-10.728M259.83 236.774l-10.727-13.979M249.103 222.795l-6.744-16.28M242.359 206.515l-2.299-17.47M240.06 189.045l2.299-17.47M242.359 171.575l6.744-16.28M249.103 155.295l10.727-13.98M259.83 141.315l13.98-10.727M273.81 130.588l16.279-6.743M290.089 123.845l17.471-2.3M307.56 121.545h15.75M307.56 256.545h15.75"/><circle fill="none" stroke="#FFF" stroke-width="2" cx="307.56" cy="189.045" r="5"/><path fill="none" stroke="#FFF" stroke-width="2" d="M318.31 197.78v-17.47M312.56 189.045h5.75"/></svg>