<svg xmlns="http://www.w3.org/2000/svg" width="323.149" height="155.906" xml:space="preserve"><g fill="none" stroke="#FFF"><path stroke-width="1.772" stroke-linecap="round" stroke-linejoin="round" d="M-18.06 167.899h382.68V341.52H-18.06z"/><path stroke-width="1.772" stroke-linecap="round" stroke-linejoin="round" d="M-18.058 167.899h31.89V341.52h-31.89zM333.084 167.899h31.889V341.52h-31.89z"/><path stroke-width=".886" d="M30.277 167.803v173.813"/><path stroke-width="1.333" d="M33.3 169.896v5.13M36.485 169.896v5.13M39.669 169.896v5.13M42.853 169.896v5.13M33.3 334.394v5.13M36.485 334.394v5.13M39.669 334.394v5.13M42.853 334.394v5.13M17.032 169.896v5.13M20.217 169.896v5.13M23.4 169.896v5.13M26.585 169.896v5.13M17.032 334.394v5.13M20.217 334.394v5.13M23.4 334.394v5.13M26.585 334.394v5.13"/><path stroke-width=".886" d="M62.167 167.803v173.813"/><path stroke-width="1.333" d="M65.19 169.896v5.13M68.375 169.896v5.13M71.559 169.896v5.13M74.743 169.896v5.13M65.19 334.394v5.13M68.375 334.394v5.13M71.559 334.394v5.13M74.743 334.394v5.13"/><path stroke-width=".886" d="M45.898 167.803v173.813"/><path stroke-width="1.333" d="M48.922 169.896v5.13M52.106 169.896v5.13M55.29 169.896v5.13M58.474 169.896v5.13M48.922 334.394v5.13M52.106 334.394v5.13M55.29 334.394v5.13M58.474 334.394v5.13"/><path stroke-width=".886" d="M94.056 167.803v173.813"/><path stroke-width="1.333" d="M97.08 169.896v5.13M100.264 169.896v5.13M103.448 169.896v5.13M106.633 169.896v5.13M97.08 334.394v5.13M100.264 334.394v5.13M103.448 334.394v5.13M106.633 334.394v5.13"/><path stroke-width=".886" d="M77.788 167.803v173.813"/><path stroke-width="1.333" d="M80.812 169.896v5.13M83.996 169.896v5.13M87.18 169.896v5.13M90.364 169.896v5.13M80.812 334.394v5.13M83.996 334.394v5.13M87.18 334.394v5.13M90.364 334.394v5.13"/><path stroke-width=".886" d="M125.947 167.803v173.813"/><path stroke-width="1.333" d="M128.97 169.896v5.13M132.155 169.896v5.13M135.339 169.896v5.13M138.523 169.896v5.13M128.97 334.394v5.13M132.155 334.394v5.13M135.339 334.394v5.13M138.523 334.394v5.13"/><path stroke-width=".886" d="M109.678 167.803v173.813"/><path stroke-width="1.333" d="M112.7 169.896v5.13M115.886 169.896v5.13M119.07 169.896v5.13M122.254 169.896v5.13M112.7 334.394v5.13M115.885 334.394v5.13M119.07 334.394v5.13M122.254 334.394v5.13"/><path stroke-width=".886" d="M157.836 167.803v173.813"/><path stroke-width="1.333" d="M160.86 169.896v5.13M164.045 169.896v5.13M167.228 169.896v5.13M170.412 169.896v5.13M160.86 334.394v5.13M164.045 334.394v5.13M167.228 334.394v5.13M170.412 334.394v5.13"/><path stroke-width=".886" d="M141.568 167.803v173.813"/><path stroke-width="1.333" d="M144.592 169.896v5.13M147.775 169.896v5.13M150.96 169.896v5.13M154.144 169.896v5.13M144.592 334.394v5.13M147.775 334.394v5.13M150.96 334.394v5.13M154.144 334.394v5.13"/><path stroke-width=".886" d="M189.726 167.803v173.813"/><path stroke-width="1.333" d="M192.75 169.896v5.13M195.933 169.896v5.13M199.118 169.896v5.13M202.302 169.896v5.13M192.75 334.394v5.13M195.933 334.394v5.13M199.118 334.394v5.13M202.302 334.394v5.13"/><path stroke-width=".886" d="M173.457 167.803v173.813"/><path stroke-width="1.333" d="M176.48 169.896v5.13M179.666 169.896v5.13M182.849 169.896v5.13M186.033 169.896v5.13M176.48 334.394v5.13M179.666 334.394v5.13M182.849 334.394v5.13M186.033 334.394v5.13"/><path stroke-width=".886" d="M221.615 167.803v173.813"/><path stroke-width="1.333" d="M224.639 169.896v5.13M227.824 169.896v5.13M231.008 169.896v5.13M234.19 169.896v5.13M224.639 334.394v5.13M227.824 334.394v5.13M231.008 334.394v5.13M234.19 334.394v5.13"/><path stroke-width=".886" d="M205.347 167.803v173.813"/><path stroke-width="1.333" d="M208.37 169.896v5.13M211.554 169.896v5.13M214.739 169.896v5.13M217.924 169.896v5.13M208.37 334.394v5.13M211.554 334.394v5.13M214.739 334.394v5.13M217.924 334.394v5.13"/><path stroke-width=".886" d="M253.506 167.803v173.813"/><path stroke-width="1.333" d="M256.529 169.896v5.13M259.714 169.896v5.13M262.898 169.896v5.13M266.082 169.896v5.13M256.529 334.394v5.13M259.714 334.394v5.13M262.898 334.394v5.13M266.082 334.394v5.13"/><path stroke-width=".886" d="M237.237 167.803v173.813"/><path stroke-width="1.333" d="M240.26 169.896v5.13M243.445 169.896v5.13M246.629 169.896v5.13M249.813 169.896v5.13M240.26 334.394v5.13M243.445 334.394v5.13M246.629 334.394v5.13M249.813 334.394v5.13"/><path stroke-width=".886" d="M285.395 167.803v173.813"/><path stroke-width="1.333" d="M288.42 169.896v5.13M291.603 169.896v5.13M294.787 169.896v5.13M297.97 169.896v5.13M288.42 334.394v5.13M291.603 334.394v5.13M294.787 334.394v5.13M297.97 334.394v5.13"/><path stroke-width=".886" d="M269.127 167.803v173.813"/><path stroke-width="1.333" d="M272.15 169.896v5.13M275.335 169.896v5.13M278.519 169.896v5.13M281.703 169.896v5.13M272.15 334.394v5.13M275.335 334.394v5.13M278.519 334.394v5.13M281.703 334.394v5.13"/><path stroke-width=".886" d="M317.285 167.803v173.813"/><path stroke-width="1.333" d="M320.308 169.896v5.13M323.493 169.896v5.13M326.677 169.896v5.13M329.86 169.896v5.13M320.308 334.394v5.13M323.493 334.394v5.13M326.677 334.394v5.13M329.86 334.394v5.13"/><path stroke-width=".886" d="M301.016 167.803v173.813"/><path stroke-width="1.333" d="M304.04 169.896v5.13M307.224 169.896v5.13M310.408 169.896v5.13M313.593 169.896v5.13"/><g stroke-width="1.333"><path d="M33.3 276.947v5.13M36.485 276.947v5.13M39.669 276.947v5.13M42.853 276.947v5.13M17.032 276.947v5.13M20.217 276.947v5.13M23.4 276.947v5.13M26.585 276.947v5.13M65.19 276.947v5.13M68.375 276.947v5.13M71.559 276.947v5.13M74.743 276.947v5.13M48.922 276.947v5.13M52.106 276.947v5.13M55.29 276.947v5.13M58.474 276.947v5.13M97.08 276.947v5.13M100.264 276.947v5.13M103.448 276.947v5.13M106.633 276.947v5.13M80.812 276.947v5.13M83.996 276.947v5.13M87.18 276.947v5.13M90.364 276.947v5.13M128.97 276.947v5.13M132.155 276.947v5.13M135.339 276.947v5.13M138.523 276.947v5.13M112.7 276.947v5.13M115.886 276.947v5.13M119.07 276.947v5.13M122.254 276.947v5.13M160.86 276.947v5.13M164.045 276.947v5.13M167.228 276.947v5.13M170.412 276.947v5.13M144.592 276.947v5.13M147.775 276.947v5.13M150.96 276.947v5.13M154.144 276.947v5.13M192.75 276.947v5.13M195.933 276.947v5.13M199.118 276.947v5.13M202.302 276.947v5.13M176.48 276.947v5.13M179.666 276.947v5.13M182.849 276.947v5.13M186.033 276.947v5.13M224.639 276.947v5.13M227.824 276.947v5.13M231.008 276.947v5.13M234.19 276.947v5.13M208.37 276.947v5.13M211.554 276.947v5.13M214.739 276.947v5.13M217.924 276.947v5.13M256.529 276.947v5.13M259.714 276.947v5.13M262.898 276.947v5.13M266.082 276.947v5.13M240.26 276.947v5.13M243.445 276.947v5.13M246.629 276.947v5.13M249.813 276.947v5.13M288.42 276.947v5.13M291.603 276.947v5.13M294.787 276.947v5.13M297.97 276.947v5.13M272.15 276.947v5.13M275.335 276.947v5.13M278.519 276.947v5.13M281.703 276.947v5.13M320.308 276.947v5.13M323.493 276.947v5.13M326.677 276.947v5.13M329.86 276.947v5.13M304.04 276.947v5.13M307.224 276.947v5.13M310.408 276.947v5.13M313.593 276.947v5.13"/></g><g stroke-width="1.333"><path d="M33.3 227.342v5.13M36.485 227.342v5.13M39.669 227.342v5.13M42.853 227.342v5.13M17.032 227.342v5.13M20.217 227.342v5.13M23.4 227.342v5.13M26.585 227.342v5.13M65.19 227.342v5.13M68.375 227.342v5.13M71.559 227.342v5.13M74.743 227.342v5.13M48.922 227.342v5.13M52.106 227.342v5.13M55.29 227.342v5.13M58.474 227.342v5.13M97.08 227.342v5.13M100.264 227.342v5.13M103.448 227.342v5.13M106.633 227.342v5.13M80.812 227.342v5.13M83.996 227.342v5.13M87.18 227.342v5.13M90.364 227.342v5.13M128.97 227.342v5.13M132.155 227.342v5.13M135.339 227.342v5.13M138.523 227.342v5.13M112.7 227.342v5.13M115.885 227.342v5.13M119.07 227.342v5.13M122.254 227.342v5.13M160.86 227.342v5.13M164.045 227.342v5.13M167.228 227.342v5.13M170.412 227.342v5.13M144.592 227.342v5.13M147.775 227.342v5.13M150.96 227.342v5.13M154.144 227.342v5.13M192.75 227.342v5.13M195.933 227.342v5.13M199.118 227.342v5.13M202.302 227.342v5.13M176.48 227.342v5.13M179.666 227.342v5.13M182.849 227.342v5.13M186.033 227.342v5.13M224.639 227.342v5.13M227.824 227.342v5.13M231.008 227.342v5.13M234.19 227.342v5.13M208.37 227.342v5.13M211.554 227.342v5.13M214.739 227.342v5.13M217.924 227.342v5.13M256.529 227.342v5.13M259.714 227.342v5.13M262.898 227.342v5.13M266.082 227.342v5.13M240.26 227.342v5.13M243.445 227.342v5.13M246.629 227.342v5.13M249.813 227.342v5.13M288.42 227.342v5.13M291.603 227.342v5.13M294.787 227.342v5.13M297.97 227.342v5.13M272.15 227.342v5.13M275.335 227.342v5.13M278.519 227.342v5.13M281.703 227.342v5.13M320.308 227.342v5.13M323.493 227.342v5.13M326.677 227.342v5.13M329.86 227.342v5.13M304.04 227.342v5.13M307.224 227.342v5.13M310.408 227.342v5.13M313.593 227.342v5.13"/></g><path stroke-width="1.333" d="M304.04 334.394v5.13M307.224 334.394v5.13M310.408 334.394v5.13M313.593 334.394v5.13"/><path stroke-width=".886" d="M20.37 249.912v9.598M326.512 249.912v9.598"/><g stroke-width="1.333"><path d="M-20.448 271.453h4.777M-20.448 237.968h4.777"/></g><g stroke-width="1.333"><path d="M362.23 271.453h4.777M362.23 237.968h4.777"/></g><path stroke-width="1.25" stroke-linecap="square" d="m13.831 237.968-9.397-3.421M13.831 271.453l-9.397 3.42M333.083 237.968l9.397-3.421M333.083 271.453l9.397 3.42M337.782 236.257v36.905M9.133 236.257v36.905"/></g><g fill="#FFF"><path d="M42.907 320.105h-2.195v-8.273a7.567 7.567 0 0 1-2.836 1.664v-1.992c.573-.188 1.195-.543 1.867-1.066s1.133-1.133 1.383-1.832h1.78v11.499zM49.899 308.605c1.109 0 1.977.396 2.602 1.188.745.938 1.117 2.492 1.117 4.664 0 2.168-.375 3.725-1.125 4.672-.62.78-1.484 1.172-2.594 1.172-1.115 0-2.013-.428-2.695-1.285-.683-.855-1.023-2.383-1.023-4.582 0-2.156.375-3.707 1.125-4.656.619-.782 1.483-1.173 2.593-1.173zm0 1.82c-.266 0-.503.087-.711.255-.208.17-.37.473-.484.91-.151.568-.227 1.523-.227 2.867s.067 2.268.203 2.77c.135.504.306.838.512 1.004.206.168.44.25.707.25s.502-.084.71-.254c.209-.168.37-.473.485-.91.15-.562.227-1.516.227-2.86s-.068-2.265-.203-2.77c-.136-.501-.306-.837-.512-1.007a1.09 1.09 0 0 0-.707-.254z"/></g><g fill="none" stroke="gray" stroke-width=".177"><path d="M42.907 320.105h-2.195v-8.273a7.567 7.567 0 0 1-2.836 1.664v-1.992c.573-.188 1.195-.543 1.867-1.066s1.133-1.133 1.383-1.832h1.78v11.499zM49.899 308.605c1.109 0 1.977.396 2.602 1.188.745.938 1.117 2.492 1.117 4.664 0 2.168-.375 3.725-1.125 4.672-.62.78-1.484 1.172-2.594 1.172-1.115 0-2.013-.428-2.695-1.285-.683-.855-1.023-2.383-1.023-4.582 0-2.156.375-3.707 1.125-4.656.619-.782 1.483-1.173 2.593-1.173zm0 1.82c-.266 0-.503.087-.711.255-.208.17-.37.473-.484.91-.151.568-.227 1.523-.227 2.867s.067 2.268.203 2.77c.135.504.306.838.512 1.004.206.168.44.25.707.25s.502-.084.71-.254c.209-.168.37-.473.485-.91.15-.562.227-1.516.227-2.86s-.068-2.265-.203-2.77c-.136-.501-.306-.837-.512-1.007a1.09 1.09 0 0 0-.707-.254z"/></g><g fill="#FFF"><path d="M76.593 318.066v2.039h-7.695c.083-.77.333-1.5.75-2.191.417-.69 1.239-1.605 2.469-2.746.989-.922 1.596-1.547 1.82-1.875.302-.453.453-.9.453-1.344 0-.488-.132-.865-.395-1.13-.263-.261-.626-.394-1.09-.394-.458 0-.823.139-1.094.414-.271.277-.427.734-.47 1.375l-2.187-.22c.13-1.206.539-2.073 1.227-2.601.688-.525 1.547-.79 2.578-.79 1.13 0 2.018.306 2.664.915.646.609.969 1.367.969 2.273 0 .516-.093 1.008-.277 1.473-.185.467-.478.955-.88 1.465-.265.34-.744.826-1.437 1.46-.693.638-1.132 1.06-1.316 1.267a3.814 3.814 0 0 0-.45.609h4.36zM81.788 308.605c1.109 0 1.977.396 2.602 1.188.745.938 1.117 2.492 1.117 4.664 0 2.168-.375 3.725-1.125 4.672-.62.78-1.484 1.172-2.594 1.172-1.115 0-2.013-.428-2.695-1.285-.683-.855-1.023-2.383-1.023-4.582 0-2.156.375-3.707 1.125-4.656.619-.782 1.484-1.173 2.593-1.173zm0 1.82c-.266 0-.503.087-.711.255-.208.17-.37.473-.484.91-.151.568-.227 1.523-.227 2.867s.067 2.268.203 2.77c.135.504.306.838.512 1.004.206.168.44.25.707.25s.502-.084.71-.254c.209-.168.37-.473.485-.91.15-.562.227-1.516.227-2.86s-.068-2.265-.203-2.77c-.136-.501-.306-.837-.512-1.007a1.088 1.088 0 0 0-.707-.254z"/></g><g fill="none" stroke="gray" stroke-width=".177"><path d="M76.593 318.066v2.039h-7.695c.083-.77.333-1.5.75-2.191.417-.69 1.239-1.605 2.469-2.746.989-.922 1.596-1.547 1.82-1.875.302-.453.453-.9.453-1.344 0-.488-.132-.865-.395-1.13-.263-.261-.626-.394-1.09-.394-.458 0-.823.139-1.094.414-.271.277-.427.734-.47 1.375l-2.187-.22c.13-1.206.539-2.073 1.227-2.601.688-.525 1.547-.79 2.578-.79 1.13 0 2.018.306 2.664.915.646.609.969 1.367.969 2.273 0 .516-.093 1.008-.277 1.473-.185.467-.478.955-.88 1.465-.265.34-.744.826-1.437 1.46-.693.638-1.132 1.06-1.316 1.267a3.814 3.814 0 0 0-.45.609h4.36zM81.788 308.605c1.109 0 1.977.396 2.602 1.188.745.938 1.117 2.492 1.117 4.664 0 2.168-.375 3.725-1.125 4.672-.62.78-1.484 1.172-2.594 1.172-1.115 0-2.013-.428-2.695-1.285-.683-.855-1.023-2.383-1.023-4.582 0-2.156.375-3.707 1.125-4.656.619-.782 1.484-1.173 2.593-1.173zm0 1.82c-.266 0-.503.087-.711.255-.208.17-.37.473-.484.91-.151.568-.227 1.523-.227 2.867s.067 2.268.203 2.77c.135.504.306.838.512 1.004.206.168.44.25.707.25s.502-.084.71-.254c.209-.168.37-.473.485-.91.15-.562.227-1.516.227-2.86s-.068-2.265-.203-2.77c-.136-.501-.306-.837-.512-1.007a1.088 1.088 0 0 0-.707-.254z"/></g><g fill="#FFF"><path d="m100.99 317.066 2.126-.258c.067.543.25.957.547 1.242.297.287.656.43 1.078.43.453 0 .834-.172 1.145-.516.31-.344.465-.807.465-1.391 0-.551-.148-.988-.445-1.312a1.423 1.423 0 0 0-1.086-.484 3.85 3.85 0 0 0-1.008.164l.242-1.79c.594.017 1.047-.112 1.359-.386s.469-.637.469-1.09c0-.385-.115-.691-.344-.922-.23-.23-.534-.344-.914-.344-.375 0-.695.13-.961.39-.266.263-.427.642-.484 1.142l-2.023-.344c.14-.691.353-1.246.637-1.66.284-.414.68-.738 1.188-.977a4.004 4.004 0 0 1 1.707-.355c1.078 0 1.942.344 2.594 1.03.536.563.805 1.2.805 1.907 0 1.006-.55 1.809-1.648 2.406.656.14 1.18.457 1.574.945.393.49.59 1.082.59 1.773 0 1.006-.367 1.863-1.102 2.57-.734.709-1.648 1.062-2.742 1.062-1.037 0-1.896-.297-2.578-.895-.686-.593-1.081-1.372-1.19-2.337zM113.678 308.605c1.109 0 1.977.396 2.602 1.188.745.938 1.117 2.492 1.117 4.664 0 2.168-.375 3.725-1.125 4.672-.62.78-1.484 1.172-2.594 1.172-1.115 0-2.013-.428-2.695-1.285-.683-.855-1.023-2.383-1.023-4.582 0-2.156.375-3.707 1.125-4.656.619-.782 1.484-1.173 2.593-1.173zm0 1.82c-.266 0-.503.087-.711.255-.208.17-.37.473-.484.91-.151.568-.227 1.523-.227 2.867s.067 2.268.203 2.77c.135.504.306.838.512 1.004.206.168.44.25.707.25s.502-.084.71-.254c.209-.168.37-.473.485-.91.15-.562.227-1.516.227-2.86s-.068-2.265-.203-2.77c-.136-.501-.306-.837-.512-1.007a1.088 1.088 0 0 0-.707-.254z"/></g><g fill="none" stroke="gray" stroke-width=".177"><path d="m100.99 317.066 2.126-.258c.067.543.25.957.547 1.242.297.287.656.43 1.078.43.453 0 .834-.172 1.145-.516.31-.344.465-.807.465-1.391 0-.551-.148-.988-.445-1.312a1.423 1.423 0 0 0-1.086-.484 3.85 3.85 0 0 0-1.008.164l.242-1.79c.594.017 1.047-.112 1.359-.386s.469-.637.469-1.09c0-.385-.115-.691-.344-.922-.23-.23-.534-.344-.914-.344-.375 0-.695.13-.961.39-.266.263-.427.642-.484 1.142l-2.023-.344c.14-.691.353-1.246.637-1.66.284-.414.68-.738 1.188-.977a4.004 4.004 0 0 1 1.707-.355c1.078 0 1.942.344 2.594 1.03.536.563.805 1.2.805 1.907 0 1.006-.55 1.809-1.648 2.406.656.14 1.18.457 1.574.945.393.49.59 1.082.59 1.773 0 1.006-.367 1.863-1.102 2.57-.734.709-1.648 1.062-2.742 1.062-1.037 0-1.896-.297-2.578-.895-.686-.593-1.081-1.372-1.19-2.337zM113.678 308.605c1.109 0 1.977.396 2.602 1.188.745.938 1.117 2.492 1.117 4.664 0 2.168-.375 3.725-1.125 4.672-.62.78-1.484 1.172-2.594 1.172-1.115 0-2.013-.428-2.695-1.285-.683-.855-1.023-2.383-1.023-4.582 0-2.156.375-3.707 1.125-4.656.619-.782 1.484-1.173 2.593-1.173zm0 1.82c-.266 0-.503.087-.711.255-.208.17-.37.473-.484.91-.151.568-.227 1.523-.227 2.867s.067 2.268.203 2.77c.135.504.306.838.512 1.004.206.168.44.25.707.25s.502-.084.71-.254c.209-.168.37-.473.485-.91.15-.562.227-1.516.227-2.86s-.068-2.265-.203-2.77c-.136-.501-.306-.837-.512-1.007a1.088 1.088 0 0 0-.707-.254z"/></g><g fill="#FFF"><path d="M137.263 320.105V317.8h-4.688v-1.922l4.969-7.273h1.844v7.266h1.422v1.93h-1.422v2.305h-2.125zm0-4.234v-3.914l-2.633 3.914h2.633zM145.568 308.605c1.109 0 1.977.396 2.602 1.188.745.938 1.117 2.492 1.117 4.664 0 2.168-.375 3.725-1.125 4.672-.62.78-1.484 1.172-2.594 1.172-1.115 0-2.013-.428-2.695-1.285-.683-.855-1.023-2.383-1.023-4.582 0-2.156.375-3.707 1.125-4.656.619-.782 1.483-1.173 2.593-1.173zm0 1.82c-.266 0-.503.087-.711.255-.208.17-.37.473-.484.91-.151.568-.227 1.523-.227 2.867s.067 2.268.203 2.77c.135.504.306.838.512 1.004.206.168.44.25.707.25s.502-.084.71-.254c.209-.168.37-.473.485-.91.15-.562.227-1.516.227-2.86s-.068-2.265-.203-2.77c-.136-.501-.306-.837-.512-1.007a1.09 1.09 0 0 0-.707-.254z"/></g><g fill="none" stroke="gray" stroke-width=".177"><path d="M137.263 320.105V317.8h-4.688v-1.922l4.969-7.273h1.844v7.266h1.422v1.93h-1.422v2.305h-2.125zm0-4.234v-3.914l-2.633 3.914h2.633zM145.568 308.605c1.109 0 1.977.396 2.602 1.188.745.938 1.117 2.492 1.117 4.664 0 2.168-.375 3.725-1.125 4.672-.62.78-1.484 1.172-2.594 1.172-1.115 0-2.013-.428-2.695-1.285-.683-.855-1.023-2.383-1.023-4.582 0-2.156.375-3.707 1.125-4.656.619-.782 1.483-1.173 2.593-1.173zm0 1.82c-.266 0-.503.087-.711.255-.208.17-.37.473-.484.91-.151.568-.227 1.523-.227 2.867s.067 2.268.203 2.77c.135.504.306.838.512 1.004.206.168.44.25.707.25s.502-.084.71-.254c.209-.168.37-.473.485-.91.15-.562.227-1.516.227-2.86s-.068-2.265-.203-2.77c-.136-.501-.306-.837-.512-1.007a1.09 1.09 0 0 0-.707-.254z"/></g><g fill="#FFF"><path d="m164.88 317.16 2.188-.227c.062.496.247.887.555 1.176.307.289.66.434 1.062.434.458 0 .846-.186 1.164-.56.317-.37.477-.933.477-1.683 0-.703-.158-1.23-.473-1.582-.315-.352-.726-.527-1.23-.527-.631 0-1.195.279-1.695.836l-1.781-.258 1.125-5.961h5.805v2.055h-4.141l-.344 1.945a3.326 3.326 0 0 1 1.5-.367c.974 0 1.799.355 2.477 1.062.677.709 1.016 1.629 1.016 2.758a4.13 4.13 0 0 1-.82 2.523c-.745 1.012-1.78 1.516-3.102 1.516-1.058 0-1.92-.283-2.586-.852-.67-.565-1.067-1.33-1.197-2.288zM177.458 308.605c1.109 0 1.977.396 2.602 1.188.744.938 1.117 2.492 1.117 4.664 0 2.168-.375 3.725-1.125 4.672-.62.78-1.484 1.172-2.594 1.172-1.115 0-2.014-.428-2.695-1.285-.683-.855-1.023-2.383-1.023-4.582 0-2.156.375-3.707 1.125-4.656.618-.782 1.483-1.173 2.593-1.173zm0 1.82c-.266 0-.503.087-.711.255-.21.17-.37.473-.484.91-.151.568-.227 1.523-.227 2.867s.067 2.268.203 2.77c.135.504.306.838.512 1.004.205.168.44.25.707.25s.502-.084.71-.254c.209-.168.37-.473.485-.91.15-.562.227-1.516.227-2.86s-.068-2.265-.203-2.77c-.136-.501-.307-.837-.512-1.007a1.09 1.09 0 0 0-.707-.254z"/></g><g fill="none" stroke="gray" stroke-width=".177"><path d="m164.88 317.16 2.188-.227c.062.496.247.887.555 1.176.307.289.66.434 1.062.434.458 0 .846-.186 1.164-.56.317-.37.477-.933.477-1.683 0-.703-.158-1.23-.473-1.582-.315-.352-.726-.527-1.23-.527-.631 0-1.195.279-1.695.836l-1.781-.258 1.125-5.961h5.805v2.055h-4.141l-.344 1.945a3.326 3.326 0 0 1 1.5-.367c.974 0 1.799.355 2.477 1.062.677.709 1.016 1.629 1.016 2.758a4.13 4.13 0 0 1-.82 2.523c-.745 1.012-1.78 1.516-3.102 1.516-1.058 0-1.92-.283-2.586-.852-.67-.565-1.067-1.33-1.197-2.288zM177.458 308.605c1.109 0 1.977.396 2.602 1.188.744.938 1.117 2.492 1.117 4.664 0 2.168-.375 3.725-1.125 4.672-.62.78-1.484 1.172-2.594 1.172-1.115 0-2.014-.428-2.695-1.285-.683-.855-1.023-2.383-1.023-4.582 0-2.156.375-3.707 1.125-4.656.618-.782 1.483-1.173 2.593-1.173zm0 1.82c-.266 0-.503.087-.711.255-.21.17-.37.473-.484.91-.151.568-.227 1.523-.227 2.867s.067 2.268.203 2.77c.135.504.306.838.512 1.004.205.168.44.25.707.25s.502-.084.71-.254c.209-.168.37-.473.485-.91.15-.562.227-1.516.227-2.86s-.068-2.265-.203-2.77c-.136-.501-.307-.837-.512-1.007a1.09 1.09 0 0 0-.707-.254z"/></g><g fill="#FFF"><path d="M201.043 320.105V317.8h-4.688v-1.922l4.969-7.273h1.844v7.266h1.422v1.93h-1.422v2.305h-2.125zm0-4.234v-3.914l-2.633 3.914h2.633zM209.347 308.605c1.109 0 1.977.396 2.602 1.188.745.938 1.117 2.492 1.117 4.664 0 2.168-.375 3.725-1.125 4.672-.62.78-1.484 1.172-2.594 1.172-1.114 0-2.013-.428-2.695-1.285-.683-.855-1.023-2.383-1.023-4.582 0-2.156.375-3.707 1.125-4.656.62-.782 1.484-1.173 2.593-1.173zm0 1.82c-.266 0-.503.087-.711.255-.208.17-.37.473-.484.91-.151.568-.227 1.523-.227 2.867s.067 2.268.203 2.77c.136.504.306.838.512 1.004.206.168.44.25.707.25s.503-.084.71-.254c.209-.168.37-.473.485-.91.15-.562.227-1.516.227-2.86s-.067-2.265-.203-2.77c-.136-.501-.306-.837-.512-1.007a1.088 1.088 0 0 0-.707-.254z"/></g><g fill="none" stroke="gray" stroke-width=".177"><path d="M201.043 320.105V317.8h-4.688v-1.922l4.969-7.273h1.844v7.266h1.422v1.93h-1.422v2.305h-2.125zm0-4.234v-3.914l-2.633 3.914h2.633zM209.347 308.605c1.109 0 1.977.396 2.602 1.188.745.938 1.117 2.492 1.117 4.664 0 2.168-.375 3.725-1.125 4.672-.62.78-1.484 1.172-2.594 1.172-1.114 0-2.013-.428-2.695-1.285-.683-.855-1.023-2.383-1.023-4.582 0-2.156.375-3.707 1.125-4.656.62-.782 1.484-1.173 2.593-1.173zm0 1.82c-.266 0-.503.087-.711.255-.208.17-.37.473-.484.91-.151.568-.227 1.523-.227 2.867s.067 2.268.203 2.77c.136.504.306.838.512 1.004.206.168.44.25.707.25s.503-.084.71-.254c.209-.168.37-.473.485-.91.15-.562.227-1.516.227-2.86s-.067-2.265-.203-2.77c-.136-.501-.306-.837-.512-1.007a1.088 1.088 0 0 0-.707-.254z"/></g><g fill="#FFF"><path d="m228.55 317.066 2.125-.258c.067.543.25.957.547 1.242.297.287.656.43 1.078.43.453 0 .834-.172 1.145-.516.31-.344.465-.807.465-1.391 0-.551-.148-.988-.445-1.312a1.423 1.423 0 0 0-1.086-.484 3.85 3.85 0 0 0-1.008.164l.242-1.79c.594.017 1.047-.112 1.359-.386s.469-.637.469-1.09c0-.385-.115-.691-.344-.922-.23-.23-.534-.344-.914-.344-.375 0-.695.13-.961.39-.266.263-.428.642-.484 1.142l-2.023-.344c.14-.691.353-1.246.637-1.66.283-.414.68-.738 1.188-.977a4 4 0 0 1 1.707-.355c1.078 0 1.942.344 2.594 1.03.536.563.805 1.2.805 1.907 0 1.006-.55 1.809-1.648 2.406.656.14 1.18.457 1.574.945.393.49.59 1.082.59 1.773 0 1.006-.367 1.863-1.102 2.57-.734.709-1.648 1.062-2.742 1.062-1.037 0-1.896-.297-2.578-.895-.685-.593-1.081-1.372-1.19-2.337zM241.237 308.605c1.109 0 1.977.396 2.602 1.188.744.938 1.117 2.492 1.117 4.664 0 2.168-.375 3.725-1.125 4.672-.62.78-1.484 1.172-2.594 1.172-1.115 0-2.014-.428-2.695-1.285-.683-.855-1.023-2.383-1.023-4.582 0-2.156.375-3.707 1.125-4.656.619-.782 1.484-1.173 2.593-1.173zm0 1.82c-.266 0-.503.087-.711.255-.21.17-.37.473-.484.91-.151.568-.227 1.523-.227 2.867s.067 2.268.203 2.77c.135.504.306.838.512 1.004.205.168.44.25.707.25s.502-.084.71-.254c.209-.168.37-.473.485-.91.15-.562.227-1.516.227-2.86s-.068-2.265-.203-2.77c-.136-.501-.307-.837-.512-1.007a1.088 1.088 0 0 0-.707-.254z"/></g><g fill="none" stroke="gray" stroke-width=".177"><path d="m228.55 317.066 2.125-.258c.067.543.25.957.547 1.242.297.287.656.43 1.078.43.453 0 .834-.172 1.145-.516.31-.344.465-.807.465-1.391 0-.551-.148-.988-.445-1.312a1.423 1.423 0 0 0-1.086-.484 3.85 3.85 0 0 0-1.008.164l.242-1.79c.594.017 1.047-.112 1.359-.386s.469-.637.469-1.09c0-.385-.115-.691-.344-.922-.23-.23-.534-.344-.914-.344-.375 0-.695.13-.961.39-.266.263-.428.642-.484 1.142l-2.023-.344c.14-.691.353-1.246.637-1.66.283-.414.68-.738 1.188-.977a4 4 0 0 1 1.707-.355c1.078 0 1.942.344 2.594 1.03.536.563.805 1.2.805 1.907 0 1.006-.55 1.809-1.648 2.406.656.14 1.18.457 1.574.945.393.49.59 1.082.59 1.773 0 1.006-.367 1.863-1.102 2.57-.734.709-1.648 1.062-2.742 1.062-1.037 0-1.896-.297-2.578-.895-.685-.593-1.081-1.372-1.19-2.337zM241.237 308.605c1.109 0 1.977.396 2.602 1.188.744.938 1.117 2.492 1.117 4.664 0 2.168-.375 3.725-1.125 4.672-.62.78-1.484 1.172-2.594 1.172-1.115 0-2.014-.428-2.695-1.285-.683-.855-1.023-2.383-1.023-4.582 0-2.156.375-3.707 1.125-4.656.619-.782 1.484-1.173 2.593-1.173zm0 1.82c-.266 0-.503.087-.711.255-.21.17-.37.473-.484.91-.151.568-.227 1.523-.227 2.867s.067 2.268.203 2.77c.135.504.306.838.512 1.004.205.168.44.25.707.25s.502-.084.71-.254c.209-.168.37-.473.485-.91.15-.562.227-1.516.227-2.86s-.068-2.265-.203-2.77c-.136-.501-.307-.837-.512-1.007a1.088 1.088 0 0 0-.707-.254z"/></g><g fill="#FFF"><path d="M267.93 318.066v2.039h-7.694c.083-.77.333-1.5.75-2.191.417-.69 1.239-1.605 2.469-2.746.989-.922 1.597-1.547 1.82-1.875.302-.453.453-.9.453-1.344 0-.488-.132-.865-.395-1.13-.263-.261-.626-.394-1.09-.394-.458 0-.823.139-1.094.414-.271.277-.427.734-.47 1.375l-2.187-.22c.13-1.206.539-2.073 1.227-2.601.688-.525 1.547-.79 2.578-.79 1.13 0 2.019.306 2.664.915s.969 1.367.969 2.273c0 .516-.093 1.008-.277 1.473-.185.467-.478.955-.88 1.465-.265.34-.744.826-1.437 1.46-.692.638-1.132 1.06-1.316 1.267a3.814 3.814 0 0 0-.45.609h4.36zM273.127 308.605c1.109 0 1.977.396 2.602 1.188.745.938 1.117 2.492 1.117 4.664 0 2.168-.375 3.725-1.125 4.672-.62.78-1.484 1.172-2.594 1.172-1.114 0-2.013-.428-2.695-1.285-.683-.855-1.023-2.383-1.023-4.582 0-2.156.375-3.707 1.125-4.656.619-.782 1.483-1.173 2.593-1.173zm0 1.82c-.266 0-.503.087-.711.255-.208.17-.37.473-.484.91-.151.568-.227 1.523-.227 2.867s.067 2.268.203 2.77c.136.504.306.838.512 1.004.206.168.44.25.707.25s.503-.084.71-.254c.209-.168.37-.473.485-.91.15-.562.227-1.516.227-2.86s-.067-2.265-.203-2.77c-.136-.501-.306-.837-.512-1.007a1.09 1.09 0 0 0-.707-.254z"/></g><g fill="none" stroke="gray" stroke-width=".177"><path d="M267.93 318.066v2.039h-7.694c.083-.77.333-1.5.75-2.191.417-.69 1.239-1.605 2.469-2.746.989-.922 1.597-1.547 1.82-1.875.302-.453.453-.9.453-1.344 0-.488-.132-.865-.395-1.13-.263-.261-.626-.394-1.09-.394-.458 0-.823.139-1.094.414-.271.277-.427.734-.47 1.375l-2.187-.22c.13-1.206.539-2.073 1.227-2.601.688-.525 1.547-.79 2.578-.79 1.13 0 2.019.306 2.664.915s.969 1.367.969 2.273c0 .516-.093 1.008-.277 1.473-.185.467-.478.955-.88 1.465-.265.34-.744.826-1.437 1.46-.692.638-1.132 1.06-1.316 1.267a3.814 3.814 0 0 0-.45.609h4.36zM273.127 308.605c1.109 0 1.977.396 2.602 1.188.745.938 1.117 2.492 1.117 4.664 0 2.168-.375 3.725-1.125 4.672-.62.78-1.484 1.172-2.594 1.172-1.114 0-2.013-.428-2.695-1.285-.683-.855-1.023-2.383-1.023-4.582 0-2.156.375-3.707 1.125-4.656.619-.782 1.483-1.173 2.593-1.173zm0 1.82c-.266 0-.503.087-.711.255-.208.17-.37.473-.484.91-.151.568-.227 1.523-.227 2.867s.067 2.268.203 2.77c.136.504.306.838.512 1.004.206.168.44.25.707.25s.503-.084.71-.254c.209-.168.37-.473.485-.91.15-.562.227-1.516.227-2.86s-.067-2.265-.203-2.77c-.136-.501-.306-.837-.512-1.007a1.09 1.09 0 0 0-.707-.254z"/></g><g fill="#FFF"><path d="M298.024 320.105h-2.195v-8.273a7.56 7.56 0 0 1-2.836 1.664v-1.992c.573-.188 1.195-.543 1.867-1.066s1.133-1.133 1.383-1.832h1.78v11.499zM305.016 308.605c1.109 0 1.977.396 2.602 1.188.745.938 1.117 2.492 1.117 4.664 0 2.168-.375 3.725-1.125 4.672-.62.78-1.484 1.172-2.594 1.172-1.114 0-2.013-.428-2.695-1.285-.682-.855-1.023-2.383-1.023-4.582 0-2.156.375-3.707 1.125-4.656.62-.782 1.484-1.173 2.593-1.173zm0 1.82c-.266 0-.502.087-.711.255-.208.17-.37.473-.484.91-.15.568-.227 1.523-.227 2.867s.068 2.268.203 2.77c.136.504.307.838.512 1.004.206.168.44.25.707.25s.503-.084.71-.254c.21-.168.37-.473.485-.91.15-.562.227-1.516.227-2.86s-.067-2.265-.203-2.77c-.135-.501-.306-.837-.512-1.007a1.086 1.086 0 0 0-.707-.254z"/></g><g fill="none" stroke="gray" stroke-width=".177"><path d="M298.024 320.105h-2.195v-8.273a7.56 7.56 0 0 1-2.836 1.664v-1.992c.573-.188 1.195-.543 1.867-1.066s1.133-1.133 1.383-1.832h1.78v11.499zM305.016 308.605c1.109 0 1.977.396 2.602 1.188.745.938 1.117 2.492 1.117 4.664 0 2.168-.375 3.725-1.125 4.672-.62.78-1.484 1.172-2.594 1.172-1.114 0-2.013-.428-2.695-1.285-.682-.855-1.023-2.383-1.023-4.582 0-2.156.375-3.707 1.125-4.656.62-.782 1.484-1.173 2.593-1.173zm0 1.82c-.266 0-.502.087-.711.255-.208.17-.37.473-.484.91-.15.568-.227 1.523-.227 2.867s.068 2.268.203 2.77c.136.504.307.838.512 1.004.206.168.44.25.707.25s.503-.084.71-.254c.21-.168.37-.473.485-.91.15-.562.227-1.516.227-2.86s-.067-2.265-.203-2.77c-.135-.501-.306-.837-.512-1.007a1.086 1.086 0 0 0-.707-.254z"/></g><g fill="#FFF"><path d="m31.29 314.15 3.979-1.148v2.297l-3.978-1.15zM63.18 314.15l3.978-1.148v2.297l-3.978-1.15zM95.07 314.15l3.978-1.148v2.297l-3.978-1.15zM126.959 314.15l3.978-1.148v2.297l-3.978-1.15z"/></g><g fill="#FFF"><path d="m316.687 314.15-3.98-1.148v2.297l3.98-1.15zM284.799 314.15l-3.98-1.148v2.297l3.98-1.15zM252.908 314.15l-3.978-1.148v2.297l3.978-1.15zM221.019 314.15l-3.98-1.148v2.297l3.98-1.15z"/></g><g><g fill="#FFF"><path d="M303.653 189.314h2.196v8.273a7.56 7.56 0 0 1 2.836-1.664v1.992c-.573.188-1.195.543-1.867 1.066s-1.133 1.134-1.383 1.832h-1.78v-11.499zM296.661 200.814c-1.109 0-1.977-.396-2.602-1.188-.745-.938-1.117-2.492-1.117-4.664 0-2.167.375-3.724 1.125-4.672.62-.78 1.484-1.172 2.594-1.172 1.114 0 2.013.43 2.695 1.285s1.023 2.384 1.023 4.582c0 2.156-.375 3.708-1.125 4.656-.619.782-1.483 1.173-2.593 1.173zm0-1.82c.266 0 .503-.086.711-.255s.37-.473.484-.91c.151-.567.227-1.523.227-2.867s-.067-2.267-.203-2.77-.306-.837-.512-1.004-.44-.25-.707-.25-.503.085-.71.254-.37.473-.485.91c-.15.562-.227 1.516-.227 2.86s.067 2.266.203 2.77.306.838.512 1.007.442.254.707.254z"/></g><g fill="none" stroke="gray" stroke-width=".177"><path d="M303.653 189.314h2.196v8.273a7.56 7.56 0 0 1 2.836-1.664v1.992c-.573.188-1.195.543-1.867 1.066s-1.133 1.134-1.383 1.832h-1.78v-11.499zM296.661 200.814c-1.109 0-1.977-.396-2.602-1.188-.745-.938-1.117-2.492-1.117-4.664 0-2.167.375-3.724 1.125-4.672.62-.78 1.484-1.172 2.594-1.172 1.114 0 2.013.43 2.695 1.285s1.023 2.384 1.023 4.582c0 2.156-.375 3.708-1.125 4.656-.619.782-1.483 1.173-2.593 1.173zm0-1.82c.266 0 .503-.086.711-.255s.37-.473.484-.91c.151-.567.227-1.523.227-2.867s-.067-2.267-.203-2.77-.306-.837-.512-1.004-.44-.25-.707-.25-.503.085-.71.254-.37.473-.485.91c-.15.562-.227 1.516-.227 2.86s.067 2.266.203 2.77.306.838.512 1.007.442.254.707.254z"/></g><g fill="#FFF"><path d="M269.968 191.353v-2.039h7.695c-.083.771-.333 1.501-.75 2.191s-1.239 1.605-2.469 2.746c-.989.922-1.597 1.547-1.82 1.875-.302.453-.453.901-.453 1.344 0 .49.132.866.395 1.13s.626.394 1.09.394c.458 0 .823-.138 1.094-.414s.427-.734.47-1.375l2.187.22c-.13 1.207-.539 2.074-1.227 2.601s-1.547.79-2.578.79c-1.13 0-2.019-.306-2.664-.915s-.969-1.367-.969-2.273c0-.516.093-1.007.277-1.473s.478-.954.88-1.465c.265-.339.744-.825 1.437-1.46s1.132-1.059 1.316-1.267.335-.41.45-.609h-4.36zM264.773 200.814c-1.109 0-1.977-.396-2.602-1.188-.745-.938-1.117-2.492-1.117-4.664 0-2.167.375-3.724 1.125-4.672.62-.78 1.484-1.172 2.594-1.172 1.114 0 2.013.43 2.695 1.285s1.023 2.384 1.023 4.582c0 2.156-.375 3.708-1.125 4.656-.62.782-1.484 1.173-2.593 1.173zm0-1.82c.266 0 .503-.086.711-.255s.37-.473.484-.91c.151-.567.227-1.523.227-2.867s-.067-2.267-.203-2.77-.306-.837-.512-1.004-.44-.25-.707-.25-.503.085-.71.254-.37.473-.485.91c-.15.562-.227 1.516-.227 2.86s.067 2.266.203 2.77.306.838.512 1.007.441.254.707.254z"/></g><g fill="none" stroke="gray" stroke-width=".177"><path d="M269.968 191.353v-2.039h7.695c-.083.771-.333 1.501-.75 2.191s-1.239 1.605-2.469 2.746c-.989.922-1.597 1.547-1.82 1.875-.302.453-.453.901-.453 1.344 0 .49.132.866.395 1.13s.626.394 1.09.394c.458 0 .823-.138 1.094-.414s.427-.734.47-1.375l2.187.22c-.13 1.207-.539 2.074-1.227 2.601s-1.547.79-2.578.79c-1.13 0-2.019-.306-2.664-.915s-.969-1.367-.969-2.273c0-.516.093-1.007.277-1.473s.478-.954.88-1.465c.265-.339.744-.825 1.437-1.46s1.132-1.059 1.316-1.267.335-.41.45-.609h-4.36zM264.773 200.814c-1.109 0-1.977-.396-2.602-1.188-.745-.938-1.117-2.492-1.117-4.664 0-2.167.375-3.724 1.125-4.672.62-.78 1.484-1.172 2.594-1.172 1.114 0 2.013.43 2.695 1.285s1.023 2.384 1.023 4.582c0 2.156-.375 3.708-1.125 4.656-.62.782-1.484 1.173-2.593 1.173zm0-1.82c.266 0 .503-.086.711-.255s.37-.473.484-.91c.151-.567.227-1.523.227-2.867s-.067-2.267-.203-2.77-.306-.837-.512-1.004-.44-.25-.707-.25-.503.085-.71.254-.37.473-.485.91c-.15.562-.227 1.516-.227 2.86s.067 2.266.203 2.77.306.838.512 1.007.441.254.707.254z"/></g><g fill="#FFF"><path d="m245.57 192.353-2.126.258c-.067-.542-.25-.956-.547-1.242s-.656-.43-1.078-.43c-.453 0-.835.172-1.145.516s-.465.808-.465 1.391c0 .552.148.99.445 1.312s.66.484 1.086.484a3.85 3.85 0 0 0 1.008-.164l-.242 1.79c-.594-.017-1.047.112-1.359.386s-.469.637-.469 1.09c0 .386.114.692.344.922s.534.344.914.344c.375 0 .695-.13.961-.39s.427-.642.484-1.142l2.023.344c-.14.692-.353 1.246-.637 1.66s-.68.74-1.188.977-1.077.355-1.707.355c-1.078 0-1.942-.344-2.594-1.03-.536-.563-.805-1.199-.805-1.907 0-1.005.55-1.808 1.648-2.406-.656-.14-1.18-.456-1.574-.945s-.59-1.08-.59-1.773c0-1.005.367-1.862 1.102-2.57s1.648-1.062 2.742-1.062c1.036 0 1.896.298 2.578.895s1.081 1.373 1.19 2.337zM232.882 200.814c-1.109 0-1.977-.396-2.602-1.188-.745-.938-1.117-2.492-1.117-4.664 0-2.167.375-3.724 1.125-4.672.62-.78 1.484-1.172 2.594-1.172 1.114 0 2.013.43 2.695 1.285s1.023 2.384 1.023 4.582c0 2.156-.375 3.708-1.125 4.656-.619.782-1.484 1.173-2.593 1.173zm0-1.82c.266 0 .503-.086.711-.255s.37-.473.484-.91c.151-.567.227-1.523.227-2.867s-.067-2.267-.203-2.77-.306-.837-.512-1.004-.44-.25-.707-.25-.503.085-.71.254-.37.473-.485.91c-.15.562-.227 1.516-.227 2.86s.067 2.266.203 2.77.306.838.512 1.007.441.254.707.254z"/></g><g fill="none" stroke="gray" stroke-width=".177"><path d="m245.57 192.353-2.126.258c-.067-.542-.25-.956-.547-1.242s-.656-.43-1.078-.43c-.453 0-.835.172-1.145.516s-.465.808-.465 1.391c0 .552.148.99.445 1.312s.66.484 1.086.484a3.85 3.85 0 0 0 1.008-.164l-.242 1.79c-.594-.017-1.047.112-1.359.386s-.469.637-.469 1.09c0 .386.114.692.344.922s.534.344.914.344c.375 0 .695-.13.961-.39s.427-.642.484-1.142l2.023.344c-.14.692-.353 1.246-.637 1.66s-.68.74-1.188.977-1.077.355-1.707.355c-1.078 0-1.942-.344-2.594-1.03-.536-.563-.805-1.199-.805-1.907 0-1.005.55-1.808 1.648-2.406-.656-.14-1.18-.456-1.574-.945s-.59-1.08-.59-1.773c0-1.005.367-1.862 1.102-2.57s1.648-1.062 2.742-1.062c1.036 0 1.896.298 2.578.895s1.081 1.373 1.19 2.337zM232.882 200.814c-1.109 0-1.977-.396-2.602-1.188-.745-.938-1.117-2.492-1.117-4.664 0-2.167.375-3.724 1.125-4.672.62-.78 1.484-1.172 2.594-1.172 1.114 0 2.013.43 2.695 1.285s1.023 2.384 1.023 4.582c0 2.156-.375 3.708-1.125 4.656-.619.782-1.484 1.173-2.593 1.173zm0-1.82c.266 0 .503-.086.711-.255s.37-.473.484-.91c.151-.567.227-1.523.227-2.867s-.067-2.267-.203-2.77-.306-.837-.512-1.004-.44-.25-.707-.25-.503.085-.71.254-.37.473-.485.91c-.15.562-.227 1.516-.227 2.86s.067 2.266.203 2.77.306.838.512 1.007.441.254.707.254z"/></g><g fill="#FFF"><path d="M209.298 189.314v2.305h4.688v1.922l-4.969 7.273h-1.844v-7.266h-1.422v-1.93h1.422v-2.305h2.125zm0 4.234v3.914l2.633-3.914h-2.633zM200.993 200.814c-1.109 0-1.977-.396-2.602-1.188-.745-.938-1.117-2.492-1.117-4.664 0-2.167.375-3.724 1.125-4.672.62-.78 1.484-1.172 2.594-1.172 1.114 0 2.013.43 2.695 1.285s1.023 2.384 1.023 4.582c0 2.156-.375 3.708-1.125 4.656-.619.782-1.483 1.173-2.593 1.173zm0-1.82c.266 0 .503-.086.711-.255s.37-.473.484-.91c.151-.567.227-1.523.227-2.867s-.067-2.267-.203-2.77-.306-.837-.512-1.004-.44-.25-.707-.25-.503.085-.71.254-.37.473-.485.91c-.15.562-.227 1.516-.227 2.86s.067 2.266.203 2.77.306.838.512 1.007.442.254.707.254z"/></g><g fill="none" stroke="gray" stroke-width=".177"><path d="M209.298 189.314v2.305h4.688v1.922l-4.969 7.273h-1.844v-7.266h-1.422v-1.93h1.422v-2.305h2.125zm0 4.234v3.914l2.633-3.914h-2.633zM200.993 200.814c-1.109 0-1.977-.396-2.602-1.188-.745-.938-1.117-2.492-1.117-4.664 0-2.167.375-3.724 1.125-4.672.62-.78 1.484-1.172 2.594-1.172 1.114 0 2.013.43 2.695 1.285s1.023 2.384 1.023 4.582c0 2.156-.375 3.708-1.125 4.656-.619.782-1.483 1.173-2.593 1.173zm0-1.82c.266 0 .503-.086.711-.255s.37-.473.484-.91c.151-.567.227-1.523.227-2.867s-.067-2.267-.203-2.77-.306-.837-.512-1.004-.44-.25-.707-.25-.503.085-.71.254-.37.473-.485.91c-.15.562-.227 1.516-.227 2.86s.067 2.266.203 2.77.306.838.512 1.007.442.254.707.254z"/></g><g fill="#FFF"><path d="m181.681 192.26-2.188.226c-.062-.495-.247-.887-.555-1.176s-.66-.434-1.062-.434c-.458 0-.847.187-1.164.56s-.477.933-.477 1.683c0 .703.157 1.23.473 1.582s.726.527 1.23.527c.63 0 1.195-.278 1.695-.836l1.781.258-1.125 5.961h-5.805v-2.055h4.141l.344-1.945a3.313 3.313 0 0 1-1.5.367c-.974 0-1.8-.354-2.477-1.062s-1.016-1.628-1.016-2.758c0-.942.273-1.784.82-2.523.745-1.01 1.778-1.516 3.102-1.516 1.058 0 1.92.284 2.586.852s1.067 1.33 1.197 2.288zM169.103 200.814c-1.109 0-1.977-.396-2.602-1.188-.745-.938-1.117-2.492-1.117-4.664 0-2.167.375-3.724 1.125-4.672.62-.78 1.484-1.172 2.594-1.172 1.114 0 2.013.43 2.695 1.285s1.023 2.384 1.023 4.582c0 2.156-.375 3.708-1.125 4.656-.62.782-1.484 1.173-2.593 1.173zm0-1.82c.266 0 .503-.086.711-.255s.37-.473.484-.91c.151-.567.227-1.523.227-2.867s-.067-2.267-.203-2.77-.306-.837-.512-1.004-.44-.25-.707-.25-.503.085-.71.254-.37.473-.485.91c-.15.562-.227 1.516-.227 2.86s.067 2.266.203 2.77.306.838.512 1.007.441.254.707.254z"/></g><g fill="none" stroke="gray" stroke-width=".177"><path d="m181.681 192.26-2.188.226c-.062-.495-.247-.887-.555-1.176s-.66-.434-1.062-.434c-.458 0-.847.187-1.164.56s-.477.933-.477 1.683c0 .703.157 1.23.473 1.582s.726.527 1.23.527c.63 0 1.195-.278 1.695-.836l1.781.258-1.125 5.961h-5.805v-2.055h4.141l.344-1.945a3.313 3.313 0 0 1-1.5.367c-.974 0-1.8-.354-2.477-1.062s-1.016-1.628-1.016-2.758c0-.942.273-1.784.82-2.523.745-1.01 1.778-1.516 3.102-1.516 1.058 0 1.92.284 2.586.852s1.067 1.33 1.197 2.288zM169.103 200.814c-1.109 0-1.977-.396-2.602-1.188-.745-.938-1.117-2.492-1.117-4.664 0-2.167.375-3.724 1.125-4.672.62-.78 1.484-1.172 2.594-1.172 1.114 0 2.013.43 2.695 1.285s1.023 2.384 1.023 4.582c0 2.156-.375 3.708-1.125 4.656-.62.782-1.484 1.173-2.593 1.173zm0-1.82c.266 0 .503-.086.711-.255s.37-.473.484-.91c.151-.567.227-1.523.227-2.867s-.067-2.267-.203-2.77-.306-.837-.512-1.004-.44-.25-.707-.25-.503.085-.71.254-.37.473-.485.91c-.15.562-.227 1.516-.227 2.86s.067 2.266.203 2.77.306.838.512 1.007.441.254.707.254z"/></g><g fill="#FFF"><path d="M145.517 189.314v2.305h4.688v1.922l-4.969 7.273h-1.844v-7.266h-1.422v-1.93h1.422v-2.305h2.125zm0 4.234v3.914l2.633-3.914h-2.633zM137.212 200.814c-1.109 0-1.977-.396-2.602-1.188-.745-.938-1.117-2.492-1.117-4.664 0-2.167.375-3.724 1.125-4.672.62-.78 1.484-1.172 2.594-1.172 1.115 0 2.013.43 2.695 1.285.683.856 1.023 2.384 1.023 4.582 0 2.156-.375 3.708-1.125 4.656-.619.782-1.484 1.173-2.593 1.173zm0-1.82c.266 0 .503-.086.711-.255.208-.169.37-.473.484-.91.151-.567.227-1.523.227-2.867s-.067-2.267-.203-2.77c-.135-.503-.306-.837-.512-1.004-.206-.167-.44-.25-.707-.25s-.502.085-.71.254c-.209.17-.37.473-.485.91-.15.562-.227 1.516-.227 2.86s.068 2.266.203 2.77c.136.502.306.838.512 1.007.206.17.441.254.707.254z"/></g><g fill="none" stroke="gray" stroke-width=".177"><path d="M145.517 189.314v2.305h4.688v1.922l-4.969 7.273h-1.844v-7.266h-1.422v-1.93h1.422v-2.305h2.125zm0 4.234v3.914l2.633-3.914h-2.633zM137.212 200.814c-1.109 0-1.977-.396-2.602-1.188-.745-.938-1.117-2.492-1.117-4.664 0-2.167.375-3.724 1.125-4.672.62-.78 1.484-1.172 2.594-1.172 1.115 0 2.013.43 2.695 1.285.683.856 1.023 2.384 1.023 4.582 0 2.156-.375 3.708-1.125 4.656-.619.782-1.484 1.173-2.593 1.173zm0-1.82c.266 0 .503-.086.711-.255.208-.169.37-.473.484-.91.151-.567.227-1.523.227-2.867s-.067-2.267-.203-2.77c-.135-.503-.306-.837-.512-1.004-.206-.167-.44-.25-.707-.25s-.502.085-.71.254c-.209.17-.37.473-.485.91-.15.562-.227 1.516-.227 2.86s.068 2.266.203 2.77c.136.502.306.838.512 1.007.206.17.441.254.707.254z"/></g><g fill="#FFF"><path d="m118.011 192.353-2.125.258c-.067-.542-.25-.956-.547-1.242s-.656-.43-1.078-.43c-.453 0-.834.172-1.145.516-.31.344-.465.808-.465 1.391 0 .552.148.99.445 1.312s.66.484 1.086.484a3.85 3.85 0 0 0 1.008-.164l-.242 1.79c-.594-.017-1.047.112-1.359.386s-.469.637-.469 1.09c0 .386.115.692.344.922.23.23.534.344.914.344.375 0 .695-.13.961-.39s.427-.642.484-1.142l2.023.344c-.14.692-.353 1.246-.637 1.66-.284.414-.68.74-1.188.977s-1.077.355-1.707.355c-1.078 0-1.942-.344-2.594-1.03-.536-.563-.805-1.199-.805-1.907 0-1.005.55-1.808 1.648-2.406-.656-.14-1.18-.456-1.574-.945-.393-.489-.59-1.08-.59-1.773 0-1.005.367-1.862 1.102-2.57s1.648-1.062 2.742-1.062c1.037 0 1.896.298 2.578.895.685.594 1.08 1.373 1.19 2.337zM105.323 200.814c-1.109 0-1.977-.396-2.602-1.188-.745-.938-1.117-2.492-1.117-4.664 0-2.167.375-3.724 1.125-4.672.62-.78 1.484-1.172 2.594-1.172 1.115 0 2.013.43 2.695 1.285.683.856 1.023 2.384 1.023 4.582 0 2.156-.375 3.708-1.125 4.656-.619.782-1.483 1.173-2.593 1.173zm0-1.82c.266 0 .503-.086.711-.255.208-.169.37-.473.484-.91.151-.567.227-1.523.227-2.867s-.067-2.267-.203-2.77c-.135-.503-.306-.837-.512-1.004-.206-.167-.44-.25-.707-.25s-.502.085-.71.254c-.209.17-.37.473-.485.91-.15.562-.227 1.516-.227 2.86s.068 2.266.203 2.77c.136.502.306.838.512 1.007.206.17.442.254.707.254z"/></g><g fill="none" stroke="gray" stroke-width=".177"><path d="m118.011 192.353-2.125.258c-.067-.542-.25-.956-.547-1.242s-.656-.43-1.078-.43c-.453 0-.834.172-1.145.516-.31.344-.465.808-.465 1.391 0 .552.148.99.445 1.312s.66.484 1.086.484a3.85 3.85 0 0 0 1.008-.164l-.242 1.79c-.594-.017-1.047.112-1.359.386s-.469.637-.469 1.09c0 .386.115.692.344.922.23.23.534.344.914.344.375 0 .695-.13.961-.39s.427-.642.484-1.142l2.023.344c-.14.692-.353 1.246-.637 1.66-.284.414-.68.74-1.188.977s-1.077.355-1.707.355c-1.078 0-1.942-.344-2.594-1.03-.536-.563-.805-1.199-.805-1.907 0-1.005.55-1.808 1.648-2.406-.656-.14-1.18-.456-1.574-.945-.393-.489-.59-1.08-.59-1.773 0-1.005.367-1.862 1.102-2.57s1.648-1.062 2.742-1.062c1.037 0 1.896.298 2.578.895.685.594 1.08 1.373 1.19 2.337zM105.323 200.814c-1.109 0-1.977-.396-2.602-1.188-.745-.938-1.117-2.492-1.117-4.664 0-2.167.375-3.724 1.125-4.672.62-.78 1.484-1.172 2.594-1.172 1.115 0 2.013.43 2.695 1.285.683.856 1.023 2.384 1.023 4.582 0 2.156-.375 3.708-1.125 4.656-.619.782-1.483 1.173-2.593 1.173zm0-1.82c.266 0 .503-.086.711-.255.208-.169.37-.473.484-.91.151-.567.227-1.523.227-2.867s-.067-2.267-.203-2.77c-.135-.503-.306-.837-.512-1.004-.206-.167-.44-.25-.707-.25s-.502.085-.71.254c-.209.17-.37.473-.485.91-.15.562-.227 1.516-.227 2.86s.068 2.266.203 2.77c.136.502.306.838.512 1.007.206.17.442.254.707.254z"/></g><g fill="#FFF"><path d="M78.628 191.353v-2.039h7.695a5.287 5.287 0 0 1-.75 2.191c-.417.69-1.239 1.605-2.469 2.746-.989.922-1.596 1.547-1.82 1.875-.302.453-.453.901-.453 1.344 0 .49.132.866.395 1.13.263.262.626.394 1.09.394.458 0 .823-.138 1.094-.414.271-.276.427-.734.47-1.375l2.187.22c-.13 1.207-.539 2.074-1.227 2.601s-1.547.79-2.578.79c-1.13 0-2.018-.306-2.664-.915-.646-.609-.969-1.367-.969-2.273 0-.516.093-1.007.277-1.473.185-.466.478-.954.88-1.465.265-.339.744-.825 1.437-1.46.693-.637 1.132-1.059 1.316-1.267.185-.208.335-.41.45-.609h-4.36zM73.433 200.814c-1.109 0-1.977-.396-2.602-1.188-.745-.938-1.117-2.492-1.117-4.664 0-2.167.375-3.724 1.125-4.672.62-.78 1.484-1.172 2.594-1.172 1.115 0 2.013.43 2.695 1.285.683.856 1.023 2.384 1.023 4.582 0 2.156-.375 3.708-1.125 4.656-.619.782-1.484 1.173-2.593 1.173zm0-1.82c.266 0 .503-.086.711-.255.208-.169.37-.473.484-.91.151-.567.227-1.523.227-2.867s-.067-2.267-.203-2.77c-.135-.503-.306-.837-.512-1.004-.206-.167-.44-.25-.707-.25s-.502.085-.71.254c-.209.17-.37.473-.485.91-.15.562-.227 1.516-.227 2.86s.068 2.266.203 2.77c.136.502.306.838.512 1.007.206.17.441.254.707.254z"/></g><g fill="none" stroke="gray" stroke-width=".177"><path d="M78.628 191.353v-2.039h7.695a5.287 5.287 0 0 1-.75 2.191c-.417.69-1.239 1.605-2.469 2.746-.989.922-1.596 1.547-1.82 1.875-.302.453-.453.901-.453 1.344 0 .49.132.866.395 1.13.263.262.626.394 1.09.394.458 0 .823-.138 1.094-.414.271-.276.427-.734.47-1.375l2.187.22c-.13 1.207-.539 2.074-1.227 2.601s-1.547.79-2.578.79c-1.13 0-2.018-.306-2.664-.915-.646-.609-.969-1.367-.969-2.273 0-.516.093-1.007.277-1.473.185-.466.478-.954.88-1.465.265-.339.744-.825 1.437-1.46.693-.637 1.132-1.059 1.316-1.267.185-.208.335-.41.45-.609h-4.36zM73.433 200.814c-1.109 0-1.977-.396-2.602-1.188-.745-.938-1.117-2.492-1.117-4.664 0-2.167.375-3.724 1.125-4.672.62-.78 1.484-1.172 2.594-1.172 1.115 0 2.013.43 2.695 1.285.683.856 1.023 2.384 1.023 4.582 0 2.156-.375 3.708-1.125 4.656-.619.782-1.484 1.173-2.593 1.173zm0-1.82c.266 0 .503-.086.711-.255.208-.169.37-.473.484-.91.151-.567.227-1.523.227-2.867s-.067-2.267-.203-2.77c-.135-.503-.306-.837-.512-1.004-.206-.167-.44-.25-.707-.25s-.502.085-.71.254c-.209.17-.37.473-.485.91-.15.562-.227 1.516-.227 2.86s.068 2.266.203 2.77c.136.502.306.838.512 1.007.206.17.441.254.707.254z"/></g><g fill="#FFF"><path d="M48.536 189.314h2.195v8.273a7.567 7.567 0 0 1 2.836-1.664v1.992c-.573.188-1.195.543-1.867 1.066s-1.133 1.134-1.383 1.832h-1.78v-11.499zM41.544 200.814c-1.109 0-1.977-.396-2.602-1.188-.745-.938-1.117-2.492-1.117-4.664 0-2.167.375-3.724 1.125-4.672.62-.78 1.484-1.172 2.594-1.172 1.115 0 2.013.43 2.695 1.285.683.856 1.023 2.384 1.023 4.582 0 2.156-.375 3.708-1.125 4.656-.619.782-1.484 1.173-2.593 1.173zm0-1.82c.266 0 .503-.086.711-.255.208-.169.37-.473.484-.91.151-.567.227-1.523.227-2.867s-.067-2.267-.203-2.77c-.135-.503-.306-.837-.512-1.004-.206-.167-.44-.25-.707-.25s-.502.085-.71.254c-.209.17-.37.473-.485.91-.15.562-.227 1.516-.227 2.86s.068 2.266.203 2.77c.136.502.306.838.512 1.007.206.17.441.254.707.254z"/></g><g fill="none" stroke="gray" stroke-width=".177"><path d="M48.536 189.314h2.195v8.273a7.567 7.567 0 0 1 2.836-1.664v1.992c-.573.188-1.195.543-1.867 1.066s-1.133 1.134-1.383 1.832h-1.78v-11.499zM41.544 200.814c-1.109 0-1.977-.396-2.602-1.188-.745-.938-1.117-2.492-1.117-4.664 0-2.167.375-3.724 1.125-4.672.62-.78 1.484-1.172 2.594-1.172 1.115 0 2.013.43 2.695 1.285.683.856 1.023 2.384 1.023 4.582 0 2.156-.375 3.708-1.125 4.656-.619.782-1.484 1.173-2.593 1.173zm0-1.82c.266 0 .503-.086.711-.255.208-.169.37-.473.484-.91.151-.567.227-1.523.227-2.867s-.067-2.267-.203-2.77c-.135-.503-.306-.837-.512-1.004-.206-.167-.44-.25-.707-.25s-.502.085-.71.254c-.209.17-.37.473-.485.91-.15.562-.227 1.516-.227 2.86s.068 2.266.203 2.77c.136.502.306.838.512 1.007.206.17.441.254.707.254z"/></g><g fill="#FFF"><path d="m315.27 195.271-3.98 1.148v-2.297l3.98 1.15zM283.38 195.271l-3.978 1.148v-2.297l3.978 1.15zM251.49 195.271l-3.978 1.148v-2.297l3.978 1.15zM219.601 195.271l-3.979 1.148v-2.297l3.98 1.15z"/></g><g fill="#FFF"><path d="m29.873 195.271 3.978 1.148v-2.297l-3.978 1.15zM61.762 195.271l3.978 1.148v-2.297l-3.978 1.15zM93.651 195.271l3.978 1.148v-2.297l-3.978 1.15zM125.541 195.271l3.978 1.148v-2.297l-3.978 1.15z"/></g></g></svg>