<svg xmlns="http://www.w3.org/2000/svg" width="444.196" height="260.538" xml:space="preserve"><path fill="none" d="m37.919 19.892-.3 236.445"/><path fill="none" stroke="#FFF" stroke-width="2" d="M37.128 19.892h354.858M391.986 18.94v238.173M391.986 256.037l-354.367.3M37.919 53.198l69.913-.3M107.832 52.156l.6 172.251M108.432 223.331H37.919M37.619 176.822l23.704-.3M37.919 99.707l23.404-.3M61.323 98.579v79.092M37.619 123.112H26.883M27.717 123.112v30.906M27.078 154.018l10.241.299M214.953 19.892l.299 237.045M321.003 53.198h70.983M322.073 53.198l.6 170.133M321.707 223.331h69.979M367.861 99.707h24.125M368.882 99.707l.599 78.172M369.481 176.822h22.505M392.286 122.512h10.202M402.488 121.543v33.66M402.49 154.182l-10.206-.03"/><ellipse fill="none" stroke="#FFF" stroke-width="1.5" cx="215.403" cy="138.715" rx="40.358" ry="38.407"/><circle fill="#FFF" cx="215.183" cy="138.714" r="2.7"/><circle fill="#FFF" cx="345.777" cy="138.414" r="2.7"/><circle fill="#FFF" cx="84.826" cy="138.116" r="2.7"/><path fill="none" stroke="#FFF" stroke-width="1.5" d="M107.606 108.297c9.95 6.755 16.429 17.773 16.429 30.217 0 12.319-6.349 23.239-16.129 30.011M321.851 108.216c-9.791 6.983-16.012 18.149-15.724 30.59.286 12.315 6.886 23.085 16.821 29.628M44.876 19.881c.094.438.144.894.144 1.361 0 3.397-2.62 6.151-5.851 6.151a5.6 5.6 0 0 1-1.289-.15M392.106 27.475a6.507 6.507 0 0 1-1.369.018c-3.383-.313-5.883-3.175-5.584-6.393.041-.441.131-.866.268-1.27M384.896 256.052a6.386 6.386 0 0 1-.007-1.369c.343-3.38 3.226-5.855 6.44-5.53.441.045.865.141 1.268.279M38.048 248.943a6.426 6.426 0 0 1 1.369-.034c3.387.274 5.92 3.107 5.659 6.328a5.507 5.507 0 0 1-.253 1.272"/><path fill="none" stroke="#FFF" stroke-width="2" d="m37.94 19.777.3 237.045"/></svg>