<svg xmlns="http://www.w3.org/2000/svg" width="708.66" height="198.43" xml:space="preserve"><g><path fill-rule="evenodd" clip-rule="evenodd" fill="#733E7F" d="M357.626 99.322c0 1.746-1.463 3.141-3.249 3.141-1.812 0-3.274-1.396-3.274-3.141 0-1.712 1.463-3.106 3.274-3.106 1.786 0 3.249 1.395 3.249 3.106"/><path fill="#733E7F" d="M357.626 99.322h-.174c-.008 1.646-1.379 2.967-3.075 2.967-1.728 0-3.099-1.32-3.099-2.967 0-.806.341-1.537.904-2.069a3.168 3.168 0 0 1 2.194-.863c.848 0 1.62.332 2.169.855.558.54.906 1.271.906 2.077h.349c-.008-1.812-1.546-3.282-3.424-3.282-1.903 0-3.448 1.471-3.448 3.283 0 1.836 1.545 3.315 3.448 3.315 1.878 0 3.416-1.479 3.424-3.316"/><path fill-rule="evenodd" clip-rule="evenodd" fill="#FFFEFE" d="M356.87 97.653a.816.816 0 0 0-.457-.375c-.358-.124-.813.1-.94.406-.099.283-.031.467-.031.467h.033l.125.183.099.099h.034l.132.092-.134.125c-.065.025-.258.15-.323.249-.033.092-.033.192 0 .25.034.092.125.15.224.183.166.066.458-.149.524-.216.157-.025.225-.125.323-.217l.125-.124.134-.125c0-.025.099-.217.157-.375a.858.858 0 0 0-.025-.622m-3.017 3.423.092-.092.099-.217.1-.189.092-.125.199-.432c.457-.724.482-1.089.424-1.313-.033-.24-.167-.341-.391-.341-.132 0-.232.065-.258.157l-.133.15-.166.473a4.442 4.442 0 0 0-.189.465 1.95 1.95 0 0 1-.293.598s-.065.059-.099.15l-.033-.059c0-.065-.157-.407-.225-.564v-.025c-.358-.781-.582-1.245-.813-1.28-.324-.033-.449.399-.449.434h-.033l.066.282v.033l.092.15.133.224c.033.025.257.557.457 1.056.158.431.58.863.806.896.099.033.224-.091.291-.182l.231-.249z"/></g></svg>