<svg xmlns="http://www.w3.org/2000/svg" viewBox="0 0 16 16"><path d="M8 1.031c-.246-.002-.485.325-.5.969-2.897.255-5.244 2.602-5.5 5.5-1.27 0-1.287.97 0 1 .228 2.917 2.585 5.22 5.5 5.469 0 1.404 1 1.356 1 0A5.915 5.915 0 0 0 13.969 8.5c1.394 0 1.356-1 0-1-.25-2.918-2.552-5.273-5.469-5.5 0-.635-.254-.967-.5-.969zm-.5 2.282v3.5l-2.469-2.47A4.72 4.72 0 0 1 7.5 3.314zm1 0a4.747 4.747 0 0 1 2.469 1.03L8.5 6.814v-3.5zm3.188 1.718a4.731 4.731 0 0 1 1.03 2.469h-3.5l2.47-2.469zm-7.344.032L6.78 7.5H3.313a4.792 4.792 0 0 1 1.03-2.438zM8 7.25a.75.75 0 1 1 0 1.5.75.75 0 0 1 0-1.5zM3.312 8.5h3.532l-2.5 2.5a4.745 4.745 0 0 1-1.032-2.5zm5.844 0h3.563a4.735 4.735 0 0 1-1.063 2.5l-2.5-2.5zM7.5 9.219v3.5a4.731 4.731 0 0 1-2.469-1.031L7.5 9.217zm1 0 2.469 2.5a4.753 4.753 0 0 1-2.469 1v-3.5z"/></svg>