<svg xmlns="http://www.w3.org/2000/svg" width="16" height="16"><path d="M3 2c-1.166 0-2 .796-2 2v11h7V7.125S8.875 7 8.875 8v4c0 2 1.865 2.125 2.125 2.125.276 0 2.125-.125 2.125-2.125V8s1.388.017 1.375-2.969h-.75v-2c0-.567-.75-.563-.75-.031v2h-1V3a.376.376 0 0 0-.75 0v2h-.75c.013 2.986 1.375 3 1.375 3v4c0 .874-.767.875-.875.875-.108 0-.875-.043-.875-.875V8C10.125 6.72 9 5.875 8 5.875V4c0-1.222-.816-2-2-2Zm.969 2h2.75L5 6.667h2.063L3.28 12h-.687l1.375-4H2.25Z" style="fill:#000;fill-opacity:1;stroke:none"/></svg>