<svg xmlns="http://www.w3.org/2000/svg" width="14" height="14" xml:space="preserve"><path style="color:#000;font-style:normal;font-variant:normal;font-weight:400;font-stretch:normal;font-size:medium;line-height:normal;font-family:sans-serif;text-indent:0;text-align:start;text-decoration:none;text-decoration-line:none;text-decoration-style:solid;text-decoration-color:#000;letter-spacing:normal;word-spacing:normal;text-transform:none;direction:ltr;block-progression:tb;writing-mode:lr-tb;baseline-shift:baseline;text-anchor:start;white-space:normal;clip-rule:nonzero;display:inline;visibility:visible;opacity:1;isolation:auto;mix-blend-mode:normal;color-interpolation:sRGB;color-interpolation-filters:linearRGB;solid-color:#000;solid-opacity:1;fill:#000;fill-opacity:1;fill-rule:nonzero;stroke:none;stroke-width:.88950002;stroke-linecap:butt;stroke-linejoin:miter;stroke-miterlimit:4;stroke-dasharray:none;stroke-dashoffset:0;stroke-opacity:1;color-rendering:auto;image-rendering:auto;shape-rendering:auto;text-rendering:auto;enable-background:accumulate" d="M2 10c-.25 0-.322.148-.447.399l-1.088 3.13C.279 13.78.749 14 1 14h12c.25 0 .62-.25.535-.47l-1.119-3.164C12.291 10.147 12.251 10 12 10ZM3 1c-.485 0-1 .517-1 1v6c0 .483.517 1 1 1h8c.483 0 1-.517 1-1V2c0-.483-.517-1-1-1H3Zm0 1h8v6H3V2z"/></svg>