<svg xmlns="http://www.w3.org/2000/svg" viewBox="0 0 16 16"><path d="M4.5 1 1 4l3.5 3V5h5v2L13 4 9.5 1v2h-5zM3 7.5c-.534 0-1.492 1-2 1V10c.537 0 1.525-1 2-1 .504 0 1.466 1 2 1 .476 0 1.492-1 2-1 .504 0 1.522 1 2 1 .504 0 1.525-1 2-1 .475 0 1.496 1 2 1V8.5c-.415 0-1.466-1.03-2-1-.478 0-1.465 1-2 1-.445 0-1.496-1-2-1s-1.554 1-2 1c-.476 0-1.466-1-2-1zm0 3c-.534 0-1.492 1-2 1V13c.537 0 1.525-1 2-1 .504 0 1.466 1 2 1 .476 0 1.492-1 2-1 .504 0 1.522 1 2 1 .504 0 1.525-1 2-1 .475 0 1.496 1 2 1v-1.5c-.415 0-1.466-1.03-2-1-.478 0-1.465 1-2 1-.445 0-1.496-1-2-1s-1.554 1-2 1c-.476 0-1.466-1-2-1z" style="color:#000;fill:#000;fill-opacity:1" transform="translate(1 1)"/></svg>