<svg xmlns="http://www.w3.org/2000/svg" viewBox="0 0 16 16"><path d="M8 1 5 2.5C4.535 4 4.535 5 5 7h1l-1 8h6l-1-8h1c.53-2 .53-3 0-4.5L8 1zM1.72 2.469c-.168.084-.23.376 0 .469l1.874.75c.306.123.493-.346.188-.47l-1.875-.75c-.077-.03-.132-.027-.188 0zm12.374 0-1.875.75c-.306.123-.119.592.188.469l1.875-.75c.305-.124.118-.593-.188-.47zM5.5 3h5c.26 1 .26 2 0 3h-5c-.259-1-.259-2 0-3zM1.75 4.25c-.33 0-.33.5 0 .5h2c.33 0 .33-.5 0-.5h-2zm10.5 0c-.33 0-.33.5 0 .5h2c.33 0 .33-.5 0-.5h-2zM3.594 5.375l-1.875.75c-.306.123-.119.592.188.469l1.875-.75c.305-.124.118-.592-.188-.469zm8.625 0c-.167.084-.23.376 0 .469l1.875.75c.306.123.493-.346.188-.469l-1.875-.75c-.077-.03-.132-.028-.188 0z" style="fill:#1a1a1a;fill-opacity:1;stroke:none"/></svg>