<svg xmlns="http://www.w3.org/2000/svg" viewBox="0 0 16 16"><path d="M13.105 9.593c.23.143.365.301.43.501.022.066.023.08.023.215a.784.784 0 0 1-.017.227 1.828 1.828 0 0 1-.164.42l-.031.06-.108.006c-.39.02-.705.09-.978.22-.586.28-.955.804-1.137 1.616l-.016.065-.076.07c-.042.038-.099.084-.127.101-.253.16-.616.256-1.13.301-.232.02-.387.025-1.133.032-.438.004-.799.009-.801.011a.112.112 0 0 1-.037.004c-.04 0-.036.015-.014-.164a3.04 3.04 0 0 0-.01-.83c-.117-.668-.53-1.106-1.23-1.307-.308-.088-.58-.12-1.041-.127l-.295-.005-.02-.02a.478.478 0 0 1-.12-.397.436.436 0 0 1 .097-.181L6 9.567c1.8-.006 2.28.003 4 .018.096.023.53.894.576.966a.644.644 0 0 1 .074.2c.012 0 .172-.064.254-.102.22-.1.494-.496.633-.658.133-1.558-2.037-5.694 1.568-.399Zm-.084 1.607a1.83 1.83 0 0 1 1.407.512c.51.5.629 1.25.298 1.867-.274.513-.817.86-1.425.91a1.993 1.993 0 0 1-.717-.078 1.715 1.715 0 0 1-1.12-1.05 1.56 1.56 0 0 1 .165-1.366 1.789 1.789 0 0 1 1.392-.795zm-7.13.004c.214 0 .274.006.43.043.698.165 1.22.708 1.32 1.375.018.123.018.339 0 .455-.09.556-.454 1.016-.993 1.258a1.982 1.982 0 0 1-.58.154 2.458 2.458 0 0 1-.468-.016c-.752-.12-1.322-.651-1.456-1.357a1.838 1.838 0 0 1-.005-.512c.06-.359.231-.67.503-.924.264-.245.576-.397.957-.463.068-.011.126-.013.291-.013zm7.197.564a1.18 1.18 0 0 0-.871.432 1.283 1.283 0 0 0-.184.342c-.119.39-.003.795.307 1.076.078.071.195.152.279.191.066.031.201.075.281.092.1.02.326.027.424.012.472-.073.84-.399.95-.836.024-.1.03-.297.011-.4-.1-.552-.605-.935-1.197-.909zm-7.194.004c-.208 0-.359.033-.533.117-.12.059-.21.119-.304.211-.156.152-.25.318-.301.528-.021.086-.025.292-.008.39.043.254.197.503.408.662.163.123.349.201.543.23.096.015.298.016.385 0 .686-.116 1.105-.744.914-1.368a1.126 1.126 0 0 0-.723-.711 1.094 1.094 0 0 0-.38-.059zM2 1v10h2V7.5h2.5c1.976 0 3.5-1 3.5-3.25S8.487 1 6.969 1Zm2 2h2.5C7.464 3 8 3.525 8 4.25S7.368 5.5 6.5 5.5H4Z" style="fill:#1a1a1a;fill-rule:evenodd"/></svg>