<svg xmlns="http://www.w3.org/2000/svg" viewBox="0 0 16 16"><path d="M12.719 1.5c-.71-.1-2.513 1.016-4.688 3.094.722.038 1.44.775 1.375 1.437 2.145-2.05 3.39-3.784 3.313-4.531zM2.937 4.25c-.61.022-1.063.103-1.281.281.306.65 2.195 1.542 5.125 2.219-.364-.624-.12-1.628.469-1.938-1.807-.417-3.297-.598-4.313-.562zM8 5.5a.5.5 0 1 0 0 1 .5.5 0 0 0 0-1zm1.312 1.031c-.202.634-1.165 1.031-1.843.782 1.177 2.767 2.4 4.468 3.093 4.656.366-.656-.088-2.708-1.25-5.438zM7.406 8.75 7 14H5v1h6v-1H9l-.219-2.781A36.23 36.23 0 0 1 7.406 8.75z" style="fill:#1a1a1a;fill-opacity:1;stroke:none"/></svg>