<svg xmlns="http://www.w3.org/2000/svg" viewBox="0 0 16 16"><path d="M9 2.5v.875l1.25.781V5.25H6V4.5h.5c1 0 1-1 0-1h-2c-1 0-1 1 0 1H5v.75L4.062 7H4c-1.612 0-3 1.388-3 3s1.388 3 3 3 3-1.388 3-3a2.9 2.9 0 0 0-.188-1h.438c.75 0 .923-.454 1.188-.719l1.78-2.031.532 1.031C9.727 7.766 9 8.825 9 10c0 1.612 1.388 3 3 3s3-1.388 3-3-1.388-3-3-3c-.031 0-.062-.001-.094 0L11 5.25V3.656L9 2.5zM5.781 6.25h3.125L7.344 8H6.219c-.019 0-.044.002-.063 0a3.028 3.028 0 0 0-.906-.688c-.012-.018-.02-.043-.031-.062l.562-1zM4 8c1.006 0 2 .994 2 2s-.994 2-2 2-2-.994-2-2 .994-2 2-2zm8 0c1.006 0 2 .994 2 2s-.994 2-2 2-2-.994-2-2 .994-2 2-2z" style="fill:#1a1a1a;stroke:none"/></svg>