<svg xmlns="http://www.w3.org/2000/svg" viewBox="0 0 16 16"><path d="M11.5 1c-.925 0-1.724.503-2.156 1.25H3.5c-.878 0-1.5.521-1.5 1.25s.603 1.25 1.5 1.25h5.844a2.484 2.484 0 0 0 4.312 0H12L10.5 3.5 12 2.25h1.656A2.484 2.484 0 0 0 11.5 1zm-8 2a.5.5 0 1 1 0 1 .5.5 0 0 1 0-1zM5 7l-1 3c-.473 0-1 .384-1 1v3h1s0 1 1 1 1-1 1-1h4s0 1 1 1 1-1 1-1h1v-3c0-.52-.455-1-1-1l-1-3H5zm1 1h4l.625 2h-5.25L6 8zm-1 3.25a.75.75 0 1 1 0 1.5.75.75 0 0 1 0-1.5zm6 0a.75.75 0 1 1 0 1.5.75.75 0 0 1 0-1.5z" style="fill:#1a1a1a;stroke:none"/></svg>