<svg xmlns="http://www.w3.org/2000/svg" viewBox="0 0 16 16"><path d="M5 1v9.531C4.58 10.212 4.065 10 3.5 10A2.508 2.508 0 0 0 1 12.5C1 13.875 2.125 15 3.5 15a2.5 2.5 0 0 0 2.438-2h.125A2.5 2.5 0 0 0 8.5 15c1.375 0 2.5-1.125 2.5-2.5S9.875 10 8.5 10c-.565 0-1.08.212-1.5.531V1zm4 0v2h4v1H9v1h4v1H9v1h4v1H9v1h4v6h2V3c0-1-1-2-2-2zM3.5 11c.834 0 1.5.666 1.5 1.5S4.334 14 3.5 14 2 13.334 2 12.5 2.666 11 3.5 11zm5 0c.834 0 1.5.666 1.5 1.5S9.334 14 8.5 14 7 13.334 7 12.5 7.666 11 8.5 11z" style="fill:#1a1a1a;fill-opacity:1;stroke:none"/></svg>