<svg xmlns="http://www.w3.org/2000/svg" viewBox="0 0 16 16"><path d="M10.413 1.002c-1.244.144-1.95 1.507-2.04 2.692-.147 1.052.313 2.396 1.419 2.638.958.086 1.72-.815 2.034-1.674.37-1.075.38-2.51-.517-3.315a1.342 1.342 0 0 0-.896-.34zM5.34 1.06C4.305 1.133 3.775 2.336 3.847 3.3c.009 1.291.717 2.743 2.01 3.05.964.103 1.607-.919 1.667-1.813C7.647 3.17 7.04 1.513 5.668 1.1a1.123 1.123 0 0 0-.328-.041zm8.315 4.145c-1.388.101-2.266 1.581-2.327 2.918-.073.87.49 1.966 1.437 1.906 1.417-.15 2.27-1.73 2.235-3.1-.009-.79-.51-1.691-1.345-1.724zM1.011 7.009c-.129 1.481.908 3.156 2.414 3.249.913-.061 1.343-1.121 1.238-1.96-.083-1.238-.91-2.505-1.985-2.67-1.076-.166-1.684.594-1.667 1.38zm7.148 1.263c-1.412.004-2.702.927-3.393 2.176-.578.933-1.05 1.99-1.14 3.105.02.86.84 1.576 1.663 1.405 1.173-.153 2.222-.968 3.443-.815 1.014.081 1.85.868 2.875.856.994.037 1.567-1.102 1.188-1.995-.408-1.277-1.199-2.389-2.048-3.39-.677-.738-1.565-1.374-2.588-1.342z" style="fill:#1a1a1a;fill-opacity:1;stroke:none"/></svg>