<svg xmlns="http://www.w3.org/2000/svg" viewBox="0 0 16 16"><path d="M7.984 1 6.982 2c.062.437.078.775.125 1.156-1.224.38-2.13 1.498-2.13 2.844 0 1.357.922 2.473 2.161 2.844-.05.376-.085.73-.156 1.156l.501.5v.406c-.922-.62-1.901-1.31-2.506-1.906C2.944 7 3.48 3.5 5.979 2 3.98 2.5 2 4.308 2 7c0 3 2.977 4 2.977 5l1.002-1 1.285.719c-.614.38-1.285.781-1.285.781l.501.5 1.066-.594v.719c-.326.165-.564.486-.564.875a1.001 1.001 0 0 0 2.005 0 .96.96 0 0 0-.533-.875v-.719L9.488 13l.502-.5s-.707-.443-1.254-.781L9.99 11l1.002 1c0-1 3.008-2 3.008-5 0-2.692-2.005-4.5-4.01-5 2.506 1.5 3.041 5 1.002 7-.615.603-1.571 1.311-2.506 1.938V10.5l.5-.5c-.068-.414-.106-.775-.156-1.156 1.24-.371 2.162-1.487 2.162-2.844 0-1.357-.923-2.473-2.162-2.844.05-.381.088-.742.157-1.156L7.984 1zm.721 3.125A2.007 2.007 0 0 1 9.99 6c0 .853-.532 1.587-1.285 1.875a19.374 19.374 0 0 1 0-3.75zm-1.504.031c.009-.004.022.004.031 0 .135 1.39.151 2.483.032 3.719A2.007 2.007 0 0 1 7.2 4.156zM5.478 13a.5.5 0 1 0-.001 1.001.5.5 0 0 0 0-1.001zm5.013 0a.5.5 0 1 0-.001 1.001.5.5 0 0 0 0-1.001z"/></svg>