<svg xmlns="http://www.w3.org/2000/svg" width="14" height="14" xml:space="preserve"><g style="fill:#000"><path style="fill:#000;fill-opacity:1;fill-rule:evenodd;stroke:none;stroke-opacity:1" d="M238.897 116.293a45.1 38.04 0 0 1-45.1 38.04 45.1 38.04 0 0 1-45.102-38.04 45.1 38.04 0 0 1 45.101-38.039 45.1 38.04 0 0 1 45.1 38.04zm243.774 258.43-95.383 20.806c-3.896.85-12.525.1-15.792-.583-8.373-1.378-10.78-4.678-14.056-8.13l-45.158-63.15-56.77 51.718 22.92 96.697c.734 2.073 1.1 3.798 1.1 5.176 0 6.207-2.364 11.552-7.095 16.034-4.73 4.482-10.372 6.723-16.926 6.723-12.37 0-20.015-6.034-22.937-18.102l-27.836-117.386c-3.276-12.415-1.822-21.553 4.365-27.414l49.673-47.063-54.039-59.467-34.932 33.095c-3.642 3.44-7.829 5.16-12.56 5.16-6.185 0-12.187-2.583-18.007-7.748l-56.77-53.786c-2.91-3.451-4.363-7.244-4.365-11.379.003-5.165 1.91-9.473 5.732-12.925 3.82-3.45 8.28-5.176 13.375-5.176 5.099 0 9.102 1.378 12.011 4.134l46.943 44.49 56.77-53.785c4.365-4.146 9.966-7.43 16.376-6.22l123.588 23.349c5.346 1.01 9.258 5.287 13.256 9.433l27.452 40.149c4.364 3.44 6.548 7.748 6.547 12.925 0 4.829-1.817 8.967-5.455 12.413-3.636 3.444-8.004 5.167-13.102 5.167-5.452 0-10.184-2.068-14.193-6.202l-31.875-45.31-51.786-7.448L391.17 352.46l87.534-21.329c6.918 0 13.231 1.186 17.963 5.326 4.73 4.14 9.536 7.81 9.536 14.355 0 6.207-3.015 11.595-7.744 15.905-4.731 4.31-9.418 6.616-15.788 8.006z" transform="matrix(.0281 0 0 .03312 -1.172 -2.576)"/></g></svg>