<svg xmlns="http://www.w3.org/2000/svg" viewBox="0 0 16 16"><path d="M1 1v7s0 4 4 4c.488 0 .905-.083 1.281-.188C6.223 11.33 6.25 11 6.25 11v-.219C5.907 10.915 5.49 11 5 11c-3 0-3-3-3-3V2.5c2 .952 4 .952 6 0v1.156c.334.133.677.258 1 .344V1C6 2.373 4 2.305 1 1zm2.5 3a1 1 0 1 0 0 2 1 1 0 0 0 0-2zM7 4v7s0 4 4 4 4-4 4-4V4c-3 1.373-5 1.305-8 0zm2.5 3a1 1 0 1 1 0 2 1 1 0 0 1 0-2zm3 0a1 1 0 1 1 0 2 1 1 0 0 1 0-2zM5 7.5c-1.462 0-2 1.017-2 2h3.25V7.844C5.946 7.622 5.546 7.5 5 7.5zM9 11h4c0 1-1 2-2 2s-2-1-2-2z" style="fill:#1a1a1a;fill-opacity:1;stroke:none"/></svg>