<svg xmlns="http://www.w3.org/2000/svg" viewBox="0 0 16 16"><path d="M8.281 1.906A.658.658 0 0 0 8 2L4.969 3.625c-.385.182-.535.752-.282 1.094L5.5 6 2 8l.031.625S2.5 8.25 3 8.25c.474 0 1.423.75 2 .75.503 0 1.496-.75 2-.75.524 0 1.476.75 2 .75h.344L6.5 4.5l2.094-1.094c.448-.258.593-.708.406-1.031-.172-.298-.437-.491-.719-.469zM10 4.5a1.5 1.5 0 1 0 0 3 1.5 1.5 0 0 0 0-3zM3 9.75c-.534 0-1.492.75-2 .75V12c.537 0 1.525-.75 2-.75.504 0 1.466.75 2 .75.476 0 1.492-.75 2-.75.504 0 1.522.75 2 .75.504 0 1.525-.75 2-.75.475 0 1.496.75 2 .75v-1.5c-.415 0-1.466-.78-2-.75-.478 0-1.465.75-2 .75-.445 0-1.496-.75-2-.75s-1.554.75-2 .75c-.476 0-1.466-.75-2-.75z" style="fill:#000;fill-opacity:1" transform="translate(1 1)"/></svg>