<svg xmlns="http://www.w3.org/2000/svg" xml:space="preserve" height="580" width="580"><path d="M292.765 282.331c-.748-.013-1.308.816-1.131 1.516-.006 1.395.016 2.658-.012 4.053-.507.424-1.143.65-1.668 1.05-1.551.968-3.152 1.868-4.668 2.886-.31.598-.073 1.282-.151 1.917.066.346.532.446.792.25 1.929-.598 3.825-1.296 5.762-1.865-.008.736.03 1.474.01 2.211-.017.225.02.474-.047.684-.43.482-1.146.698-1.418 1.315-.09.401-.014.82-.04 1.226.033.285.337.546.622.412.563-.18 1.136-.33 1.688-.533.293-.106.607-.067.886.055.622.19 1.244.485 1.902.477.317-.148.266-.556.234-.84.057-.422.068-.963-.335-1.222-.381-.307-.797-.577-1.15-.919-.023-.953-.053-1.95.007-2.877.743.255 1.5.464 2.242.727 1.312.433 2.615.908 3.954 1.248.336-.057.415-.488.319-.768-.012-.49.138-1.04-.14-1.483-1.133-.817-2.39-1.443-3.562-2.199-.948-.569-1.896-1.14-2.842-1.712-.107-.613.029-1.242-.037-1.86-.004-1.064.079-2.007-.094-3.062a1.195 1.195 0 0 0-1.123-.687z" stroke-linejoin="round" stroke-width=".66" stroke="#0071BC" fill="none"/></svg>