<svg xmlns="http://www.w3.org/2000/svg" xml:space="preserve" height="580" width="580"><g stroke-linejoin="round" stroke-linecap="round" stroke="#93278F" fill="#93278F"><path d="M308.672 283.257h1.135v3.746h-1.135v-3.746z" stroke-width=".459" transform="matrix(1.00144 0 0 1.05439 -15.58 -16.459)"/><path d="M307.575 287.559c-.05-.285 1.205-.88 1.67-.881.465 0 1.672.675 1.761.881v9.509c-.86.446-2.938.359-3.432 0v-9.509h.001z" stroke-width="1.387" transform="matrix(1.00144 0 0 1.05439 -15.58 -16.459)"/></g><path d="M301.638 293.224v3.679" stroke-linecap="round" stroke-width=".72" stroke="#93278F" fill="none"/><g stroke="#93278F" fill="#93278F"><path d="m310.774 316.614-.002.117c0 1.558.767 2.82 1.714 2.82s1.714-1.262 1.714-2.82c0-.039 0-.078-.002-.117-1.263-.309-2.64-.204-3.424 0h0z" stroke-linejoin="round" stroke-linecap="round" stroke-width=".244" opacity=".75" transform="matrix(1.199 0 0 1.25912 -72.99 -108.626)"/><path d="m310.762 316.63-.002.117c0 1.558.767 2.82 1.714 2.82.946 0 1.714-1.262 1.714-2.82l-.002-.117c-.956.298-1.976.491-3.424 0z" stroke-width=".03" transform="matrix(1.199 0 0 1.25912 -72.99 -108.626)"/></g><path d="M299.551 282.534c-.774 0-1.29.594-1.29 1.627 0 1.032.49 1.626 1.29 1.626s1.291-.62 1.291-1.626c0-1.007-.516-1.627-1.29-1.627m3.252.103-3.227 5.19h.542l3.228-5.19h-.543m-3.279.259c.336 0 .543.413.543 1.265 0 .852-.181 1.29-.543 1.29-.361 0-.516-.438-.516-1.29 0-.852.18-1.265.516-1.265m3.847 1.781c-.774 0-1.29.594-1.29 1.627 0 1.032.516 1.626 1.29 1.626.8 0 1.291-.594 1.291-1.626 0-1.007-.516-1.627-1.29-1.627m-.026.336c.335 0 .542.439.542 1.29 0 .853-.18 1.266-.542 1.266-.362 0-.543-.44-.543-1.265s.207-1.291.543-1.291" fill="#93278F"/></svg>