<svg xmlns="http://www.w3.org/2000/svg" width="580" height="580" xml:space="preserve"><path fill="#0092DA" d="m288.452 303.437.374 3.065c.045.334.246.529.603.585a.755.755 0 0 0 .644-.208.694.694 0 0 0 .226-.628l-.44-3.483c-.044-.256-.2-.412-.348-.619l-1.143-1.593 1.105-1.925.552.703a.4.4 0 0 0 .202.15l1.241.604a.418.418 0 0 0 .148.031.522.522 0 0 0 .403-.182.62.62 0 0 0 .168-.42c0-.279-.135-.463-.403-.551l-.955-.537-1.372-1.656c-.19-.223-.457-.363-.804-.419-.602-.09-1.054.122-1.355.636l-1.522 2.627a1.077 1.077 0 0 0-.133.62l.05 3.329-1.155 2.477a1.115 1.115 0 0 0-.083.251.71.71 0 0 0 .133.561.756.756 0 0 0 .502.293c.356.056.608-.067.752-.368l1.273-2.711a.785.785 0 0 0 .067-.318l-.018-2.059 1.288 1.745zm.885-7.233c.301 0 .563-.108.787-.326.224-.218.334-.482.334-.796 0-.301-.11-.562-.334-.786a1.074 1.074 0 0 0-.787-.334c-.312 0-.577.11-.795.334a1.093 1.093 0 0 0-.326.786c0 .312.109.578.326.796.218.218.482.326.795.326zm-3.915 3.064 1.673-2.878c.111-.19.073-.334-.117-.435l-.536-.32c-.189-.109-.334-.071-.435.119l-1.674 2.877c-.111.189-.072.336.118.436l.536.318c.188.111.334.072.435-.117z"/><path fill="none" stroke="#7398CF" stroke-width=".463" stroke-linecap="round" d="M291.557 300.004v6.493"/><g fill="#0092DA" stroke="#0092DA" stroke-linecap="round" stroke-linejoin="round"><path stroke-width=".826" d="m279.062 293.27 9.238-4.928 9.239 4.928-.62.629-3.089-1.245-5.534-.665-5.547.655-3.072 1.242-.615-.616z"/><path stroke-width=".906" d="M294.365 293.246h1.152v11.092h-1.152zM280.974 293.246h1.152v11.092h-1.152z"/></g></svg>