<svg xmlns="http://www.w3.org/2000/svg" width="580" height="580" xml:space="preserve"><path fill="#754C24" d="M290.517 269.937a1.213 1.213 0 0 0-.123.004c-.193.015-.433.076-.523.134l-.172.103c-.147.084-.498.467-.655.715-.1.157-.21.338-.247.405-.009.015-.057.085-.106.155s-.11.165-.135.211a.299.299 0 0 1-.058.085.84.84 0 0 0-.104.15c-.224.358-.498.698-.606.748-.146.067-.396.293-.534.487l-.187.256a4.31 4.31 0 0 0-.374.646l-.101.237a4.55 4.55 0 0 0-.171.468 2.074 2.074 0 0 1-.033.122c-.016.05-.039.131-.052.18a21.895 21.895 0 0 0-.138.543 3.49 3.49 0 0 0-.067.325.28.28 0 0 1-.017.066 6.357 6.357 0 0 0-.086.608c.002.017.001.034-.003.039a.799.799 0 0 0-.018.135l-.016.188a6.406 6.406 0 0 0-.011.159l-.012.166a3.397 3.397 0 0 0-.014.236 3.638 3.638 0 0 0-.022.453l.004.13c.006.301.041.67.099 1.051.034.228.055.429.055.538-.001.091-.001.091-.043.078a.861.861 0 0 1-.12-.055.944.944 0 0 0-.145-.061.35.35 0 0 1-.078-.029 1.228 1.228 0 0 0-.183-.039 1.425 1.425 0 0 1-.21-.048 1.66 1.66 0 0 0-.399-.092c-.238-.017-.481.071-.568.205a.792.792 0 0 0-.111.45c.017.194.123.594.169.637a1.758 1.758 0 0 0 .202.358c.032.048.064.103.072.122.014.035.164.239.396.536l.152.198c.012.017.168.164.385.365a12.2 12.2 0 0 1 1.788.032c2.034.203 2.984.271 4.883 0 .409-.059.858-.113 1.322-.162.201-.064.352-.119.475-.174a5.073 5.073 0 0 0 1.067-.58c.052-.041.112-.084.135-.096.108-.058.256-.193.505-.464.271-.294.277-.303.437-.592.11-.201.492-.598.713-.739.029-.02.094-.065.144-.104.151-.118.239-.182.292-.213.027-.017.068-.046.092-.066.022-.021.079-.065.124-.098.403-.298.692-.567.827-.773.079-.123.133-.284.169-.509.027-.172.026-.194-.017-.421-.06-.312-.176-.632-.286-.786a1.658 1.658 0 0 0-.529-.503c-.107-.071-.352-.183-.399-.184a.077.077 0 0 1-.045-.014 1.566 1.566 0 0 0-.24-.044 2.795 2.795 0 0 1-.234-.039c-.024-.021.264-.284.343-.312.039-.015.09.009.202.095.079.061.135.075.208.052.026-.009.186-.049.354-.09.447-.108.47-.115.476-.137.008-.03-.021-.07-.201-.285a19.016 19.016 0 0 1-.192-.23c-.098-.12-.364-.382-.928-.911a233.279 233.279 0 0 0-2.757-2.538 17.3 17.3 0 0 1-.372-.324c-.513-.456-1.13-.965-1.278-1.052-.071-.042-.079-.033-.103.115a2.263 2.263 0 0 1-.063.256 3.23 3.23 0 0 0-.126.447c-.006.064.056.182.145.275a.33.33 0 0 1 .073.1c.005.048-.068.17-.188.314-.119.144-.119.144-.127.082a6.273 6.273 0 0 0-.105-.53 2.04 2.04 0 0 0-.391-.582 2.442 2.442 0 0 0-.642-.448c-.12-.052-.294-.105-.304-.094-.005.004-.02 0-.034-.008a1.182 1.182 0 0 0-.305-.034zm.168.515a.783.783 0 0 1 .371.081c.106.056.125.07.264.205.144.14.15.148.21.266.111.222.158.399.155.6-.003.146-.044.407-.068.435a.078.078 0 0 0-.021.048c-.007.061-.098.208-.188.308-.107.117-.11.118-.328.138-.428.037-.604.024-1.092-.081l-.211-.045a22.208 22.208 0 0 1-.172-.04 2.83 2.83 0 0 0-.216-.041.858.858 0 0 1-.129-.028c-.048-.02-.06-.031-.062-.062a.675.675 0 0 1 .091-.239c.034-.054.107-.184.163-.29.016-.032.062-.107.101-.169.039-.062.097-.16.131-.217.229-.394.546-.722.798-.829a.496.496 0 0 1 .203-.04zm6.428 6.038c.251.006.488.075.648.207.142.116.251.284.275.424a1.27 1.27 0 0 1-.073.559c-.048.119-.057.13-.256.347-.162.175-.229.238-.309.29-.057.036-.14.093-.186.125a8.462 8.462 0 0 1-.197.131c-.062.04-.157.1-.209.136-.136.091-.314.183-.379.192-.069.01-.075.005-.082-.085a7.863 7.863 0 0 0-.165-.676 5.386 5.386 0 0 1-.131-.644c-.039-.37.091-.701.326-.832a1.48 1.48 0 0 1 .738-.174z"/><path fill="none" stroke="#754C24" stroke-width="1.25" stroke-linecap="square" stroke-linejoin="bevel" d="M283.889 284.058c.808-.126 2.272-.297 3.644-.159 2.034.203 2.984.271 4.883 0 1.677-.24 3.99-.426 5.395-.327"/></svg>