<svg xmlns="http://www.w3.org/2000/svg" width="580" height="580" xml:space="preserve"><path fill="#999" d="M284.477 295.254v2.645h2.13c.169-.614.278-1.521.286-1.571l6.621-.042.312 1.613h2.101v-2.645h-11.45z"/><path fill="none" stroke="#FFF" stroke-width=".578" stroke-linejoin="round" d="M286.893 296.556c-.046.269-2.526 10.878-2.526 10.878l11.68-.1-2.531-10.822-6.623.044z"/><path fill="#E6E6E6" stroke="#4D4D4D" stroke-width=".578" stroke-linecap="round" stroke-linejoin="round" d="M286.893 296.556c-.046.269-2.526 10.878-2.526 10.878l11.68-.1-2.531-10.822-6.623.044z"/><path fill="#333" d="M292.814 305.688c-.354.239-.956.466-1.697.466-.922 0-1.752-.352-2.311-1.012-.432-.478-.717-1.139-.82-1.959h-.706v-.568h.648v-.171c0-.171.012-.341.023-.501h-.672v-.57h.751c.137-.797.467-1.457.934-1.924.568-.604 1.32-.944 2.244-.944.682 0 1.206.193 1.523.363l-.227.751a2.67 2.67 0 0 0-1.273-.318c-.617 0-1.129.217-1.516.615-.331.342-.558.854-.672 1.457h3.177v.569h-3.279c-.022.147-.022.309-.022.478v.193h3.302v.57H289c.09.66.307 1.149.626 1.491.421.456.992.659 1.607.659.603 0 1.126-.215 1.389-.376l.192.731z"/></svg>