<svg xmlns="http://www.w3.org/2000/svg" width="580" height="580" xml:space="preserve"><path opacity=".351" fill="#29ABE2" stroke="#FFF" stroke-width=".043" d="m290.837 270.502-7.481 7.679h1.496V289.7h4.489v-5.854h3.097v5.854h4.386v-11.519h1.497l-7.484-7.679z"/><path fill="#FFF" stroke="#29ABE2" stroke-width="1.345" d="m281.544 280.066-.12 9.366"/><path fill="#29ABE2" stroke="#29ABE2" stroke-width="1.345" d="m281.664 285.95 18.012.12M299.796 289.072l.12-6.124"/><path fill="#29ABE2" stroke="#29ABE2" stroke-width="1.547" d="M289.349 282.528h7.805a.84.84 0 1 1 0 1.681h-7.805a.84.84 0 0 1 0-1.681z"/><path fill="#29ABE2" stroke="#29ABE2" stroke-width=".092" d="M287.146 280.847c0 .641-.586 1.16-1.309 1.161-.724 0-1.311-.519-1.311-1.16v-.001c0-.641.586-1.16 1.31-1.16s1.31.519 1.31 1.16z"/><path fill="#29ABE2" stroke="#29ABE2" stroke-width="1.345" d="M283.315 283.849h3.362a.15.15 0 1 1 0 .3h-3.362a.15.15 0 1 1 0-.3z"/><path fill="#29ABE2" d="M283.967 273.349h2.385c.397 0 .702.099.915.295s.319.44.319.731a.92.92 0 0 1-.228.627 1.03 1.03 0 0 1-.444.276c.296.071.514.193.653.367.14.174.21.392.21.654 0 .214-.05.405-.149.576a1.091 1.091 0 0 1-.407.405c-.107.062-.269.106-.484.135a5.496 5.496 0 0 1-.57.057h-2.199v-4.123zm1.285 1.617h.554c.199 0 .337-.034.415-.103s.116-.167.116-.296a.35.35 0 0 0-.116-.281c-.078-.068-.214-.102-.406-.102h-.562v.782zm0 1.621h.649c.22 0 .374-.039.464-.117s.135-.183.135-.313a.363.363 0 0 0-.133-.294c-.09-.074-.245-.111-.469-.111h-.646v.835zm6.443-1.12.895.2a3.105 3.105 0 0 1-.136.396 3.5 3.5 0 0 1-.183.352l.431.295c.053.034.12.074.202.121l-.616.709a5.513 5.513 0 0 1-.35-.208 9.002 9.002 0 0 0-.325-.203 2.213 2.213 0 0 1-.596.287 3.26 3.26 0 0 1-.939.124c-.55 0-.958-.114-1.227-.344-.268-.229-.402-.506-.402-.832 0-.234.079-.456.236-.665s.415-.386.773-.53a2.088 2.088 0 0 1-.31-.474 1.054 1.054 0 0 1-.084-.409c0-.293.111-.534.335-.723.223-.189.562-.284 1.015-.284.464 0 .804.09 1.021.27.218.18.326.396.326.647a.867.867 0 0 1-.1.405c-.067.13-.147.234-.241.315-.094.081-.261.2-.503.36.2.201.409.387.627.56.06-.117.11-.239.151-.369zm-1.316-.723c.148-.081.263-.168.343-.263.081-.095.121-.185.121-.269a.287.287 0 0 0-.102-.224.398.398 0 0 0-.278-.092.4.4 0 0 0-.284.102.317.317 0 0 0-.109.239c-.001.117.103.286.309.507zm-.408 1.002c-.157.11-.262.205-.313.284a.448.448 0 0 0-.077.25c0 .137.059.259.177.366s.272.16.462.16c.204 0 .434-.079.688-.239a13.277 13.277 0 0 1-.937-.821zm3.591-2.397h2.385c.397 0 .703.099.916.295s.319.44.319.731a.917.917 0 0 1-.229.627 1.019 1.019 0 0 1-.444.276c.297.071.515.193.654.367.14.174.209.392.209.654 0 .214-.049.405-.148.576s-.235.306-.408.405c-.106.062-.268.106-.483.135a5.532 5.532 0 0 1-.571.057h-2.199v-4.123zm1.286 1.617h.555c.198 0 .337-.034.414-.103.078-.068.117-.167.117-.296a.351.351 0 0 0-.117-.281c-.077-.068-.213-.102-.406-.102h-.562v.782zm0 1.621h.65c.219 0 .374-.039.464-.117s.135-.183.135-.313c0-.122-.045-.22-.134-.294s-.245-.111-.468-.111h-.647v.835z"/></svg>