<svg xmlns="http://www.w3.org/2000/svg" width="580" height="580" xml:space="preserve"><path opacity=".2" fill="#CCC" stroke="#666" stroke-width=".031" d="m289.463 282.688-6.38 4.857h1.276v7.793h10.209v-7.793h1.275l-6.38-4.857z"/><path fill="none" stroke="#666" stroke-width=".9" stroke-linejoin="round" d="m289.463 282.435-6.38 4.857h1.276v8.046h10.209v-8.046h1.275l-6.38-4.857z"/><path fill="#333" d="M291.875 293.419c-.361.245-.982.479-1.743.479-.948 0-1.802-.363-2.375-1.041-.444-.492-.737-1.171-.843-2.013h-.725v-.584h.667v-.174c0-.176.012-.352.023-.515h-.69v-.585h.772c.14-.819.479-1.498.959-1.978.585-.619 1.357-.971 2.305-.971.702 0 1.239.199 1.567.375l-.234.772a2.728 2.728 0 0 0-1.311-.328c-.632 0-1.159.223-1.556.632-.339.352-.573.878-.69 1.498h3.264v.585h-3.369c-.023.152-.023.316-.023.491v.199h3.394v.584h-3.311c.094.68.316 1.182.644 1.533.433.468 1.018.679 1.65.679.62 0 1.159-.224 1.427-.387l.198.749z"/></svg>