<svg xmlns="http://www.w3.org/2000/svg" width="580" height="580" xml:space="preserve"><path fill="#754C24" d="M293.324 285.37h-.008c.01-.008.015-.017.015-.025 0-.196-2.675-.355-5.975-.355s-5.976.159-5.976.355c0 .008.005.017.015.025h-.015l5.296 4.901v5.547l-3.431 2.452h.009c-.017.009-.025.018-.025.027 0 .135 1.848.245 4.127.245s4.127-.11 4.127-.245c0-.01-.009-.019-.025-.027h.002l-3.431-2.452v-5.547l5.295-4.901zm-5.798 3.948a.262.262 0 0 1-.348 0l-2.559-2.368c-.095-.088-.067-.161.063-.161h5.339c.13 0 .159.072.063.161l-2.558 2.368z"/></svg>