<svg xmlns="http://www.w3.org/2000/svg" width="580" height="580" xml:space="preserve"><path fill="#0071BC" d="m290.425 283.704.047.001.048-.001h-.095zm.048.001c-1.102.009-2.594.319-3.217.579-.632.263-1.053.526-1.185 1.185l-.474 3.649v5.028h.816v.788c0 .962 1.406.962 1.406 0v-.788h5.306v.788c0 .962 1.406.962 1.406 0v-.788h.816v-5.028l-.474-3.649c-.131-.658-.554-.921-1.186-1.185-.62-.26-2.113-.57-3.214-.579zm-2.006.921h4.011c.396 0 .396.592 0 .592h-4.012c-.394 0-.394-.592.001-.592zm-1.065 1.19h6.141c.417 0 .526.212.577.534l.369 2.646c.034.254-.039.505-.39.505h-7.254c-.351 0-.423-.251-.389-.505l.37-2.646c.05-.321.159-.534.576-.534zm-.284 5.403a.675.675 0 1 1-.003 1.35.675.675 0 0 1 .003-1.35zm6.711 0a.676.676 0 1 1-.004 1.352.676.676 0 0 1 .004-1.352z"/><path opacity=".1" fill="#0071BC" stroke="#FFF" stroke-width=".736" d="M298.466 290a8 8 0 1 1-16 0 8 8 0 0 1 16 0z"/><path fill="none" stroke="#0071BC" stroke-width=".736" d="M298.466 290a8 8 0 1 1-16 0 8 8 0 0 1 16 0z"/></svg>