<svg xmlns="http://www.w3.org/2000/svg" width="580" height="580" xml:space="preserve"><path fill="#0071BC" d="M292.659 289.437h.088-.088zm.043 0c-1.016.008-2.394.3-2.968.544-.583.249-.972.496-1.093 1.115l-.438 3.436v4.733h.753v.743c0 .904 1.297.904 1.297 0v-.743h4.897v.743c0 .904 1.299.904 1.299 0v-.743h.753v-4.733l-.437-3.436c-.122-.619-.512-.867-1.094-1.115-.573-.245-1.951-.537-2.969-.544zm-1.85.866H294.555c.365 0 .365.557 0 .557h-3.702c-.366 0-.366-.557-.001-.557zm-.983 1.122h5.668c.386 0 .485.199.533.502l.34 2.491c.032.238-.036.477-.358.477h-6.695c-.324 0-.391-.238-.36-.477l.342-2.491c.044-.303.145-.502.53-.502zm-.263 5.086c.344 0 .622.284.622.635a.628.628 0 0 1-.622.636.63.63 0 0 1-.623-.636c0-.351.279-.635.623-.635zm6.194 0c.345 0 .623.284.623.635a.629.629 0 0 1-.623.636.628.628 0 0 1-.622-.636c0-.351.278-.635.622-.635z"/></svg>