<svg xmlns="http://www.w3.org/2000/svg" width="580" height="580" xml:space="preserve"><g fill="#FFF"><path d="M297.792 294.541s-1.06-1.252-2.183-3.083c-.9-1.445-1.702-3.372-1.766-3.564.61-.45 3.693-1.83 4.303-1.96.192.707.481 2.088 1.06 3.405.61 1.38 1.38 2.44 1.637 2.826-.674.642-3.05 2.376-3.05 2.376zm2.088-.77c.064.642 2.248 3.628 2.986 4.174.29.225.482.032.964-.289.481-.321.674-.642.481-1.028-.353-.834-1.926-3.853-2.665-4.335-.707-1.027-1.317-1.83-1.895-3.243-.61-1.477-.995-2.987-1.22-3.886-.835.225-2.184.835-3.019 1.22-.93.418-1.605.835-2.344 1.253.225.674.803 2.376 1.959 4.175.931 1.445 1.702 2.569 2.601 3.468l2.152-1.51zm-3.244-5.974c0-.32.29-.61.643-.61.353 0 .642.257.642.61s-.29.61-.642.61c-.386 0-.643-.288-.643-.61z"/><path d="M297.792 294.541s-1.06-1.252-2.183-3.083c-.9-1.445-1.702-3.372-1.766-3.564.61-.45 3.693-1.83 4.303-1.96.192.707.481 2.088 1.06 3.405.61 1.38 1.38 2.44 1.637 2.826-.674.642-3.05 2.376-3.05 2.376zm2.088-.77c.064.642 2.248 3.628 2.986 4.174.29.225.482.032.964-.289.481-.321.674-.642.481-1.028-.353-.834-1.926-3.853-2.665-4.335-.707-1.027-1.317-1.83-1.895-3.243-.61-1.477-.995-2.987-1.22-3.886-.835.225-2.184.835-3.019 1.22-.93.418-1.605.835-2.344 1.253.225.674.803 2.376 1.959 4.175.931 1.445 1.702 2.569 2.601 3.468l2.152-1.51zm-3.244-5.974c0-.32.29-.61.643-.61.353 0 .642.257.642.61s-.29.61-.642.61c-.386 0-.643-.288-.643-.61z"/></g><g fill="#93278F"><path d="M297.792 294.541s-1.06-1.252-2.183-3.083c-.9-1.445-1.702-3.372-1.766-3.564.61-.45 3.693-1.83 4.303-1.96.192.707.481 2.088 1.06 3.405.61 1.38 1.38 2.44 1.637 2.826-.674.642-3.05 2.376-3.05 2.376zm2.088-.77c.064.642 2.248 3.628 2.986 4.174.29.225.482.032.964-.289.481-.321.674-.642.481-1.028-.353-.834-1.926-3.853-2.665-4.335-.707-1.027-1.317-1.83-1.895-3.243-.61-1.477-.995-2.987-1.22-3.886-.835.225-2.184.835-3.019 1.22-.93.418-1.605.835-2.344 1.253.225.674.803 2.376 1.959 4.175.931 1.445 1.702 2.569 2.601 3.468l2.152-1.51zm-3.244-5.974c0-.32.29-.61.643-.61.353 0 .642.257.642.61s-.29.61-.642.61c-.386 0-.643-.288-.643-.61z"/><path opacity=".1" d="M299.88 293.77c.064.643 2.248 3.63 2.986 4.175.29.225.482.032.964-.289.481-.321.674-.642.481-1.028-.353-.834-1.926-3.853-2.665-4.335-.707-1.027-1.317-1.83-1.895-3.243-.61-1.477-.995-2.987-1.22-3.886-.835.225-2.184.835-3.019 1.22-.93.418-1.605.835-2.344 1.253.225.674.803 2.376 1.959 4.175.931 1.445 1.702 2.569 2.601 3.468l2.152-1.51z"/></g></svg>