<svg xmlns="http://www.w3.org/2000/svg" width="580" height="580" xml:space="preserve"><path fill="none" stroke="#0092DA" stroke-width=".946" d="M288.009 280.171c-.055.3-7.036 13.274-7.036 13.274l14.053-.023-7.017-13.251z"/><path fill="#0092DA" stroke="#0092DA" stroke-width=".946" d="M288.009 281.038c-.026.146-.459.889.463 4.124.96 3.371 3.538 8.282 3.538 8.282l3.018-.023-7.019-12.383z"/><path fill="#0092DA" stroke="#0092DA" stroke-width=".946" d="M288.131 281.038c.026.146.46.889-.462 4.124-.96 3.371-3.539 8.282-3.539 8.282l-3.017-.023 7.018-12.383z"/><path fill="none" stroke="#0092DA" stroke-width=".946" d="m286.62 277.479 8.405 15.94-8.405-15.94zM289.458 277.566l-8.393 15.854 8.393-15.854z"/></svg>