<svg xmlns="http://www.w3.org/2000/svg" xmlns:xlink="http://www.w3.org/1999/xlink" width="580" height="580" xml:space="preserve"><path fill="#93278F" d="M284.313 283.58c-.64 0-.98.35-1.137.759l-.833 2.15c-.33.042-.915.43-.915 1.164v2.734h.81v.875c0 1.075 1.522 1.062 1.522 0v-.875h5.476v.875c0 1.062 1.522 1.075 1.522 0v-.875h.811v-2.734c0-.734-.585-1.122-.915-1.164l-.833-2.15c-.157-.409-.497-.759-1.137-.759h-4.371zm-.009.783h4.391c.274.002.392.174.47.412l.627 1.691H283.206l.627-1.691c.079-.238.196-.41.471-.412zm-1.279 2.926c.388 0 .703.324.703.725 0 .4-.315.725-.703.725s-.703-.325-.703-.725c0-.401.315-.725.703-.725zm6.951 0c.388 0 .703.324.703.725 0 .4-.315.725-.703.725s-.704-.325-.704-.725a.714.714 0 0 1 .704-.725zM293.622 293.039l.027-1.52.667-.355.654.38-.028 1.519.688.012.423-2.124-1.21-.856.37-7.452c.023-1.11-1.558-1.05-1.535-.055l.073 7.509-1.29.783.423 2.141.738.018zm.822-10.127a.355.355 0 0 1-.351-.364.36.36 0 0 1 .364-.35.357.357 0 0 1 .349.361.353.353 0 0 1-.362.353z"/><path fill="#93278F" d="m293.622 293.039.027-1.52.667-.355.654.38-.028 1.519.688.012.423-2.124-1.21-.856.37-7.452c.023-1.11-1.558-1.05-1.535-.055l.073 7.509-1.29.783.423 2.141.738.018zm.822-10.127a.355.355 0 0 1-.351-.364.36.36 0 0 1 .364-.35.357.357 0 0 1 .349.361.353.353 0 0 1-.362.353z"/><path fill="#93278F" d="m293.622 293.039.027-1.52.667-.355.654.38-.028 1.519.688.012.423-2.124-1.21-.856.37-7.452c.023-1.11-1.558-1.05-1.535-.055l.073 7.509-1.29.783.423 2.141.738.018zm.822-10.127a.355.355 0 0 1-.351-.364.36.36 0 0 1 .364-.35.357.357 0 0 1 .349.361.353.353 0 0 1-.362.353z"/><g transform="rotate(-133.966 347.21 177.847) scale(2.76239)"><defs><path id="a" d="m109.145 21.47.389.389-.075.263-.263.075-.389-.389-.176.176.447.644.527-.1 1.849 1.969c.283.285.665-.142.4-.386l-1.975-1.868.12-.533-.664-.428-.19.188zm2.432 2.759a.129.129 0 0 1 .183 0 .13.13 0 0 1 0 .183.13.13 0 0 1-.182 0 .128.128 0 0 1-.001-.183z"/></defs><use xlink:href="#a"  fill="#93278F"/><clipPath id="b"><use xlink:href="#a" /></clipPath><g clip-path="url(#b)"><path fill="#93278F" d="m109.145 21.47.389.389-.075.263-.263.075-.389-.389-.176.176.447.644.527-.1 1.849 1.969c.283.285.665-.142.4-.386l-1.975-1.868.12-.533-.664-.428-.19.188zm2.432 2.759a.129.129 0 0 1 .183 0 .13.13 0 0 1 0 .183.13.13 0 0 1-.182 0 .128.128 0 0 1-.001-.183z"/></g></g><path fill="#93278F" d="m293.405 293.029.025-1.57.89-.475.825.467-.038 1.599.542.021.372-1.993-1.334-.89.363-7.546c.064-.925-1.32-1.052-1.332.003l.085 7.62-1.246.758.311 1.998.537.008zm.965-10.138c-.195-.003-.386-.16-.38-.358.001-.197.1-.45.43-.489.235.005.413.201.4.443-.003.196-.251.408-.45.404z"/><path fill="#93278F" d="m293.415 293.035.062-2.761-1.012.607.413 2.146.537.008z"/></svg>