<svg xmlns="http://www.w3.org/2000/svg" width="580" height="580" xml:space="preserve"><path fill="#0092DA" d="M303.163 300.797c0 .408-.198.613-.592.613h-2.093c-.396 0-.592-.205-.592-.613v-.993c0-.396.196-.593.592-.593h2.093c.395 0 .592.197.592.593v.993zm-5.964.021c0 .395-.203.592-.613.592h-4.525c-.395 0-.594-.197-.594-.592v-1.015c0-.396.199-.593.594-.593h4.525c.41 0 .613.197.613.593v1.015zm9.284 4.758h-1.522v-5.287c0-.816-.286-1.508-.857-2.072a2.832 2.832 0 0 0-2.061-.846h-9.896c-.818 0-1.51.283-2.074.846-.563.564-.845 1.255-.845 2.072v3.744c0 .592.212 1.099.634 1.521.423.422.931.635 1.522.635h3.405c.043-.607.281-1.121.719-1.545s.966-.633 1.586-.633c.607 0 1.133.209 1.575.633.444.423.681.93.71 1.522h7.697c-.002-.393-.198-.59-.593-.59zm-9.389 1.481a.69.69 0 0 1-.507-.211.692.692 0 0 1-.21-.508c0-.211.069-.384.21-.518.14-.133.31-.201.507-.201s.365.066.508.201a.683.683 0 0 1 .211.518c0 .197-.07.367-.211.508a.7.7 0 0 1-.508.211zm0-2.389c-.465 0-.861.161-1.184.486a1.612 1.612 0 0 0-.486 1.184c0 .451.162.84.486 1.163.322.325.719.486 1.184.486.45 0 .84-.163 1.163-.486.324-.324.485-.712.485-1.163a1.61 1.61 0 0 0-.485-1.184 1.584 1.584 0 0 0-1.163-.486z"/></svg>