<svg xmlns="http://www.w3.org/2000/svg" width="580" height="580" xml:space="preserve"><path fill="#754C24" stroke="#754C24" stroke-width=".188" stroke-linecap="round" stroke-linejoin="round" d="m283.229 294.816.011-3.021h1.005v1.006h1.005v-1.006h1.005v1.006h1.005v-1.006h1.005v3.016h-1.005v2.01h1.005v-1.005h1.005v1.005h1.005v-1.005h1.005V298.831h.12v.381h-2.13v2.635h-5.025v-7.035l-1.016.009v-.005h0z"/><path fill="#754C24" stroke="#754C24" stroke-width=".188" stroke-linecap="round" stroke-linejoin="round" d="m298.32 294.816-.011-3.021h-1.003v1.006h-1.004v-1.006h-1.004v1.006h-1.004v-1.006h-1.003v3.016h1.003v2.01h-1.003v-1.005h-1.004v1.005h-1.004v-1.005h-1.003V298.831h.503v.381h1.504v2.635h5.019v-7.035l1.015.009-.001-.005h0z"/></svg>