<svg xmlns="http://www.w3.org/2000/svg" width="580" height="580" xml:space="preserve"><g opacity=".5"><path fill="none" stroke="#FFF" stroke-width=".41028125" d="M289.75 283.13c-.565 1.198-1.132 2.396-1.7 3.59-.315-.436-.634-.87-.952-1.3-.978 1.566-1.946 3.138-2.931 4.697 3.072.027 6.144.05 9.216.076-1.158-2.462-2.32-4.923-3.485-7.382l-.148.319z"/><path fill="#FFF" d="m289.898 282.335-.184.394-.148.315a599.353 599.353 0 0 1-1.556 3.282c-.25-.34-.499-.682-.748-1.024l-.18-.242-.158.256c-.978 1.565-1.946 3.137-2.931 4.696l-.194.309.368.003c3.072.027 6.144.05 9.216.079l.329.003-.142-.295c-1.158-2.465-2.32-4.923-3.485-7.382l-.187-.394zm0 3.473c.062 0 .124.03.16.079.184.23.362.42.434.45.036.012.026.016.062-.007.036-.023.112-.102.197-.263a.206.206 0 0 1 .184-.108c.075 0 .15.046.184.115l1.67 3.538c.06.125-.049.295-.187.295l-7.556-.062a.21.21 0 0 1-.177-.105.203.203 0 0 1 .007-.207l1.487-2.386a.215.215 0 0 1 .318-.04c.131.132.246.2.384.21.138.01.328-.042.614-.252a.211.211 0 0 1 .289.043l.131.18.538-1.139a.216.216 0 0 1 .18-.121.211.211 0 0 1 .188.108.46.46 0 0 0 .144.174c.04.023.066.026.112.02.095-.02.279-.151.466-.427a.224.224 0 0 1 .17-.095z"/></g><path fill="#29ABE2" stroke="#FFF" stroke-width=".021" d="m284.522 279.466-4.061 3.509h.812v5.264h2.437v-2.675h1.68v2.675h2.381v-5.264h.812l-4.061-3.509z"/><g opacity=".25"><path fill="none" stroke="#FFF" stroke-width=".41028125" d="M289.75 283.13c-.565 1.198-1.132 2.396-1.7 3.59-.315-.436-.634-.87-.952-1.3-.978 1.566-1.946 3.138-2.931 4.697 3.072.027 6.144.05 9.216.076-1.158-2.462-2.32-4.923-3.485-7.382l-.148.319z"/><path fill="#29ABE2" d="m289.898 282.335-.184.394-.148.315a599.353 599.353 0 0 1-1.556 3.282c-.25-.34-.499-.682-.748-1.024l-.18-.242-.158.256c-.978 1.565-1.946 3.137-2.931 4.696l-.194.309.368.003c3.072.027 6.144.05 9.216.079l.329.003-.142-.295c-1.158-2.465-2.32-4.923-3.485-7.382l-.187-.394z"/></g></svg>