<svg xmlns="http://www.w3.org/2000/svg" style="fill:#000" width="18" height="18"><path style="fill-rule:evenodd;stroke-width:.2" d="M14.674 1c-1.837 0-3.326 1.479-3.326 3.303 0 1.824 1.489 3.303 3.326 3.303S18 6.127 18 4.303C18 2.48 16.51 1 14.674 1Zm-.16 9.499c-1.32-2.788-3.42-3.374-4.953-3.374H6.83l3 6.244h2.482l1.416 2.745a1.64 1.64 0 0 0 2.205.707 1.622 1.622 0 0 0 .712-2.19zm-6.25 2.87c-.367-.68-1.924-3.306-5.179-3.46a2.687 2.687 0 0 0 .287 1.126l1.401 2.71H1.64c-.905 0-1.639.728-1.639 1.627C0 16.272.734 17 1.639 17h5.818c.572 0 1.102-.296 1.4-.78.297-.484.32-1.087.058-1.591z"/></svg>