<svg xmlns="http://www.w3.org/2000/svg" width="580" height="580" xml:space="preserve"><path fill="#603813" d="m284.507 283.122 7.497 15.583 7.035-3.385-7.497-15.583-7.035 3.385zm1.227-.219 4.812-2.312 2.219 4.61-4.812 2.314-2.219-4.612zm-.746.596.519-.249.402.834-.519.25-.402-.835zm5.956-2.867.52-.247.398.832-.514.25-.404-.835zm-5.039 4.765.516-.25.402.834-.519.25-.399-.834zm5.954-2.865.519-.249.399.836-.517.249-.401-.836zm-5.038 4.765.515-.249.402.834-.517.249-.4-.834zm5.954-2.864.516-.248.401.833-.517.25-.4-.835zm-4.601 3.541 4.812-2.315 2.219 4.612-4.812 2.314-2.219-4.611zm-.441 1.224.519-.249.4.833-.518.249-.401-.833zm5.953-2.867.519-.248.399.835-.516.249-.402-.836zm-5.038 4.77.515-.251.401.831-.516.251-.4-.831zm5.954-2.868.518-.25.398.834-.518.25-.398-.834zm-5.04 4.765.517-.253.403.835-.518.252-.402-.834zm5.954-2.864.517-.249.401.833-.517.252-.401-.836zm-4.905 2.904 4.811-2.314 2.22 4.609-4.811 2.319-2.22-4.614zm-.132 1.858.516-.249.399.834-.514.251-.401-.836zm5.949-2.861.52-.251.4.831-.518.253-.402-.833zm-5.038 4.761.52-.248.398.835-.516.25-.402-.837zm5.954-2.864.519-.249.402.834-.52.251-.401-.836z"/><path opacity=".332" fill="#FFF" d="m292.794 285.19-4.813 2.314-2.218-4.613 4.812-2.314zM295.194 290.3l-4.812 2.316-2.22-4.614 4.812-2.316zM297.67 295.327l-4.81 2.316-2.22-4.61 4.81-2.316z"/></svg>