<svg xmlns="http://www.w3.org/2000/svg" width="580" height="580" xml:space="preserve"><g fill="#93278F"><path d="M290.775 286.663c2.118-1.134 3.928-1.019 5.72-1.997.96.21 1.677.127 2.338-.023 2.028.932 3.812 1.082 5.717 2.043-.159 1.001-.508 1.864-1.088 2.563a4.44 4.44 0 0 0-2.02-.546l-.047 6.808c-2.782.517-5.137.295-7.443-.023l-.023-6.762c-.81-.023-1.428.277-2.063.546-.615-.834-.9-1.717-1.091-2.61z"/><path d="M291.092 286.547c.19.93.525 1.801 1.18 2.543M294.042 295.125c2.436.398 4.871.485 7.307-.023M296.469 284.689c-.02.202.147 1.102 1.203 1.157 1.034.052 1.236-.998 1.204-1.134"/><path d="M296.022 284.928c-.02.202.395 1.308 1.587 1.34 1.215.031 1.714-1.27 1.68-1.406"/><path d="M296.567 285.096c.739.193 1.391.153 2.19-.018M293.938 285.61c.222.857.591 1.861-.023 3.062M301.401 285.627c-.222.857-.592 1.861.023 3.065M304.252 286.524c-.19.93-.525 1.801-1.18 2.54"/></g></svg>