<svg xmlns="http://www.w3.org/2000/svg" width="580" height="580" xml:space="preserve"><path fill="#FFF" stroke="#93278F" stroke-width=".889" d="M287.376 282.443h8.967a.44.44 0 0 1 .44.441v6.383a.44.44 0 0 1-.44.44h-8.967a.44.44 0 0 1-.44-.44v-6.383a.44.44 0 0 1 .44-.441z"/><g fill="#93278F"><path d="M290.029 283.255v4.491l1.627-1.414 1.98-.708-3.607-2.369z"/><path d="m291.747 285.304 1.538 2.665-.949.548-1.538-2.664z"/></g><path fill="#93278F" d="M287.064 290.328h9.56c.25 0 .344.25.47.47l1.284 2.538c.126.22-.22.47-.47.47h-12.129c-.25 0-.595-.25-.47-.47l1.285-2.507c.125-.25.22-.501.47-.501z"/></svg>