<svg xmlns="http://www.w3.org/2000/svg" width="580" height="580" xml:space="preserve"><path fill="#93278F" d="M299.094 285.573s.181 1.062.316 1.289c.135.226.381 1.062.316 1.378-.227 1.107-.362 1.107-1.018 1.898-.249.301-.467.516-.716.591a1.062 1.062 0 0 1-.992-.238c-.562-.526-.529-1.777-.529-1.777s-.497-.158-.565-.384c-.067-.226-.09-.135-.09-.135s-.746 1.604-1.062 1.74c-.316.136-.881.113-.881.113l-7.278-.769s-.339 0-.61-.271c-.271-.271-.293-1.605-.293-1.605l-.701-.429s-.633.542-.972.633c-.339.09-1.808.972-1.808.972s-.498-.475-.475-.949c.023-.475.52-1.717.52-1.717l-.204-.091s.226-.701 1.017-1.243c.791-.542 1.198-.791 1.198-.791s.994 1.062 1.13 1.649c.136.588.113.972.113.972l.452-.452.339-1.175s.181-.542.498-.791.7-.249.7-.249 6.938.292 7.323.475c.475.226.745.678.745.678s.521 1.243.543 2.328c.008.385 3.164-1.695 2.984-1.65z"/></svg>