<svg xmlns="http://www.w3.org/2000/svg" width="580" height="580" xml:space="preserve"><g fill="#93278F"><path d="M283.925 286.402v12.735h8.675v-12.735h-8.675zm4.037 2.558c.635 0 1.177.094 1.625.28.452.188.817.47 1.096.844.173.23.297.511.37.85.073.333.11.835.11 1.507v4.38h-1.268v-1.139c-.27.457-.61.795-1.02 1.015-.408.214-.904.322-1.489.322-.78 0-1.404-.22-1.87-.658-.467-.443-.7-1.035-.7-1.774 0-.854.286-1.504.857-1.946.576-.443 1.418-.665 2.528-.665h1.693v-.199c-.005-.61-.16-1.055-.466-1.329-.306-.278-.795-.418-1.467-.418-.43 0-.863.061-1.3.185a5.733 5.733 0 0 0-1.283.542v-1.26a8.467 8.467 0 0 1 1.336-.398c.43-.094.845-.139 1.248-.139zm.336 4.002c-.736 0-1.292.131-1.666.391-.37.256-.555.64-.555 1.151 0 .462.14.82.418 1.076.278.256.664.384 1.158.384.694 0 1.24-.239 1.638-.719.397-.484.6-1.152.604-2.002v-.28h-1.597z"/><path opacity=".5" d="M283.925 286.402v12.735h8.675v-12.735h-8.675z"/></g><g fill="#93278F"><path opacity=".8" d="M289.639 283.944v4.141l1.453-1.08a8.467 8.467 0 0 1 1.336-.397 5.948 5.948 0 0 1 1.247-.137c.636 0 1.177.094 1.624.281.452.187.818.469 1.097.844.174.228.297.511.37.849.072.333.109.836.109 1.507v4.379h-1.268v-1.139c-.27.457-.609.796-1.021 1.015-.407.215-.902.322-1.487.322-.72 0-1.306-.187-1.758-.559v2.71h6.972v-12.736h-8.674zm0 4.141zm1.667 5.856-.077-.07.077.07zm0-3.726zm0 0 .08-.065c.576-.443 1.419-.665 2.529-.665h1.692v-.199c-.005-.612-.16-1.055-.466-1.329-.307-.279-.795-.418-1.467-.418-.429 0-.863.061-1.302.185a5.65 5.65 0 0 0-1.067.425v2.066zm0 3.726zm2.705-3.468c-.735 0-1.29.129-1.665.39-.37.256-.555.64-.555 1.151 0 .461.139.82.417 1.076s.665.383 1.159.383c.694 0 1.24-.239 1.638-.719.397-.484.598-1.151.603-2.001v-.281h-1.597z"/><path opacity=".502" d="M289.639 283.944v4.141c2 .497 1.585 4.987 1.703 8.595h6.972v-12.736h-8.675zm0 4.141z"/></g></svg>