<svg xmlns="http://www.w3.org/2000/svg" width="580" height="580" xml:space="preserve"><path fill="#754C24" stroke="#754C24" stroke-width=".357" stroke-linecap="round" stroke-linejoin="round" d="m290.902 280.331-.547 14.469h-3.702v.8h4.333l-.084-15.269z"/><path fill="#754C24" stroke="#754C24" stroke-width=".179" stroke-linecap="round" stroke-linejoin="round" d="M283.227 283.015c.473.461 1.653.988 2.355.934.812-.005 1.655-.318 2.523-.883.803-.539 1.749-.793 2.776-.883l-.021.673c-1.096-.121-1.858.51-2.754.841-.656.346-1.27.716-2.523.736-1.299-.138-1.898-.79-2.356-1.418z"/><path fill="none" stroke="#754C24" stroke-width=".357" stroke-linecap="round" stroke-linejoin="round" d="m282.553 291.152 2.776-6.679 2.734 6.679h-5.51z"/><path fill="#754C24" stroke="#754C24" stroke-width=".357" stroke-linecap="round" stroke-linejoin="round" d="M282.468 290.971c.164 1.088 1.373 1.934 2.84 1.934 1.467 0 2.676-.846 2.84-1.934h-5.68zM290.914 280.331l.547 14.469h3.701v.8h-4.332l.084-15.269z"/><path fill="#754C24" stroke="#754C24" stroke-width=".179" stroke-linecap="round" stroke-linejoin="round" d="M298.59 283.015c-.474.461-1.652.988-2.355.934-.812-.005-1.654-.318-2.522-.883-.803-.539-1.748-.793-2.774-.883l.021.673c1.097-.121 1.858.51 2.755.841.656.346 1.27.716 2.523.736 1.294-.138 1.894-.79 2.352-1.418z"/><path fill="none" stroke="#754C24" stroke-width=".357" stroke-linecap="round" stroke-linejoin="round" d="m299.263 291.152-2.774-6.679-2.734 6.679h5.508z"/><path fill="#754C24" stroke="#754C24" stroke-width=".357" stroke-linecap="round" stroke-linejoin="round" d="M299.349 290.971c-.164 1.088-1.374 1.934-2.841 1.934s-2.676-.846-2.84-1.934h5.681z"/></svg>