<svg xmlns="http://www.w3.org/2000/svg" width="580" height="580" xml:space="preserve"><g fill="#93278F"><path d="M299.464 294.981s-.62 2.1-2.44 1.474c0 0 .22-1.83 2.44-1.474zM296.414 297.578a1.746 1.746 0 0 1 2.966 1.245c0 .035 0 .065-.002.102h-.002c-.03.377-.151.846-.434 1.427 0 0-.49.936-.882 1.365l-.035.033a1.054 1.054 0 0 1-1.607-.129h-.006c-.192.268-.507.44-.862.44-.292 0-.556-.12-.747-.311l-.035-.033c-.39-.429-.882-1.365-.882-1.365-.284-.583-.405-1.054-.432-1.427h-.008c-.004-.035-.004-.065-.004-.102a1.747 1.747 0 0 1 2.972-1.245M293.83 294.328s.367 1.834 1.966 1.44c0 .001-.049-1.573-1.967-1.44z"/><path d="M296.363 297.208s-.018-1.883-.213-2.373c-.196-.491.657 0 .657 0l-.444 2.373z"/></g><g fill="#93278F" stroke="#93278F" stroke-linecap="round" stroke-linejoin="round"><path stroke-width=".165" d="m285.016 296.277 3.45 4.532 3.744-1.812-3.357-4.493-3.837 1.773zM284.595 296.727l3.391 4.464-.098 1.592-3.422-4.474.129-1.582z"/><path opacity=".75" stroke-width=".271" d="m292.119 299.851-3.531 1.743-.006.053 3.528-1.743.009-.053zM292.051 300.81l-3.531 1.743-.006.052 3.527-1.742.01-.053z"/></g><g stroke="#93278F" stroke-linejoin="round"><g fill="none" stroke-width=".03"><path d="m296.538 293.463-3.323-3.989h6.647l-3.324 3.989z" stroke-width=".4431267"/><path d="m293.215 289.474 1.108-1.329h4.43l1.109 1.33h-6.647z" stroke-width=".4431267"/><path d="m294.987 288.145 1.551 5.318 1.551-5.318" stroke-width=".4431267"/></g><path opacity=".1" fill="#FFF" stroke-width=".44328576000000003" d="m296.535 293.467-3.323-3.989h6.647l-3.324 3.989z"/><path opacity=".1" fill="#FFF" stroke-width=".44328576000000003" d="m293.212 289.478 1.108-1.329h4.43l1.109 1.33h-6.647z"/></g><g fill="#93278F" stroke="#93278F"><path stroke-width=".1052862" d="M284.185 288.214c1.288-.69 2.388-.62 3.476-1.214a3.06 3.06 0 0 0 1.421-.014c1.234.568 2.318.66 3.476 1.242-.096.609-.308 1.134-.663 1.558a2.694 2.694 0 0 0-1.228-.331l-.028 4.139c-1.692.314-3.126.179-4.526-.014l-.014-4.111c-.493-.014-.869.168-1.255.331-.37-.509-.544-1.042-.66-1.586z"/><path stroke-width=".0526431" d="M284.378 288.144c.115.567.32 1.095.717 1.544M286.171 293.359c1.481.244 2.962.295 4.443-.014M287.647 287.014c-.013.122.09.67.732.703.628.034.75-.607.731-.69"/><path stroke-width=".0526431" d="M287.375 287.161c-.013.123.24.795.965.814.739.02 1.04-.772 1.021-.856"/><path stroke-width=".0526431" d="M287.706 287.261c.45.118.846.093 1.334-.01M286.108 287.575c.135.52.36 1.13-.014 1.862M290.646 287.584c-.135.521-.36 1.132.014 1.864M292.38 288.13c-.116.566-.322 1.095-.718 1.546"/></g></svg>