<svg xmlns="http://www.w3.org/2000/svg" width="580" height="580" xml:space="preserve"><path fill="#93278F" stroke="#93278F" stroke-width=".248" stroke-linecap="round" stroke-linejoin="round" d="m291.675 280.941.009 1.934.844.463.84-.475-.01-1.934.875-.006.504 2.709-1.554 1.068.343 9.491c.014 1.413-2.002 1.308-1.957.045l.219-9.559-1.627-1.018.572-2.719h.942zm.875 12.901a.454.454 0 0 0-.451.454.454.454 0 0 0 .454.451.454.454 0 0 0 .451-.454.447.447 0 0 0-.454-.451z"/><path fill="#93278F" d="m280.147 283.315.077-.05c.492-.986 3.12-1.682 3.616-.449.042.229.299.454.564.492l.007 4.153c-.232 0-.488.262-.493.495l-.128 6.729c-.012.612.49.621.756.623l1.232-.002c.269 0 .805-.177.789-.697l-.185-6.654c-.006-.232-.261-.487-.492-.49l-.001-.002-.005-4.168c.418-.022.643-.213.786-.464.276-.485.861-.326 1.361-.283l-.001.204c.002.307.276.551.618.551.342 0 .616-.247.615-.552l-.001-1.361c-.002-.306-.276-.551-.617-.549-.309 0-.552.204-.597.47-.991-.056-.825-.379-2.123-.444l-2.333-.021c-1.648.016-2.725 1.098-3.445 2.469z"/></svg>