<svg xmlns="http://www.w3.org/2000/svg" width="300" height="500" xml:space="preserve"><path fill="#00F" d="M146 262.4h8a2 2 0 0 1 2 2v8a2 2 0 0 1-2 2h-8a2 2 0 0 1-2-2v-8a2 2 0 0 1 2-2z"/><path fill="#FFF" d="M145.6 264h8.8v8.8h-8.8z"/><circle cx="147.2" cy="265.6" r=".6"/><path d="M146.6 266.4h1.2a.6.6 0 0 1 .6.6v1.6a.6.6 0 0 1-.6.6h-1.2a.6.6 0 0 1-.6-.6V267a.6.6 0 0 1 .6-.6z"/><path d="M146.76 268.8c.199 0 .36.269.36.601v2.399c0 .331-.161.601-.36.601-.199 0-.36-.27-.36-.601v-2.4c0-.332.161-.6.36-.6zM147.64 268.8c.199 0 .36.269.36.601v2.399c0 .331-.162.601-.36.601-.199 0-.36-.27-.36-.601v-2.4c0-.332.161-.6.36-.6z"/><circle cx="150" cy="265.6" r=".6"/><path d="M149.4 266.4h1.2a.6.6 0 0 1 .6.6v1.6a.6.6 0 0 1-.6.6h-1.2a.6.6 0 0 1-.6-.6V267a.6.6 0 0 1 .6-.6z"/><path d="M149.56 268.8c.199 0 .36.269.36.601v2.399c0 .331-.162.601-.36.601-.199 0-.36-.27-.36-.601v-2.4c0-.332.161-.6.36-.6zM150.44 268.8c.199 0 .36.269.36.601v2.399c0 .331-.161.601-.36.601-.199 0-.36-.27-.36-.601v-2.4c0-.332.161-.6.36-.6z"/><g><circle cx="152.8" cy="265.6" r=".6"/><path d="M152.199 266.4h1.201a.6.6 0 0 1 .6.6v1.6a.6.6 0 0 1-.6.6h-1.201a.6.6 0 0 1-.6-.6V267c.001-.332.27-.6.6-.6z"/><path d="M152.359 268.8c.199 0 .359.269.359.601v2.399c0 .331-.16.601-.359.601-.199 0-.359-.27-.359-.601v-2.4c0-.332.16-.6.359-.6zM153.24 268.8c.199 0 .359.269.359.601v2.399c0 .331-.16.601-.359.601-.199 0-.361-.27-.361-.601v-2.4c0-.332.162-.6.361-.6z"/></g><path fill="none" stroke="#00F" stroke-width="1.4" stroke-linecap="round" stroke-linejoin="round" d="m145.6 258 2-2.4 2 2.4-2-2.4v5.599M154.8 258.8l-2 2.399-2-2.399 2 2.399V255.6"/></svg>