<svg xmlns="http://www.w3.org/2000/svg" width="580" height="580" xml:space="preserve"><path fill="#29ABE2" d="M287.802 290.459a.173.173 0 0 0-.173.168l.057 8.156c.001.212.14.379.314.529.174.152.402.289.652.412.5.242 1.079.42 1.5.42.544 0 1.185-.211 1.809-.416s1.234-.399 1.638-.399c.404 0 .891.192 1.414.396s1.084.419 1.67.419c1.153 0 2.434-.651 2.434-.651a.173.173 0 0 0 .092-.148v-8.526c-.001-.057-.031-.111-.079-.141s-.111-.033-.161-.008c0 0-1.26.617-2.285.617-.502 0-1.029-.193-1.549-.396-.52-.204-1.031-.419-1.535-.419s-1.117.212-1.74.417-1.252.399-1.706.399c-.453 0-1.032-.197-1.486-.399s-.786-.404-.786-.404a.158.158 0 0 0-.08-.026z"/><path fill="#29ABE2" d="M287.332 290.393a.173.173 0 0 0-.166.166v15.352c0 .087.079.166.166.166h.486a.173.173 0 0 0 .166-.166v-15.352a.172.172 0 0 0-.166-.166h-.486z"/></svg>