<svg xmlns="http://www.w3.org/2000/svg" width="580" height="580" xml:space="preserve"><path fill="#0071BC" stroke="#EEE" stroke-width=".085" d="M284.335 283.214c-1.033 0-1.614.535-1.614 1.626v11.253c0 1.021.522 1.556 1.555 1.556h11.3c1.033 0 1.557-.508 1.557-1.556V284.84c0-1.065-.523-1.626-1.589-1.626 0 0-11.212-.004-11.209 0z"/><g fill="#FFF"><path d="M290.084 284.308c-.578.062-2.684 1.027-2.746 5.987-.065 5.228 2.167 6.327 2.752 6.317v-3.452c-.482 0-.578-.523-.689-1.607a12.541 12.541 0 0 1 0-2.484c.068-.619.181-1.223.687-1.223l-.004-3.538zM291.682 296.618a.383.383 0 0 0 .384-.387l.003-.003-.003-2.691a.382.382 0 0 0-.384-.381h-.979v3.461s.976.002.976 0l.003.001zM291.682 287.846a.383.383 0 0 0 .384-.386h.003l-.003-2.771a.381.381 0 0 0-.384-.38h-.979v3.538l.976.003.003-.004z"/></g></svg>