<svg xmlns="http://www.w3.org/2000/svg" width="412" height="321" xml:space="preserve"><path fill="#00F" d="M251.467 208.422a3.043 3.043 0 0 1-.402-.125c-.817-.324-1.449-1.279-1.449-2.188 0-.807.502-1.664 1.182-2.018.461-.237.524-.248 1.658-.264a22.222 22.222 0 0 0 1.11-.033c.055-.012.54-.47 1.294-1.222l1.207-1.205.011-1.729.011-1.729.096-.18c.361-.685 1.334-.83 1.883-.282.27.271.331.466.331 1.062 0 .348.012.476.043.476.021 0 .653-.608 1.401-1.35 1.271-1.267 1.38-1.36 1.644-1.499.157-.08.411-.183.563-.227.275-.08.31-.083 2.045-.083 1.74 0 1.766.002 1.973.08.672.253 1.236.837 1.451 1.501.117.362.131.896.033 1.26-.192.72-.79 1.396-1.465 1.653-.225.087-.252.09-1.34.101-.61.006-1.15.02-1.2.03-.057.013-1.432 1.36-3.773 3.696-2.416 2.411-3.763 3.73-3.909 3.826a3.263 3.263 0 0 1-.87.412c-.185.054-.403.062-1.762.07-1.21.012-1.602.002-1.766-.033zm3.314-1.198c.098-.026.247-.084.335-.127.113-.059 1.213-1.133 3.933-3.846 3.76-3.753 3.858-3.848 4.195-3.96.061-.022.631-.047 1.271-.059 1.324-.022 1.32-.022 1.6-.34.293-.335.391-.859.225-1.224-.095-.207-.362-.502-.554-.604-.14-.073-.17-.076-1.764-.076-1.49 0-1.64.006-1.816.066-.185.062-.374.244-4.02 3.883-2.106 2.1-3.884 3.85-3.952 3.89-.296.175-.44.193-1.6.208-1.25.016-1.305.026-1.588.33-.275.294-.349.805-.172 1.206.131.296.44.57.75.665.05.014.738.027 1.533.03 1.102.004 1.488-.007 1.624-.042zm2.055-10.407a1.187 1.187 0 0 1-.779-1.134c0-.452.27-.865.69-1.057a1.173 1.173 0 0 1 1.284.207c.604.545.446 1.572-.295 1.93-.213.103-.698.132-.9.054zM262.631 208.461h3.246c.914 0 .914-1.371 0-1.371h-1.645l3.153-3.153c.687-.686-.32-1.692-1.052-.961l-3.107 3.107v-1.646c0-.867-1.371-.914-1.371 0v3.246c0 .46.319.778.776.778z"/></svg>