<svg xmlns="http://www.w3.org/2000/svg" width="412" height="321" xml:space="preserve"><path fill="#00F" d="M251.466 208.421a3.304 3.304 0 0 1-.402-.124c-.817-.325-1.449-1.279-1.449-2.188 0-.807.502-1.664 1.181-2.017.461-.238.525-.249 1.66-.264a22.222 22.222 0 0 0 1.11-.033c.054-.012.538-.47 1.293-1.222l1.207-1.205.011-1.729.01-1.73.096-.18c.361-.685 1.335-.83 1.883-.282.27.271.331.466.331 1.063 0 .347.012.475.043.475.021 0 .654-.608 1.402-1.35 1.271-1.266 1.378-1.36 1.643-1.499.157-.08.411-.182.564-.226.275-.08.308-.083 2.044-.083 1.74 0 1.766.002 1.973.08.672.253 1.237.837 1.451 1.501.117.362.131.896.034 1.26-.193.72-.792 1.395-1.465 1.653-.225.087-.253.09-1.34.101-.612.005-1.15.02-1.2.03-.057.012-1.432 1.36-3.774 3.696-2.416 2.411-3.763 3.73-3.909 3.826a3.263 3.263 0 0 1-.87.412c-.185.054-.403.062-1.762.071-1.209.01-1.6 0-1.765-.036zm3.315-1.197c.097-.026.247-.084.335-.127.113-.058 1.213-1.132 3.932-3.846 3.761-3.752 3.86-3.847 4.196-3.96.06-.02.631-.046 1.271-.058 1.325-.023 1.32-.022 1.6-.34.293-.334.39-.859.224-1.223-.094-.208-.362-.502-.553-.604-.14-.073-.17-.076-1.764-.076-1.49 0-1.639.006-1.816.066-.185.062-.374.245-4.02 3.883-2.106 2.1-3.884 3.85-3.952 3.89-.296.174-.442.193-1.599.208-1.25.015-1.305.026-1.589.33-.275.294-.348.805-.17 1.206.13.296.438.57.748.665.05.014.74.028 1.534.03 1.101.002 1.487-.008 1.623-.044zm2.054-10.407a1.187 1.187 0 0 1-.779-1.133c0-.453.27-.866.691-1.058.43-.196.928-.115 1.284.208.604.545.446 1.572-.295 1.93-.213.102-.698.131-.9.053z"/></svg>