<svg xmlns="http://www.w3.org/2000/svg" version="1.0" width="580" height="580"><path d="M66.275 1.768c-41.335 0-64.571 21.371-64.571 65.036v450.123c0 40.844 20.895 62.229 62.192 62.229H515.92c41.307 0 62.229-20.315 62.229-62.229V66.804c0-42.601-20.922-65.036-63.521-65.036-.004 0-448.495-.143-448.353 0z" style="fill:#111;stroke:#eee;stroke-width:3.40799999"/><path style="fill:#fff;fill-opacity:1;stroke:#fff;stroke-width:7.73715258;stroke-linecap:round;stroke-linejoin:round;stroke-miterlimit:4;stroke-opacity:1;stroke-dasharray:none;stroke-dashoffset:0" d="M404.439 179.439h5.264v192.789h-5.264z" transform="translate(-68.204 89.764) scale(1.16232)"/><path d="M405.339 192.36v80.193h124.167v-80.192H405.339z" style="fill:#fff;fill-opacity:1;stroke:#fff;stroke-width:7.73715258;stroke-linecap:round;stroke-linejoin:round;stroke-miterlimit:4;stroke-opacity:1;stroke-dasharray:none;stroke-dashoffset:0" transform="translate(-68.204 89.764) scale(1.16232)"/><path style="fill:#fff;fill-opacity:1;stroke:#fff;stroke-width:2.03705359;stroke-linecap:round;stroke-linejoin:round;stroke-miterlimit:4;stroke-opacity:1;stroke-dasharray:none;stroke-dashoffset:0" d="m223.243 71.952 178.624 178.805-46.174-.064v190.91H89.832V250.375l-43.558-.064 57.483-60.655v-81.827h57.435v29.155l62.05-65.032h0z"/></svg>