<svg xmlns="http://www.w3.org/2000/svg" version="1.0" width="580" height="580"><path d="M66.275 1.768c-41.335 0-64.571 21.371-64.571 65.036v450.123c0 40.844 20.895 62.229 62.192 62.229H515.92c41.307 0 62.229-20.315 62.229-62.229V66.804c0-42.601-20.922-65.036-63.521-65.036-.004 0-448.495-.143-448.353 0z" style="fill:#111;stroke:#eee;stroke-width:3.40799999"/><path style="fill:#fff;fill-opacity:1;stroke:#fff;stroke-width:20;stroke-linecap:round;stroke-linejoin:round;stroke-miterlimit:4;stroke-dasharray:none;stroke-dashoffset:0;stroke-opacity:1" d="M149.09 48.36h13.608v498.345H149.09z"/><path style="fill:none;fill-opacity:1;stroke:#fff;stroke-width:20;stroke-linecap:round;stroke-linejoin:round;stroke-miterlimit:4;stroke-dasharray:none;stroke-dashoffset:0;stroke-opacity:1" d="M151.417 81.762v207.292H472.38V81.762H151.417z"/><path style="fill:#fff;fill-opacity:1;stroke:#fff;stroke-width:1.08533156;stroke-linecap:round;stroke-linejoin:round;stroke-miterlimit:4;stroke-dasharray:none;stroke-dashoffset:0;stroke-opacity:1" d="M145.335 84.369v213.2h330.11v-213.2h-330.11zm180.369 6.953 78.415 76.753h.679v.644l16.076 15.738-16.076-.034v101.716H251.427V184.253l-20.011-.034 30.627-30.185v-42.532h27.404v15.534l36.257-35.714z"/></svg>