<svg xmlns="http://www.w3.org/2000/svg" width="580" height="580" xml:space="preserve"><path fill="#754C24" d="m296.159 276.068-1.027 3.625h-5.234l1.26 10.002h4.283l1.279-10.002h-.969l1.008-3.451-.6-.174zm-6.882 9.461c.103-.905-.582-1.396-2.055-1.473h-3.548c-1.473.077-2.165.568-2.074 1.473h7.677zm-7.676 2.714c-.09.905.601 1.389 2.074 1.454h3.548c1.473-.064 2.158-.549 2.055-1.454h-7.677zm7.347-2.016h-7.037a.636.636 0 0 0-.465.194.614.614 0 0 0-.194.446c0 .194.065.353.194.475s.284.184.465.184h7.037a.654.654 0 0 0 .465-.184.626.626 0 0 0 .193-.475.614.614 0 0 0-.193-.446.635.635 0 0 0-.465-.194z"/></svg>