<svg xmlns="http://www.w3.org/2000/svg" width="580" height="580" xml:space="preserve"><path fill="#754C24" d="M288.083 298.697c-1.207-.682-1.943-2.273-1.399-4.652.381-1.669 1.492-3.729.641-5.445 1.032.714 2.105 2.411 3.188 4.328.074-2.073-1.001-3.431-.228-6.263.531 3.504 2.659 3.721 3.739 6.908.46-1.498 1.415-1.991.949-5.712 4.697 6.416 2.02 8.694 1.082 10.989l.303-3.188c-1.473 4.259-2.653 5.045-3.72 5.997.597-1.999.831-3.998-.379-5.997-.294 3.282-1.124 2.6-1.291 5.238-1.658-1.252-1.999-2.536-2.296-4.631-.226.244-.607 1.268-.589 2.428z"/><path fill="#754C24" d="M291.519 283.381c-1.229 4.988 1.015 4.944 2.258 7.875.872-4.519-1.738-3.502-2.258-7.875z"/></svg>