<svg xmlns="http://www.w3.org/2000/svg" width="580" height="580" xml:space="preserve"><g fill="#93278F"><path d="M290.395 277.436a.028.028 0 0 0-.012.003c-.055.022-.348.345-.652.721l-.552.682-.4.03c-1.827.221-3.314.97-4.686 2.173-.284.3-1.354 1.297-1.288 1.539.022.024.276-.006.558.03.525.068 1.33.17 1.326.28-.002.056-.454.112-1.28.217-.709.09-.702.24.02.494.865.305 2.001.496 3.839.363 1.366.014 2.582-.471 3.87-.778.09-.005.355-.08.588-.17 1.403-.4 2.557-.794 3.703-.676 1.061.055 1.767.775 2.603 1.294.035 0 .248.139.473.307.61.457.766.392.528-.218-.197-.5-.521-1.64-.514-1.811.183-.565.373-1.255.62-1.799.142-.25.168-.501.055-.503a.844.844 0 0 0-.18.066c-.082.038-.294.136-.468.214s-.386.2-.47.276a2.75 2.75 0 0 1-1.675.467c-.69-.138-1.584-.247-2.274-.716-1.06-.57-1.15-.615-1.591-.77a4.898 4.898 0 0 1-.456-.177c-.01-.011.049-.083.133-.16.083-.077.145-.18.136-.226-.009-.047-.262-.175-.56-.29a2.996 2.996 0 0 1-.923-.552c-.198-.18-.4-.313-.47-.31zm-5.57 3.986a.276.276 0 1 1 0 .552.276.276 0 0 1 0-.552z"/><path d="M286.671 282.758c-.94-1.323-.755.022-.34-.922l2.213-1.702c4.99-1.34-1.818 1.466 1.524.798-.028.03.121.209.33.4.209.192.363.446.34.564-2.306 1.275.282 3.125-1.84 2.988-1.04-.068-2.718-1.995-2.227-2.126z"/></g></svg>