<svg xmlns="http://www.w3.org/2000/svg" width="580" height="580" xml:space="preserve"><g fill="#93278F"><path d="M286.527 288.93c-.31.674-1.644 2.051-2.359 1.723-.715-.329-.541-2.238-.232-2.912.31-.674 1.353-1.219 1.79-.416.919-.181 1.11.931.801 1.605z"/><path d="M286.969 292.857c-.74.045-2.584-.481-2.632-1.267-.048-.785 1.717-1.534 2.457-1.579.74-.045 1.713.617 1.211 1.381.594.725-.296 1.42-1.036 1.465zM279.979 293.464c.413-.616 1.949-1.763 2.603-1.325s.179 2.295-.234 2.911c-.412.616-1.529.989-1.833.126-.936.033-.949-1.096-.536-1.712z"/><path d="M280.205 289.485c.728.14 2.383 1.108 2.235 1.88-.148.772-2.044 1.06-2.773.92-.728-.141-1.506-1.023-.83-1.639-.395-.849.64-1.301 1.368-1.161z"/><path d="M283.2 287.621c.34.659.6 2.559-.1 2.919s-2.095-.955-2.435-1.614-.125-1.816.777-1.665c.425-.835 1.419-.3 1.758.36z"/><path d="M284.617 291.425c0 .678-.559 1.228-1.249 1.228-.689 0-1.248-.55-1.248-1.228 0-.678.559-1.227 1.248-1.227.69 0 1.249.549 1.249 1.227z"/><path d="M283.133 295.016c-.258-.695-.287-2.613.451-2.887s1.965 1.2 2.223 1.896c.257.695-.095 1.818-.972 1.559-.522.777-1.444.127-1.702-.568z"/><path d="m283.179 291.053-.38 1.027c.109.016.25.171.319.031a.867.867 0 0 1 .968-.26 1.14 1.14 0 0 1-.025-.486 10.88 10.88 0 0 0-.861-.37l-.021.058zm2.376 1.969c.459.537.768 1.271.582 1.979-.061.269-.23.498-.413.688-.4 1.785-1.04 3.508-1.704 5.211-.011.144.3.15.421.238.209.085.419.169.628.256.714-1.826 1.399-3.677 1.816-5.596.155-.741.261-1.565-.109-2.26-.083-.136-.151-.308-.275-.397-.367-.035-.716-.17-1.069-.273l.123.154z"/></g></svg>