<svg xmlns="http://www.w3.org/2000/svg" width="400" height="400" xml:space="preserve"><g stroke="#603813"><path opacity=".985" fill="#FFF" stroke-width=".523" stroke-linecap="round" stroke-linejoin="round" d="M226.299 191.163c-.405.151-.964.379-1.172.379s-.379-.17-.379-.379.171-.378.379-.378c.199.008.778.243 1.172.378z"/><path opacity=".985" fill="#FFF" stroke-width=".523" stroke-linecap="round" stroke-linejoin="round" d="M225.934 191.163c.406.151.963.379 1.173.379a.379.379 0 0 0 0-.757c-.201.008-.778.243-1.173.378z"/><path fill="none" stroke-width="1.045" stroke-linecap="round" d="M226.11 191.145v2.306l.027.898"/><path opacity=".985" fill="#603813" stroke-width="1.045" stroke-linecap="round" stroke-linejoin="round" d="M226.905 194.149c0 .877-.356 1.589-.794 1.59-.438 0-.795-.711-.796-1.587v-.003c0-.876.355-1.587.793-1.589.439-.001.796.711.797 1.587v.002z"/><path fill="none" stroke-width="1.742" d="m230.344 194.339-6.199-.035-.492-.003c-2.419-.037-2.269 2.231-2.269 2.231"/></g><path fill="#603813" d="M225.405 198.584h-.006c.006-.005.011-.011.011-.017 0-.129-1.777-.234-3.967-.234-2.188 0-3.966.105-3.966.234 0 .006.005.012.011.017h-.011l1.237 9.438h.007c-.011.005-.018.012-.018.018 0 .091 1.228.163 2.739.163 1.513 0 2.739-.072 2.739-.163 0-.006-.005-.013-.017-.018l1.241-9.438zm-2.033 8.746c-.063.061-3.824.032-3.888-.025l-1.175-8.149c2.006.007 3.451.107 6.179-.056l-1.116 8.23z"/><path opacity=".1" fill="#603813" d="m217.982 199.002 6.791.055-1.1 8.696-4.647.055-1.044-8.806z"/></svg>