<svg xmlns="http://www.w3.org/2000/svg" width="580" height="580" xml:space="preserve"><path fill="#0071BC" d="M271.892 284.471c-.254 0-.508.184-.508.478l-.005 9.458h.523l.005.748 4.803-.003.003-.745.45.004v-9.559c0-.204-.118-.381-.34-.381h-4.931zm.803 1.045h3.147c.174 0 .311.071.311.311v2.486c0 .168-.09.291-.282.291l-3.168-.008a.33.33 0 0 1-.34-.332l.016-2.445c0-.196.136-.303.316-.303z"/><path fill="#0071BC" d="m271.407 287.722-.48-.003c-.003 1.956.011 5.815.019 5.882.018.141.007.287-.029.42-.753 1.898-3.191 1.026-2.845-.821.76-1.832 1.827-3.071 2.357-5.232l.047 1.606c-.478.93-1.32 2.562-1.973 3.926-.055 1.259 1.443 1.674 1.912.322.209-2.366-.008-4.946-.012-7.419.305-.906.642-.993.983-.95"/></svg>