<svg xmlns="http://www.w3.org/2000/svg" width="580" height="580" xml:space="preserve"><path fill="#0071BC" d="M275.208 276.082c-.28 0-.559.202-.559.526l-.006 10.403h.576l.005.823 5.283-.003.004-.82.495.004V276.5c0-.224-.13-.418-.374-.418h-5.424zm.884 1.149h3.462c.191 0 .342.078.342.342v2.735c0 .185-.099.32-.311.32l-3.484-.009a.365.365 0 0 1-.375-.365l.018-2.689c0-.216.149-.334.348-.334z"/><path fill="#0071BC" d="m274.674 279.657-.529-.003a701.23 701.23 0 0 0 .021 6.47c.019.155.007.315-.032.462-.829 2.088-3.511 1.129-3.13-.903.836-2.015 2.009-3.379 2.593-5.756l.052 1.767c-.525 1.022-1.452 2.817-2.171 4.318-.061 1.386 1.588 1.842 2.104.355.23-2.603-.009-5.44-.013-8.161.335-.997.706-1.092 1.081-1.045M272.659 289.298h1.051v2.564h1.64v.837h-2.691v-3.401zm3.17 0h1.748c.38 0 .666.091.855.271.189.181.284.438.284.773 0 .343-.104.612-.31.805s-.521.29-.945.29h-.576v1.262h-1.056v-3.401zm1.055 1.45h.258c.203 0 .345-.035.427-.105s.123-.161.123-.271a.378.378 0 0 0-.107-.271c-.071-.075-.205-.112-.401-.112h-.299v.759zm4.094.72v-.708h1.624v1.45c-.311.212-.586.356-.825.433a2.785 2.785 0 0 1-.851.115c-.403 0-.732-.069-.987-.207a1.415 1.415 0 0 1-.591-.614 2.022 2.022 0 0 1-.21-.938c0-.371.076-.694.229-.969a1.48 1.48 0 0 1 .673-.625c.23-.11.541-.165.931-.165.376 0 .657.034.843.102.187.068.341.173.464.316.123.143.216.325.277.544l-1.014.181a.55.55 0 0 0-.212-.294.664.664 0 0 0-.382-.102c-.23 0-.414.08-.551.24-.137.16-.206.413-.206.76 0 .368.069.631.208.789.139.157.332.236.579.236.118 0 .229-.017.336-.051s.229-.092.367-.174v-.32h-.702z"/></svg>