<svg xmlns="http://www.w3.org/2000/svg" width="400" height="400" xml:space="preserve"><path fill="#93278F" stroke="#93278F" stroke-width=".035" stroke-linecap="round" stroke-linejoin="round" d="M205.974 194.623s-.362 3.737-.388 4.526-.065 3.312-.078 3.828c-.013.518.311 4.694.389 4.915.077.219-.221.103-.221.103s-.298 0-.298-.077-.374-2.237-.4-2.443c-.026-.207-.155-1.992-.155-1.992s-.479.22-.943.388c-.467.169-1.255.388-1.255.388l-.117 5.277-.232.063h-.31l-.272-5.288s-.167.051-.349.038l-.182-.014s.194 1.733.22 1.876c.026.143.182 1.151.182 1.151l-.194.103-.284-.025s-.298-1.177-.336-1.475c-.039-.297-.181-1.72-.181-1.72l-3.467-.337-.297 4.851-.246.077-.311-.025v-5.199s-.129-.116-.142-.246c-.013-.129-.091-.556.064-.802.155-.245.22-.284.388-.362.168-.076 1.953-.387 2.34-.452.388-.065 1.345-.143 1.345-.143s.078-2.134.116-3.246c.039-1.112.143-3.181.246-3.479s.091-.414.22-.492.245-.116.582-.09c.336.026 3.893.143 4.178.207.284.064.388.116.388.116z"/></svg>