<svg xmlns="http://www.w3.org/2000/svg" width="580" height="580" xml:space="preserve"><g fill="#93278F" stroke="#93278F" stroke-width=".518" stroke-linecap="round" stroke-linejoin="round"><path d="m285.786 332.167.058-7.13c.25-.218 2.882-.634 6.63-.089l-.059 7.13c-1.23 1.113-5.691.823-6.63.09h0z" stroke-width=".5427448600000001"/><path d="M288.438 326.039c.474-1.573.913-3.153 1.001-4.802l.855.117c-.446 1.59-.598 3.255-.736 4.922l-1.12-.237h0zM292.091 325.42c-.118.764.702-.667 1.616-.6.527.029 1.084.351 1.21.894.108.409.092.786-.074 1.176-.223.401-.676.809-1.01 1.078-.546.488-1.306 1.045-1.803 1.654-.05.083-.045.357.102.359.275-.146.482-.384.725-.573a37.035 37.035 0 0 0 1.815-1.677c.294-.358.595-.766.628-1.138.098-.576.007-1.24-.442-1.655-.576-.649-1.865-.624-2.617.14-.132.131-.016.215-.15.343h0zM282.048 325.522l5.068 4.714-.059 2.12-5.745-6.156.736-.678z" stroke-width=".5427448600000001"/><path d="M282.163 326.171c.356-.317.694-1.104.578-2.242-1.264.426-2.74 2.152-2.931 2.77.832.218 1.804.08 2.353-.528z" stroke-width=".5427448600000001"/></g></svg>