<svg xmlns="http://www.w3.org/2000/svg" width="580" height="580" xml:space="preserve"><g fill="#93278F"><path d="m295.186 293.418-.006.01a1.635 1.635 0 0 1-.142.157 1.592 1.592 0 0 1-.54.39c-.038.017-.077.029-.116.042v2.811h5.705v-2.9a.51.51 0 0 0-.51-.51h-4.391zm4.9 3.409v1.615-1.615zm0 1.615h-5.705v3.284h5.194a.51.51 0 0 0 .511-.51v-2.774zm-5.705 0v-1.615 1.615zM287.561 293.418a.508.508 0 0 0-.51.51v2.9h5.916v-2.86a2.053 2.053 0 0 1-.376-.204 1.98 1.98 0 0 1-.327-.297c-.013-.016-.022-.033-.036-.049h-4.667zm5.406 3.409v1.615-1.615zm0 1.615h-5.916v2.774c0 .283.227.51.51.51h5.406v-3.284zm-5.916 0v-1.615 1.615zM294.803 292.109a1.098 1.098 0 1 1-2.195-.002 1.098 1.098 0 0 1 2.195.002zM300.16 289.148c-1.136-.01-3.85 1.02-4.802 2.08.234.126.613.2 1.241.15 1.24-.8 3.01-1.478 4.116-1.338.264-.324.017-.67-.146-.789-.075-.068-.218-.102-.409-.103z"/><path d="M295.439 292.696c-.096.067 4.37-.105 5.594-1.506.822-.945-.708-2.318-.24-1.833 1.269 1.317-4.51 2.517-5.41 1.978.288.453.274.907.056 1.36z"/><g><path d="M287.336 289.099c1.135-.01 3.85 1.02 4.801 2.08-.234.125-.613.2-1.24.15-1.24-.8-3.012-1.48-4.118-1.338-.263-.323-.015-.67.146-.789.077-.07.22-.102.411-.103z"/><path d="M292.058 292.647c.096.068-4.371-.104-5.593-1.506-.824-.944.707-2.317.24-1.832-1.27 1.317 4.509 2.517 5.408 1.978-.29.452-.274.906-.055 1.36z"/></g></g></svg>