<svg xmlns="http://www.w3.org/2000/svg" width="580" height="580" xml:space="preserve"><g fill="#93278F"><path d="M293.808 285.16s-1.134 3.843-4.465 2.697c-.001.003.401-3.347 4.465-2.697zM288.224 289.914a3.193 3.193 0 0 1 5.428 2.278c0 .065 0 .121-.003.188h-.007c-.056.69-.275 1.548-.795 2.612 0 0-.895 1.712-1.612 2.498l-.065.062a1.932 1.932 0 0 1-2.941-.236h-.009c-.35.488-.925.805-1.575.805a1.918 1.918 0 0 1-1.368-.569l-.065-.062c-.712-.786-1.613-2.498-1.613-2.498-.52-1.064-.74-1.928-.789-2.612h-.016c-.009-.064-.009-.12-.009-.188a3.195 3.195 0 0 1 3.201-3.191 3.175 3.175 0 0 1 2.238.913M283.495 283.968s.674 3.357 3.597 2.635c0 .001-.089-2.881-3.597-2.635z"/><path d="M288.13 289.238s-.033-3.447-.39-4.346 1.201 0 1.201 0l-.811 4.346z"/></g></svg>