<svg xmlns="http://www.w3.org/2000/svg" width="580" height="580" xml:space="preserve"><path opacity=".351" fill="#29ABE2" stroke="#FFF" stroke-width=".043" d="m290.837 270.502-7.481 7.679h1.496V289.7h4.489v-5.854h3.096v5.854h4.386v-11.519h1.497l-7.483-7.679z"/><path fill="#FFF" stroke="#29ABE2" stroke-width="1.345" d="m281.544 280.066-.12 9.366"/><path fill="#29ABE2" stroke="#29ABE2" stroke-width="1.345" d="m281.664 285.95 18.012.12M299.796 289.072l.12-6.124"/><path fill="#29ABE2" stroke="#29ABE2" stroke-width="1.547" d="M289.349 282.528h7.805a.84.84 0 1 1 0 1.681h-7.805a.84.84 0 0 1 0-1.681z"/><path fill="#29ABE2" stroke="#29ABE2" stroke-width=".092" d="M287.146 280.847c0 .641-.586 1.16-1.309 1.161-.724 0-1.311-.519-1.311-1.16v-.001c0-.641.586-1.16 1.31-1.16.724 0 1.31.519 1.31 1.16z"/><path fill="#29ABE2" stroke="#29ABE2" stroke-width="1.345" d="M283.315 283.849h3.362a.15.15 0 1 1 0 .3h-3.362a.15.15 0 1 1 0-.3z"/></svg>