<svg xmlns="http://www.w3.org/2000/svg" width="580" height="580" xml:space="preserve"><g fill="#93278F" stroke="#93278F"><path stroke-width=".279" stroke-linecap="round" stroke-linejoin="round" d="M298.335 269.321s-3.558-.449-3.974-.221c-.417.229-2.77 12.412-2.475 12.906.294.494 4.167.468 4.167.468l-4.026-.573 2.472-12.696 3.836.116z"/><path stroke-width=".186" stroke-linecap="square" d="m294.236 270.279 3.859.522-3.928-.074.069-.448h0zM294.015 271.718l3.859.522-3.928-.074.069-.448zM293.756 273.156l3.859.522-3.929-.074.07-.448zM293.47 274.595l3.859.522-3.928-.074.069-.448h0zM293.204 276.033l3.859.522-3.928-.074.069-.448zM292.969 277.472l3.859.522-3.928-.074.069-.448zM292.624 278.91l3.859.522-3.928-.075.069-.447zM292.402 280.349l3.858.522-3.928-.075.07-.447z"/></g><g fill="#93278F" stroke="#93278F" stroke-width=".24" stroke-linecap="round" stroke-linejoin="round"><path d="M301.007 268.415c-.124.011.49 3.92.74 4.882.38 1.467.014.173.572 2.513.818 3.427 1.676 6.24 2.054 6.647.57.615 1.672.413 2.025-.575.264-.74.41-1.769-.504-2.415-.906-.638-1.814.062-1.814.062l-3.037-11.105c-.005-.01-.018-.012-.036-.01zm4.197 11.179c.535.001 1.08.627 1.08 1.422v.003c0 .795-.547 1.46-1.084 1.458-.536-.001-1.101-.78-1.1-1.575s.567-1.31 1.104-1.308z" stroke-width=".29737679999999994"/><path d="M304.727 268.455c.124.01-.49 3.92-.74 4.881-.38 1.466-.012.174-.571 2.513-.82 3.429-1.677 6.242-2.053 6.65-.571.614-1.674.412-2.026-.576-.265-.742-.41-1.77.504-2.415.905-.638 1.814.061 1.814.061l3.037-11.106c.003-.007.016-.01.035-.008zm-4.198 11.18c-.537 0-1.08.627-1.08 1.422v.003c0 .795.548 1.46 1.085 1.46.536-.002 1.101-.78 1.1-1.576-.001-.796-.569-1.312-1.105-1.31z" stroke-width=".29737679999999994"/></g></svg>