<svg xmlns="http://www.w3.org/2000/svg" width="580" height="580" xml:space="preserve"><g fill="#93278F"><path d="M287.132 297.775a.483.483 0 0 0-.484.484v1.679c0 .266.215.483.484.483h13.796a.483.483 0 0 0 .484-.483v-1.68a.483.483 0 0 0-.484-.483h-13.796zm.318.809h2.01c.192 0 .344.154.344.346v.414a.345.345 0 0 1-.344.346h-2.01a.345.345 0 0 1-.346-.346v-.414c0-.192.157-.346.346-.346zm3.645 0h2.01c.192 0 .344.154.344.346v.414a.345.345 0 0 1-.344.346h-2.01a.345.345 0 0 1-.346-.346v-.414a.342.342 0 0 1 .346-.346zm3.64 0h2.01c.192 0 .344.154.344.346v.414a.345.345 0 0 1-.344.346h-2.01a.345.345 0 0 1-.346-.346v-.414c0-.192.154-.346.346-.346zm3.642 0h2.01c.192 0 .344.154.344.346v.414a.345.345 0 0 1-.343.346h-2.01a.345.345 0 0 1-.347-.346v-.414a.348.348 0 0 1 .346-.346z"/><path d="M288.006 300.115h1.674a.456.456 0 0 1 0 .912h-1.674a.455.455 0 1 1 0-.912zM298.386 300.115h1.674a.455.455 0 1 1 0 .912h-1.674a.455.455 0 1 1 0-.912z"/></g><g fill="#93278F"><path d="M287.132 292.266a.483.483 0 0 0-.484.484v2.637c0 .269.215.484.484.484h13.796a.483.483 0 0 0 .484-.484v-2.637a.483.483 0 0 0-.484-.484h-13.796zm12.082.559a1.369 1.369 0 1 1 0 2.74 1.369 1.369 0 1 1 0-2.74zm-11.591.145h2.01c.192 0 .346.154.346.346v.413a.345.345 0 0 1-.346.346h-2.01a.343.343 0 0 1-.344-.346v-.413a.342.342 0 0 1 .344-.346z"/><path d="M288.006 295.567h1.674a.455.455 0 1 1 0 .912h-1.674a.455.455 0 1 1 0-.912zM298.386 295.567h1.674a.455.455 0 1 1 0 .912h-1.674a.455.455 0 1 1 0-.912z"/></g></svg>