<svg xmlns="http://www.w3.org/2000/svg" width="580" height="580" xml:space="preserve"><path fill="#0071BC" stroke="#0071BC" stroke-width="1.075" stroke-linecap="round" d="m283.376 283.337-.096 14.842"/><path fill="#0071BC" stroke="#0071BC" stroke-width="1.075" d="m283.472 296.596 14.395.096"/><path fill="#0071BC" stroke="#0071BC" stroke-width="1.075" stroke-linecap="round" d="m297.964 297.891.096-11.534"/><path fill="#0071BC" stroke="#0071BC" stroke-width="1.041" d="M289.643 293.844h5.081a.58.58 0 0 1 0 1.158h-5.081a.579.579 0 1 1 0-1.158z"/><path fill="#0071BC" stroke="#0071BC" stroke-width=".069" d="M288.108 292.48c0 .441-.385.799-.861.799s-.862-.357-.862-.799c0-.441.385-.8.861-.8.476.001.862.358.862.8z"/><path fill="#0071BC" stroke="#0071BC" stroke-width=".905" d="M285.652 294.754h2.202c.057 0 .104.047.104.104a.103.103 0 0 1-.104.104h-2.202a.103.103 0 0 1-.103-.104c0-.057.046-.104.103-.104z"/><path fill="#0071BC" stroke="#0071BC" stroke-width="1.075" d="m283.615 289.525 14.396.096"/><path fill="#0071BC" stroke="#0071BC" stroke-width="1.041" d="M289.779 286.811h5.08a.579.579 0 1 1 0 1.158h-5.08a.579.579 0 1 1 0-1.158z"/><path fill="#0071BC" stroke="#0071BC" stroke-width=".069" d="M288.244 285.447c0 .441-.385.799-.861.799s-.861-.357-.862-.799c0-.441.385-.799.861-.799s.862.357.862.799z"/><path fill="#0071BC" stroke="#0071BC" stroke-width=".905" d="M285.789 287.721h2.202a.104.104 0 1 1 0 .208h-2.202a.104.104 0 0 1-.104-.104.105.105 0 0 1 .104-.104z"/></svg>