<svg xmlns="http://www.w3.org/2000/svg" width="580" height="580" xml:space="preserve"><path fill="#0092DA" stroke="#0092DA" stroke-width="1.161" stroke-linecap="round" d="m282.792 301.203-.104 8.085"/><path fill="#7398CF" stroke="#0092DA" stroke-width="1.161" d="m282.897 306.281 15.545.104"/><path fill="#0092DA" stroke="#0092DA" stroke-width="1.161" stroke-linecap="round" d="m298.547 308.979.105-5.287"/><path fill="#0092DA" stroke="#0092DA" stroke-width="1.335" d="M289.531 303.328h6.737c.4 0 .725.325.725.727a.725.725 0 0 1-.725.726h-6.737a.726.726 0 0 1-.725-.726.724.724 0 0 1 .725-.727z"/><path fill="#0092DA" stroke="#0092DA" stroke-width=".074" d="M287.63 301.394c0 .554-.506 1.001-1.13 1.002-.625 0-1.13-.447-1.13-1.001v-.001c0-.553.505-1.001 1.13-1.001.623-.002 1.129.447 1.13 1.001z"/><path fill="#0092DA" stroke="#0092DA" stroke-width="1.161" d="M284.323 304.469h2.902c.071 0 .131.059.131.129a.13.13 0 0 1-.131.131h-2.902a.13.13 0 0 1-.13-.131.128.128 0 0 1 .13-.129z"/></svg>