<svg xmlns="http://www.w3.org/2000/svg" width="580" height="580" xml:space="preserve"><path fill="#603813" d="M291.904 278.331c0-.435.141-.791.422-1.068s.644-.416 1.086-.416c.475 0 .869.146 1.183.44.314.293.471.625.471.996 0 .273-.062.547-.187.82a1.479 1.479 0 0 1-.592.658c-.27.165-.545.248-.826.248-.387 0-.742-.165-1.068-.495a1.62 1.62 0 0 1-.489-1.183zm-1.69 14.398-.024-.785 1.363-.181c.201-.057.34-.139.417-.247.076-.109.114-.353.114-.73v-.133c0-.097.006-.271.018-.525.013-.253.019-.477.019-.67 0-.153-.012-.446-.036-.881l.012-.604-.012-.567.024-1.967c0-.25-.024-.507-.073-.772-.088-.121-.249-.225-.482-.313-.233-.089-.64-.153-1.219-.193v-.676c.829-.048 1.557-.221 2.185-.519.426-.193.889-.535 1.388-1.025h.809c.032.998.048 2.293.048 3.886l-.084 4.924c0 .338.016.644.048.917.25.089.656.177 1.219.266.218.032.391.072.52.121l-.013.663a15.17 15.17 0 0 1-.482.013c-.121 0-.306-.009-.555-.024a70.886 70.886 0 0 0-3.295-.061c-.395 0-.776.015-1.146.042-.373.026-.626.041-.763.041z"/></svg>