<svg xmlns="http://www.w3.org/2000/svg" width="580" height="580" xml:space="preserve"><path fill="none" stroke="#93278F" stroke-width="1.812" stroke-linecap="round" stroke-linejoin="round" d="M299.145 274.652a4.03 4.03 0 1 1-8.06 0 4.03 4.03 0 1 1 8.06 0z"/><g opacity=".4" fill="#FFF" stroke="#FFF" stroke-width=".348"><path d="m293.369 270.787-1.696-3.147 2.117-1.387h2.03l.183 4.217-2.634.317z" stroke-width=".48559919999999995"/><path d="m296.875 270.787 1.694-3.147-2.116-1.387h-2.366l.151 4.217 2.637.317z" stroke-width=".48559919999999995"/></g><path opacity=".6" fill="none" stroke="#93278F" stroke-width=".486" d="m293.789 266.254-2.115 1.387 1.694 3.146 1.754-.211 1.754.211 1.694-3.146-2.116-1.387h-2.665z"/><path opacity=".6" fill="none" stroke="#93278F" stroke-width=".486" stroke-linejoin="bevel" d="m293.789 267.989-2.115-.348 1.694 3.146 1.754-.211 1.754.211 1.694-3.146-2.116.348h-2.665z"/><path opacity=".6" fill="none" stroke="#93278F" stroke-width=".486" d="m293.756 267.988-.388 2.799 1.754-.211 1.754.211-.3-2.784-.209-1.749h-2.452l-.159 1.734z"/></svg>