<svg xmlns="http://www.w3.org/2000/svg" width="580" height="580" xml:space="preserve"><path fill="#FFF" stroke="#93278F" stroke-width=".629" stroke-linecap="round" stroke-linejoin="round" d="M282.151 286.066v13.648h12.354v-13.648h-12.354zm6.107 3.981a3.002 3.002 0 0 1 0 6.003c-1.656 0-3.002-1.345-3.002-3.001s1.346-3.002 3.002-3.002z"/><path fill="none" stroke="#93278F" stroke-width=".629" stroke-linecap="round" stroke-linejoin="round" d="M282.151 286.066v13.648h12.354v-13.648h-12.354zm6.107 3.981a3.002 3.002 0 0 1 0 6.003c-1.656 0-3.002-1.345-3.002-3.001s1.346-3.002 3.002-3.002z"/><g fill="none" stroke="#93278F" stroke-linecap="round"><path stroke-width=".628662" stroke-linejoin="round" d="M291.259 293.048a3 3 0 1 1-6.002 0 3 3 0 1 1 6.002 0z"/><path stroke-width=".5867512000000001" d="M285.388 291.549v3.136"/><path stroke-width="1.25103738" stroke-linejoin="round" d="M291.024 293.117h-.626"/></g><path fill="none" stroke="#93278F" stroke-width=".75" stroke-linecap="round" stroke-linejoin="round" d="M291.46 287.646c0 .153-.124.278-.277.278a.278.278 0 0 1 0-.556c.153 0 .277.125.277.278h0zM293.179 287.646a.278.278 0 1 1-.556 0 .278.278 0 0 1 .556 0h0zM289.742 287.646a.279.279 0 0 1-.556 0 .279.279 0 0 1 .556 0h0z"/></svg>