<svg xmlns="http://www.w3.org/2000/svg" width="580" height="580" xml:space="preserve"><path opacity=".75" fill="#603813" d="M288.77 277.448c-.539 0-.997.459-.997.998v13.09c.001.05 11.528.027 11.525 0v-13.09c0-.539-.46-.998-.997-.998h-9.531zm1.964.938c.041 0 .076.015.104.045.029.03.043.07.043.121s-.014.09-.043.12a.137.137 0 0 1-.104.045.143.143 0 0 1-.102-.045c-.027-.03-.043-.069-.043-.12s.016-.091.043-.121a.135.135 0 0 1 .102-.045zm2.305.002a.14.14 0 0 1 .104.045c.027.03.042.07.042.121s-.015.091-.042.121c-.029.029-.062.043-.104.043s-.076-.014-.104-.043a.167.167 0 0 1-.037-.078l-.011.033a.717.717 0 0 1-.046.092c-.016-.01-.035-.022-.061-.033a.195.195 0 0 0-.081-.016.093.093 0 0 0-.065.024c-.018.016-.027.041-.027.075v.042h.219v.264h-.219v.591h-.294v-.909a.758.758 0 0 1 .005-.065.347.347 0 0 1 .102-.218.328.328 0 0 1 .229-.076c.02 0 .04.001.062.005a.346.346 0 0 1 .064.013.278.278 0 0 1 .092.048c.016.012.023.028.031.046a.153.153 0 0 1 .037-.079.135.135 0 0 1 .104-.046zm-.141.124a.202.202 0 0 0 0 .085.14.14 0 0 0 .008-.04.125.125 0 0 0-.008-.045zm-1.544-.117a.478.478 0 0 1 .127.018c.036.01.067.025.093.047s.039.052.039.093a.192.192 0 0 1-.019.071.616.616 0 0 1-.046.093.468.468 0 0 0-.061-.033.181.181 0 0 0-.081-.017.1.1 0 0 0-.066.022c-.017.016-.026.042-.026.076v.042h.219v.264h-.219v.591h-.295v-.847l.002-.062.002-.066a.358.358 0 0 1 .102-.219.336.336 0 0 1 .229-.073zm.375.012c.025 0 .047.002.07.008.021.005.041.015.058.029s.031.032.04.056a.228.228 0 0 1 .016.093v1.062a.313.313 0 0 1-.107.023.223.223 0 0 1-.104-.02.122.122 0 0 1-.056-.051.15.15 0 0 1-.023-.074 1.184 1.184 0 0 1-.004-.087v-1.026l.037-.005c.01-.002.022-.005.037-.005.011-.003.023-.003.036-.003zm-1.931.024c.024 0 .046.002.068.007s.042.015.059.029a.153.153 0 0 1 .042.056c.01.023.016.056.016.093v.569a.31.31 0 0 1 .023-.077.471.471 0 0 1 .042-.075l.08-.123c.019-.028.039-.053.062-.073s.054-.031.093-.031c.023 0 .045.003.067.011a.458.458 0 0 1 .058.025.387.387 0 0 1 .053.037l-.203.339.24.437a.425.425 0 0 1-.179.048.17.17 0 0 1-.109-.031.29.29 0 0 1-.07-.077l-.094-.158a.365.365 0 0 1-.061-.155v.4h-.297v-1.242a.25.25 0 0 0 .038-.006l.036-.004c.01.002.024.001.036.001zm-.44.015a.26.26 0 0 1 .068.009.159.159 0 0 1 .059.027.135.135 0 0 1 .041.057.225.225 0 0 1 .016.093v1.062a.328.328 0 0 1-.109.023.23.23 0 0 1-.105-.02.137.137 0 0 1-.056-.05.16.16 0 0 1-.022-.073 1.25 1.25 0 0 1-.003-.088v-1.026a.258.258 0 0 0 .037-.006.348.348 0 0 1 .036-.005c.012-.003.025-.003.038-.003zm5.71.002a.488.488 0 0 1 .128.017.271.271 0 0 1 .092.049.102.102 0 0 1 .035.062v-.1l.039-.005a.492.492 0 0 1 .035-.006l.039-.001c.023 0 .045.002.068.007a.15.15 0 0 1 .058.028c.019.014.03.033.042.058a.266.266 0 0 1 .014.092v1.062a.303.303 0 0 1-.106.023.225.225 0 0 1-.105-.02.13.13 0 0 1-.056-.052.157.157 0 0 1-.023-.073 1.212 1.212 0 0 1-.004-.088v-.877a.534.534 0 0 1-.062.145.348.348 0 0 0-.062-.033.191.191 0 0 0-.08-.017.096.096 0 0 0-.064.024c-.02.016-.027.041-.027.075v.042h.219v.263h-.219v.591h-.295v-.909c.001-.027.004-.05.005-.066a.35.35 0 0 1 .102-.219.336.336 0 0 1 .227-.072zm.256.177c.002-.007.002-.015.002-.02 0-.011 0-.02-.002-.029v.049zm1.633-.176a.45.45 0 0 1 .126.018.278.278 0 0 1 .092.048c.025.021.037.052.037.092a.21.21 0 0 1-.016.071.677.677 0 0 1-.047.093.338.338 0 0 0-.061-.032.177.177 0 0 0-.082-.018.094.094 0 0 0-.064.024c-.017.016-.025.041-.025.075v.043h.219v.264h-.219v.59h-.295v-.909c0-.027.002-.048.004-.065a.342.342 0 0 1 .102-.219.332.332 0 0 1 .229-.075zm-2.506.002c.025 0 .049.003.07.008a.142.142 0 0 1 .1.085c.01.024.016.055.016.093v1.069h-.223a.076.076 0 0 1-.041-.013c-.01-.008-.016-.026-.016-.053a.24.24 0 0 1-.066.059.225.225 0 0 1-.113.025c-.033 0-.066-.007-.1-.02s-.061-.036-.088-.068a.366.366 0 0 1-.063-.133.785.785 0 0 1-.023-.211c0-.085.007-.157.022-.216a.417.417 0 0 1 .061-.144c.026-.036.057-.062.089-.079a.227.227 0 0 1 .217.006c.014.007.023.015.032.023l.016.016v-.433l.038-.006a.266.266 0 0 1 .035-.005c.013-.003.025-.003.037-.003zm1.399.013c.023 0 .047.002.069.007s.042.015.058.028a.133.133 0 0 1 .041.058.223.223 0 0 1 .016.092v.569a.432.432 0 0 1 .066-.152l.078-.122a.515.515 0 0 1 .062-.073.135.135 0 0 1 .094-.031.18.18 0 0 1 .066.012.458.458 0 0 1 .058.025c.021.011.036.022.054.035l-.202.34.241.438a.427.427 0 0 1-.182.047.18.18 0 0 1-.109-.03.234.234 0 0 1-.068-.078l-.096-.157a.943.943 0 0 1-.039-.078.334.334 0 0 1-.023-.079v.401h-.295v-1.241l.037-.005.035-.006h.039zm1.892 0c.025 0 .049.002.07.007s.041.015.059.028a.15.15 0 0 1 .04.058.223.223 0 0 1 .016.092v1.068h-.222a.073.073 0 0 1-.041-.012c-.011-.008-.018-.025-.018-.053a.183.183 0 0 1-.064.058.27.27 0 0 1-.213.006.228.228 0 0 1-.087-.068c-.027-.033-.05-.078-.065-.133s-.023-.126-.023-.211a.95.95 0 0 1 .021-.216.476.476 0 0 1 .062-.143.241.241 0 0 1 .088-.079.238.238 0 0 1 .169-.016.244.244 0 0 1 .096.06v-.433l.039-.005a.826.826 0 0 1 .035-.006c.013-.002.026-.002.038-.002zm-4.179.345c.081 0 .151.015.212.044a.218.218 0 0 1 .065.047.096.096 0 0 1 .026.065c0 .021-.006.046-.018.076s-.025.058-.043.085a.434.434 0 0 0-.092-.066.204.204 0 0 0-.101-.025c-.042 0-.063.014-.063.043 0 .019.009.033.024.043s.036.019.058.025l.078.024a.24.24 0 0 1 .137.112.267.267 0 0 1 .023.121c0 .095-.029.17-.084.226-.056.056-.137.085-.243.085a.491.491 0 0 1-.144-.018.39.39 0 0 1-.08-.034c-.025-.015-.043-.032-.053-.05s-.014-.037-.014-.057c0-.031.004-.061.016-.09.014-.029.028-.059.043-.087.013.013.025.025.041.036.016.012.033.021.05.031s.036.016.055.022a.208.208 0 0 0 .055.007c.024 0 .044-.004.055-.014a.05.05 0 0 0 .016-.039.049.049 0 0 0-.023-.043.282.282 0 0 0-.06-.027l-.08-.029a.305.305 0 0 1-.078-.044.273.273 0 0 1-.06-.072.238.238 0 0 1-.024-.118.31.31 0 0 1 .025-.123.25.25 0 0 1 .068-.088.285.285 0 0 1 .096-.051.35.35 0 0 1 .117-.017zm-2.854.001c.023 0 .047.002.069.008a.151.151 0 0 1 .058.029.132.132 0 0 1 .041.056.23.23 0 0 1 .016.094v.626c0 .026-.002.058-.004.096a.614.614 0 0 1-.013.104.305.305 0 0 1-.286.249c-.043 0-.072-.009-.092-.029a.155.155 0 0 1-.041-.085.346.346 0 0 1-.006-.049l-.005-.07a.22.22 0 0 0 .077-.021.14.14 0 0 0 .046-.041.16.16 0 0 0 .021-.059.38.38 0 0 0 .007-.071v-.825a.156.156 0 0 0 .036-.005c.012-.002.023-.005.037-.006l.039-.001zm2.305.002c.023 0 .046.002.068.008a.135.135 0 0 1 .098.085.21.21 0 0 1 .016.093v.626c0 .026 0 .058-.003.097a.46.46 0 0 1-.013.103c-.011.047-.027.087-.05.119a.296.296 0 0 1-.163.118.275.275 0 0 1-.072.013c-.043 0-.074-.011-.094-.03a.143.143 0 0 1-.038-.085c-.005-.016-.007-.031-.008-.048s-.004-.042-.005-.071a.19.19 0 0 0 .076-.021.104.104 0 0 0 .046-.041.136.136 0 0 0 .022-.057.415.415 0 0 0 .006-.073v-.825c.011 0 .023-.002.037-.004a.535.535 0 0 1 .036-.006l.041-.001zm1.279.276c-.035 0-.058.018-.07.053a.41.41 0 0 0-.02.145c0 .028.004.055.005.08.003.024.008.045.016.063s.019.032.03.043c.01.011.025.017.043.017a.112.112 0 0 0 .029-.003l.014-.004v-.38a.055.055 0 0 0-.022-.01c-.009-.004-.017-.004-.025-.004zm3.277.013c-.026.003-.047.022-.057.053a.431.431 0 0 0-.02.145c0 .028.002.054.004.078.006.024.01.046.016.063a.126.126 0 0 0 .03.044c.013.01.026.016.044.016a.22.22 0 0 0 .029-.002l.014-.004v-.38a.054.054 0 0 0-.023-.01c-.009-.002-.017-.002-.024-.002l-.013-.001zm-6.183 1.07c.023 0 .045.003.067.009a.158.158 0 0 1 .06.028c.016.013.03.033.041.057.01.024.016.054.016.092v1.062a.328.328 0 0 1-.109.023.228.228 0 0 1-.105-.02.134.134 0 0 1-.057-.05c-.012-.021-.02-.046-.021-.074s-.004-.058-.004-.088v-1.026l.036-.005.036-.006c.012-.002.026-.002.04-.002zm.414 0c.023 0 .047.003.068.009a.156.156 0 0 1 .058.028c.017.013.03.033.04.057a.205.205 0 0 1 .016.092v.57a.45.45 0 0 1 .066-.152l.08-.122a.348.348 0 0 1 .062-.074c.021-.021.053-.031.092-.031a.327.327 0 0 1 .178.073l-.203.34.24.438a.405.405 0 0 1-.178.047.183.183 0 0 1-.111-.03.29.29 0 0 1-.068-.078l-.096-.157a.566.566 0 0 1-.062-.157v.401h-.295v-1.241a.47.47 0 0 0 .037-.005l.037-.006c.011-.002.024-.002.039-.002zm-.844.009c.024 0 .047.002.068.008s.041.015.059.028c.016.014.03.033.041.057.01.024.016.055.016.092v1.069h-.222a.063.063 0 0 1-.04-.012c-.013-.008-.019-.025-.019-.053a.208.208 0 0 1-.065.058.228.228 0 0 1-.113.025.22.22 0 0 1-.187-.087.393.393 0 0 1-.064-.133.78.78 0 0 1-.024-.211c0-.085.008-.158.023-.216a.43.43 0 0 1 .062-.143.227.227 0 0 1 .194-.104c.023 0 .045.002.062.008.02.006.035.014.049.021a.138.138 0 0 1 .031.021c.01.008.016.014.018.018v-.434a.52.52 0 0 0 .037-.004l.036-.006.038-.002zm-.812.001a.467.467 0 0 1 .127.018.263.263 0 0 1 .091.048.113.113 0 0 1 .039.091.198.198 0 0 1-.018.071.625.625 0 0 1-.046.094.63.63 0 0 0-.061-.033.194.194 0 0 0-.082-.016.09.09 0 0 0-.064.024c-.018.016-.026.041-.026.075v.042h.219v.263h-.219v.592h-.295v-.845l.001-.064c.001-.027.001-.049.003-.065a.347.347 0 0 1 .102-.219.323.323 0 0 1 .229-.076zm7.094.022c.04 0 .075.015.103.045.029.03.043.071.043.122s-.014.09-.043.12c-.027.029-.062.044-.103.044s-.073-.015-.102-.044-.042-.069-.042-.12.014-.092.042-.122a.136.136 0 0 1 .102-.045zm-3.836.001c.024 0 .048.002.07.008a.153.153 0 0 1 .059.028c.016.014.03.032.042.056a.272.272 0 0 1 .014.093v.569a.322.322 0 0 1 .023-.077.509.509 0 0 1 .042-.075l.079-.122c.021-.028.039-.053.062-.074.022-.021.054-.031.094-.031.022 0 .045.003.066.011a.338.338 0 0 1 .112.062l-.203.339.24.437a.411.411 0 0 1-.178.047c-.047 0-.084-.01-.111-.03s-.049-.045-.07-.078l-.094-.158c-.018-.027-.031-.052-.041-.076s-.018-.049-.021-.079v.401h-.295v-1.243l.035-.005a.396.396 0 0 1 .036-.004c.015.002.029.001.039.001zm1.077.004a.456.456 0 0 1 .126.018.286.286 0 0 1 .092.047.118.118 0 0 1 .039.092.213.213 0 0 1-.019.072.616.616 0 0 1-.046.093.63.63 0 0 0-.061-.033.204.204 0 0 0-.082-.017c-.025 0-.049.007-.064.023-.018.016-.025.042-.025.076v.042h.219v.264h-.219v.592h-.296v-.847l.001-.063c0-.027.002-.048.004-.065a.337.337 0 0 1 .101-.219.335.335 0 0 1 .23-.075zm1.436.025c.022 0 .047.002.066.008a.15.15 0 0 1 .061.029.15.15 0 0 1 .04.056.27.27 0 0 1 .015.093v1.069h-.222a.057.057 0 0 1-.038-.014c-.013-.008-.018-.025-.018-.053a.239.239 0 0 1-.066.058.233.233 0 0 1-.115.026.277.277 0 0 1-.098-.02.223.223 0 0 1-.088-.068.359.359 0 0 1-.064-.133.775.775 0 0 1-.024-.211c0-.084.008-.156.023-.215a.437.437 0 0 1 .062-.144.227.227 0 0 1 .257-.094.255.255 0 0 1 .08.043.114.114 0 0 1 .016.016v-.433l.038-.005c.011-.002.022-.005.035-.005.013-.003.026-.003.04-.003zm.412 0c.025 0 .047.002.068.008a.156.156 0 0 1 .061.029.148.148 0 0 1 .039.056.212.212 0 0 1 .017.093v.57a.411.411 0 0 1 .065-.154l.08-.122c.019-.028.039-.052.062-.072s.054-.032.093-.032c.023 0 .045.005.066.012a.33.33 0 0 1 .112.061l-.203.339.24.438a.402.402 0 0 1-.18.047.18.18 0 0 1-.108-.029.31.31 0 0 1-.07-.078l-.094-.158a.512.512 0 0 1-.04-.076.32.32 0 0 1-.022-.081v.403h-.297v-1.243l.038-.005c.01-.002.023-.005.035-.005l.038-.001zm-3.445.329c.115 0 .197.027.247.082s.075.141.075.258v.345a.868.868 0 0 0 .024.188.648.648 0 0 1-.07.019c-.01.002-.021.002-.032.003l-.038.001c-.08 0-.127-.028-.141-.082a.201.201 0 0 1-.072.055.269.269 0 0 1-.124.024.278.278 0 0 1-.087-.014.183.183 0 0 1-.076-.045.24.24 0 0 1-.051-.081.323.323 0 0 1-.018-.123c0-.068.014-.123.044-.164a.296.296 0 0 1 .108-.092c.044-.021.09-.035.135-.041s.086-.009.117-.009v-.025a.104.104 0 0 0-.008-.04c-.005-.01-.012-.017-.02-.022s-.018-.008-.029-.01c-.012-.001-.023-.003-.035-.003a.332.332 0 0 0-.104.016.68.68 0 0 0-.111.053.3.3 0 0 1-.043-.08.164.164 0 0 1-.016-.058.09.09 0 0 1 .017-.051.143.143 0 0 1 .06-.049c.026-.017.062-.031.107-.04s.092-.015.141-.015zm2.114.046c.079 0 .151.015.21.044a.206.206 0 0 1 .066.047.087.087 0 0 1 .027.064.224.224 0 0 1-.018.075c-.013.03-.025.059-.043.086a.462.462 0 0 0-.094-.067.205.205 0 0 0-.099-.025c-.042 0-.065.015-.065.044 0 .019.01.034.025.044a.24.24 0 0 0 .06.025l.077.024a.224.224 0 0 1 .16.232c0 .094-.029.17-.084.227s-.138.083-.244.083a.464.464 0 0 1-.144-.017.4.4 0 0 1-.079-.035.14.14 0 0 1-.054-.05.11.11 0 0 1-.015-.058c0-.031.007-.061.018-.09.013-.029.027-.059.043-.087a.207.207 0 0 0 .041.036.293.293 0 0 0 .159.061c.025 0 .045-.005.056-.016a.048.048 0 0 0 .017-.039c0-.018-.01-.031-.025-.042-.018-.01-.035-.02-.059-.028a3.101 3.101 0 0 1-.08-.029.24.24 0 0 1-.138-.115.25.25 0 0 1-.024-.118c0-.047.009-.089.024-.124a.244.244 0 0 1 .067-.087c.027-.023.061-.041.098-.052s.077-.013.117-.013zm2.216.02c.025 0 .047.003.069.008.022.006.042.016.059.029s.03.032.04.056a.213.213 0 0 1 .016.093v.626l-.002.097c-.004.038-.007.072-.015.103a.349.349 0 0 1-.048.119.355.355 0 0 1-.078.077.292.292 0 0 1-.158.054c-.043 0-.074-.01-.094-.03s-.035-.048-.041-.085c-.003-.016-.004-.031-.006-.049-.002-.017-.002-.04-.004-.069a.229.229 0 0 0 .076-.022.106.106 0 0 0 .045-.041.16.16 0 0 0 .023-.057.4.4 0 0 0 .006-.071v-.825c.012 0 .024-.003.036-.005l.038-.005c.013-.003.025-.003.038-.003zm-6.43.189c-.027.004-.046.021-.057.053a.624.624 0 0 0-.014.223.272.272 0 0 0 .016.064.13.13 0 0 0 .029.044.059.059 0 0 0 .043.016.117.117 0 0 0 .043-.007v-.381c-.006-.004-.012-.008-.021-.009-.01-.002-.019-.002-.026-.002l-.013-.001zm4.971.053c-.033 0-.057.018-.069.053a.465.465 0 0 0-.019.146c0 .028.002.055.004.079a.263.263 0 0 0 .016.063.118.118 0 0 0 .03.043c.011.01.026.016.044.016a.085.085 0 0 0 .027-.004.058.058 0 0 0 .016-.004v-.38a.094.094 0 0 0-.023-.01l-.026-.002zm-2.826.174a.293.293 0 0 0-.053.011.122.122 0 0 0-.043.02.081.081 0 0 0-.03.036.124.124 0 0 0-.013.055c0 .027.006.048.02.062.012.015.029.022.051.022.02 0 .035-.005.049-.014a.054.054 0 0 0 .02-.043v-.149zm2.006 2.698c.039 0 .074.016.103.045.027.03.042.07.042.121a.177.177 0 0 1-.042.122.14.14 0 0 1-.103.044.132.132 0 0 1-.102-.044.168.168 0 0 1-.045-.122c0-.05.016-.09.045-.121a.129.129 0 0 1 .102-.045zm-3.139.017a.44.44 0 0 1 .126.018.25.25 0 0 1 .092.047c.027.021.039.052.039.092 0 .018-.006.042-.018.072s-.027.061-.046.092a.456.456 0 0 0-.06-.032.208.208 0 0 0-.082-.018.092.092 0 0 0-.065.024c-.019.016-.027.042-.027.076v.042h.219v.264h-.219v.592h-.294v-.847c0-.016 0-.037.002-.064 0-.027 0-.048.002-.065a.358.358 0 0 1 .102-.219.327.327 0 0 1 .229-.074zm3.748 0a.45.45 0 0 1 .126.018c.035.01.065.026.092.047a.115.115 0 0 1 .039.092.197.197 0 0 1-.02.072.607.607 0 0 1-.046.092.456.456 0 0 0-.06-.032.205.205 0 0 0-.082-.018.093.093 0 0 0-.065.024c-.017.016-.024.042-.024.076v.042h.217v.264h-.217v.592h-.297v-.911a.36.36 0 0 1 .006-.065.346.346 0 0 1 .1-.219c.055-.05.131-.074.231-.074zm-2.71.012a.31.31 0 0 1 .069.009.161.161 0 0 1 .061.028c.016.013.027.033.041.057a.268.268 0 0 1 .014.093v1.062a.328.328 0 0 1-.109.023.23.23 0 0 1-.105-.02.144.144 0 0 1-.056-.05c-.013-.021-.021-.046-.022-.074l-.002-.088v-1.025a.322.322 0 0 0 .035-.006l.037-.005c.013-.002.024-.004.037-.004zm.414 0c.023 0 .046.004.069.009a.153.153 0 0 1 .059.028.147.147 0 0 1 .041.057c.01.024.016.055.016.093v.57a.418.418 0 0 1 .021-.077.487.487 0 0 1 .043-.076l.08-.123a.373.373 0 0 1 .062-.073.133.133 0 0 1 .094-.031c.022 0 .044.004.066.012s.04.016.058.025.037.022.055.035l-.203.34.238.438a.406.406 0 0 1-.18.047c-.046 0-.082-.009-.107-.029a.265.265 0 0 1-.07-.078l-.096-.157a.612.612 0 0 1-.039-.076.283.283 0 0 1-.021-.081v.403h-.299v-1.242a.437.437 0 0 1 .075-.011c.012-.001.025-.003.038-.003zm-.921.378c.082 0 .154.015.213.044.027.013.049.029.066.047s.025.04.025.065a.192.192 0 0 1-.018.076.334.334 0 0 1-.043.084.397.397 0 0 0-.092-.066.215.215 0 0 0-.1-.025c-.043 0-.062.014-.062.044 0 .019.008.033.023.043s.035.019.059.026l.076.023a.253.253 0 0 1 .078.041.25.25 0 0 1 .061.073.29.29 0 0 1 .021.12.304.304 0 0 1-.084.226c-.055.056-.135.084-.242.084a.448.448 0 0 1-.143-.018c-.033-.012-.062-.022-.083-.034a.147.147 0 0 1-.052-.05.123.123 0 0 1-.016-.057c0-.031.006-.061.02-.09a.627.627 0 0 1 .043-.086.333.333 0 0 0 .039.036.427.427 0 0 0 .106.052.197.197 0 0 0 .055.007c.024 0 .043-.004.055-.014a.053.053 0 0 0-.007-.082.348.348 0 0 0-.061-.027l-.078-.028a.343.343 0 0 1-.078-.042.224.224 0 0 1-.061-.074.249.249 0 0 1-.023-.117c0-.047.008-.089.024-.124s.04-.065.066-.088a.265.265 0 0 1 .099-.05.337.337 0 0 1 .114-.019zm2.028 0c.116 0 .198.027.248.082.051.054.075.14.075.258v.345c0 .03.001.062.005.097.006.035.011.065.018.091l-.038.011c-.011.003-.022.006-.031.007l-.032.004-.039.001c-.08 0-.125-.027-.139-.081a.237.237 0 0 1-.072.054.271.271 0 0 1-.124.025.274.274 0 0 1-.087-.014.202.202 0 0 1-.076-.045.247.247 0 0 1-.053-.082.365.365 0 0 1-.019-.123c0-.068.016-.123.046-.164a.283.283 0 0 1 .109-.092.4.4 0 0 1 .134-.041.928.928 0 0 1 .117-.009v-.025a.089.089 0 0 0-.008-.04.052.052 0 0 0-.021-.023.057.057 0 0 0-.029-.011c-.012-.002-.023-.002-.036-.002a.326.326 0 0 0-.102.017.583.583 0 0 0-.112.053.356.356 0 0 1-.043-.081.207.207 0 0 1-.014-.059c0-.017.004-.034.014-.05a.169.169 0 0 1 .062-.05.36.36 0 0 1 .108-.04.798.798 0 0 1 .139-.013zm.553.018a.3.3 0 0 1 .067.008.14.14 0 0 1 .059.027c.018.014.03.033.042.058a.26.26 0 0 1 .015.092v.627l-.002.096c-.004.039-.006.073-.014.104a.327.327 0 0 1-.127.196.275.275 0 0 1-.16.054c-.041 0-.071-.01-.092-.029a.165.165 0 0 1-.041-.086c-.002-.016-.006-.031-.006-.049a1.58 1.58 0 0 1-.006-.07.237.237 0 0 0 .077-.021.123.123 0 0 0 .046-.041.119.119 0 0 0 .021-.057.375.375 0 0 0 .008-.071v-.825l.037-.005a.154.154 0 0 1 .035-.005.305.305 0 0 1 .041-.003zm-.507.463a.247.247 0 0 0-.098.031.106.106 0 0 0-.04.089c0 .027.005.049.019.063a.061.061 0 0 0 .051.022.082.082 0 0 0 .047-.015c.014-.009.021-.023.021-.042v-.148zm-2.334.881c.04 0 .074.016.103.046s.042.07.042.121c0 .051-.014.09-.042.12a.134.134 0 0 1-.103.044.135.135 0 0 1-.104-.044.164.164 0 0 1-.043-.12c0-.05.015-.09.043-.121a.136.136 0 0 1 .104-.046zm3.232 0c.04 0 .074.016.103.046.027.03.042.07.042.121 0 .051-.015.09-.042.12-.028.03-.062.044-.103.044s-.075-.014-.103-.044a.16.16 0 0 1-.041-.091.485.485 0 0 1-.06.143.387.387 0 0 0-.062-.033.2.2 0 0 0-.082-.017.091.091 0 0 0-.063.024c-.019.016-.028.041-.028.075v.042h.219v.263h-.219v.591h-.293v-.846l.001-.063c0-.027 0-.049.003-.066a.36.36 0 0 1 .1-.219.334.334 0 0 1 .23-.075.46.46 0 0 1 .126.017.27.27 0 0 1 .092.048.096.096 0 0 1 .034.061.147.147 0 0 1 .146-.141zm-.145.143v.024l.001.028a.106.106 0 0 0-.001-.052zm1.422-.126a.47.47 0 0 1 .125.017c.037.01.066.027.092.048s.039.051.039.091a.213.213 0 0 1-.018.072.677.677 0 0 1-.047.093.335.335 0 0 0-.061-.033.19.19 0 0 0-.081-.017.104.104 0 0 0-.065.024c-.017.016-.027.041-.027.075v.042h.221v.263h-.221v.591h-.295v-.846l.001-.063c.001-.027.001-.049.005-.066a.35.35 0 0 1 .101-.219.349.349 0 0 1 .231-.072zm-5.618.014c.024 0 .047.002.07.008a.156.156 0 0 1 .058.028.14.14 0 0 1 .04.056.213.213 0 0 1 .016.093v1.069h-.222a.07.07 0 0 1-.04-.012c-.012-.008-.018-.026-.018-.054-.014.021-.035.041-.065.058s-.068.025-.113.025a.26.26 0 0 1-.101-.02.22.22 0 0 1-.087-.068.387.387 0 0 1-.064-.132.788.788 0 0 1-.024-.212c0-.084.008-.156.023-.215a.422.422 0 0 1 .062-.143.225.225 0 0 1 .256-.096c.02.006.035.013.049.021.014.007.024.015.033.022.008.008.014.013.016.017v-.433a.25.25 0 0 0 .038-.006l.035-.005.038-.001zm.575.377c.081 0 .152.015.212.044.026.013.05.029.066.048a.093.093 0 0 1 .025.063.176.176 0 0 1-.018.076.31.31 0 0 1-.043.085.41.41 0 0 0-.092-.066.204.204 0 0 0-.101-.025c-.042 0-.062.014-.062.044a.05.05 0 0 0 .023.044.24.24 0 0 0 .06.025l.078.024a.233.233 0 0 1 .136.113.263.263 0 0 1 .022.12.303.303 0 0 1-.084.227c-.055.056-.137.084-.242.084a.453.453 0 0 1-.143-.017.527.527 0 0 1-.082-.035.143.143 0 0 1-.053-.05.12.12 0 0 1-.016-.058c0-.031.007-.061.02-.09a.69.69 0 0 1 .043-.086c.012.013.025.025.041.036s.031.021.049.031a.22.22 0 0 0 .109.031c.026 0 .046-.005.055-.015a.05.05 0 0 0 .017-.038.05.05 0 0 0-.023-.043.23.23 0 0 0-.061-.028 2.861 2.861 0 0 0-.078-.029.295.295 0 0 1-.078-.043.263.263 0 0 1-.061-.073.245.245 0 0 1-.024-.117.264.264 0 0 1 .092-.211.271.271 0 0 1 .098-.052.338.338 0 0 1 .115-.019zm1.15 0c.059 0 .111.011.152.032.043.022.078.05.104.085a.457.457 0 0 1 .076.273v.023l-.001.032-.001.03c0 .01-.002.016-.004.021h-.395c.004.045.02.083.041.115.022.031.061.047.109.047.039 0 .074-.008.1-.022s.055-.032.08-.056c.014.024.026.05.039.082.014.03.019.058.019.082 0 .02-.004.039-.013.057a.155.155 0 0 1-.049.051.287.287 0 0 1-.086.04.548.548 0 0 1-.27-.002.312.312 0 0 1-.129-.069.398.398 0 0 1-.098-.145.65.65 0 0 1-.04-.243c0-.075.011-.139.031-.193a.39.39 0 0 1 .085-.134.28.28 0 0 1 .117-.078.315.315 0 0 1 .133-.028zm.781 0c.068 0 .125.012.172.035a.304.304 0 0 1 .116.096c.03.041.052.087.065.141a.767.767 0 0 1-.001.345.424.424 0 0 1-.066.148.331.331 0 0 1-.291.14.373.373 0 0 1-.174-.038.319.319 0 0 1-.115-.1.406.406 0 0 1-.066-.146.695.695 0 0 1 .002-.348.405.405 0 0 1 .072-.142c.032-.04.072-.072.119-.096s.102-.035.167-.035zm.914 0c.014 0 .029.001.043.005.015.003.027.01.039.018a.083.083 0 0 1 .029.03.091.091 0 0 1 .012.047.294.294 0 0 1-.008.063l-.014.068-.021.069a2.973 2.973 0 0 1-.023.061c-.021-.02-.041-.035-.061-.045s-.041-.016-.063-.016c-.026 0-.046.008-.059.023a.094.094 0 0 0-.021.061v.494h-.299v-.846l.031-.007a.195.195 0 0 1 .038-.005l.046-.001c.091 0 .146.029.166.088a.262.262 0 0 1 .025-.034.145.145 0 0 1 .035-.035.154.154 0 0 1 .047-.026.131.131 0 0 1 .058-.012zm1.469 0c.081 0 .151.015.213.044a.21.21 0 0 1 .064.048.093.093 0 0 1 .025.063c0 .021-.004.046-.016.076s-.026.059-.043.085a.473.473 0 0 0-.094-.066.198.198 0 0 0-.1-.025c-.041 0-.063.014-.063.044 0 .019.009.034.024.044a.22.22 0 0 0 .061.025l.076.024a.264.264 0 0 1 .076.04.22.22 0 0 1 .06.073.262.262 0 0 1 .023.12.307.307 0 0 1-.083.227c-.057.056-.137.084-.244.084a.453.453 0 0 1-.143-.017.693.693 0 0 1-.082-.035.129.129 0 0 1-.051-.05.102.102 0 0 1-.016-.058c0-.031.006-.061.018-.09.014-.029.027-.059.043-.086a.441.441 0 0 0 .09.067c.018.009.035.018.054.023s.038.008.056.008c.025 0 .043-.005.055-.015.012-.01.016-.023.016-.038a.05.05 0 0 0-.023-.043 1.995 1.995 0 0 0-.139-.057.33.33 0 0 1-.078-.043.263.263 0 0 1-.061-.073.246.246 0 0 1-.023-.117.272.272 0 0 1 .091-.211c.028-.023.061-.041.098-.052s.075-.019.116-.019zm-3.807.018c.023 0 .045.002.068.008a.172.172 0 0 1 .061.029.148.148 0 0 1 .039.056c.01.024.016.056.016.093v.625l-.003.097a.92.92 0 0 1-.013.104.372.372 0 0 1-.051.119.327.327 0 0 1-.076.077.274.274 0 0 1-.086.042.246.246 0 0 1-.074.013.14.14 0 0 1-.094-.029.153.153 0 0 1-.039-.085c-.002-.015-.005-.032-.006-.049a1.655 1.655 0 0 1-.006-.069.209.209 0 0 0 .076-.021.12.12 0 0 0 .047-.042.119.119 0 0 0 .021-.057c.006-.021.006-.045.006-.071v-.825c.012 0 .024-.003.037-.005a.195.195 0 0 1 .037-.005c.014-.005.026-.005.04-.005zm3.232 0a.26.26 0 0 1 .069.008.155.155 0 0 1 .059.029.161.161 0 0 1 .04.056.227.227 0 0 1 .017.093v.625c0 .026-.002.059-.004.097-.001.039-.008.073-.014.104a.315.315 0 0 1-.211.238.25.25 0 0 1-.073.013c-.044 0-.075-.01-.094-.029a.142.142 0 0 1-.04-.085.252.252 0 0 1-.007-.049c-.003-.018-.003-.04-.005-.069a.197.197 0 0 0 .075-.021.12.12 0 0 0 .047-.042.146.146 0 0 0 .023-.057.389.389 0 0 0 .005-.071v-.825c.012 0 .025-.003.037-.005a.207.207 0 0 1 .037-.005c.014-.005.026-.005.039-.005zm-2.593.203c-.045 0-.07.042-.07.128h.144c0-.049-.007-.083-.019-.1-.01-.019-.028-.028-.055-.028zm-1.882.039c-.034 0-.056.019-.068.054a.432.432 0 0 0-.019.144v.001c0 .028.001.054.004.078a.3.3 0 0 0 .016.064.116.116 0 0 0 .029.043.064.064 0 0 0 .045.016c.012 0 .02 0 .027-.002l.016-.004v-.382a.069.069 0 0 0-.023-.008c-.011-.002-.019-.004-.027-.004zm2.663.002a.053.053 0 0 0-.041.016c-.011.01-.02.025-.027.043s-.011.038-.014.061a.732.732 0 0 0 0 .142.242.242 0 0 0 .014.063.166.166 0 0 0 .027.044c.01.01.024.016.04.016.017 0 .03-.006.042-.017a.085.085 0 0 0 .023-.043c.008-.019.012-.041.014-.064s.004-.048.004-.074a.421.421 0 0 0-.018-.132c-.011-.037-.034-.055-.064-.055zM291 287.282c.041 0 .076.015.104.045.027.03.042.07.042.121s-.015.091-.042.121-.062.044-.104.044a.133.133 0 0 1-.102-.044c-.028-.03-.043-.07-.043-.121s.015-.091.043-.121a.131.131 0 0 1 .102-.045zm-1.282.014a.68.68 0 0 1 .127.018.275.275 0 0 1 .091.049c.025.021.038.052.038.093a.203.203 0 0 1-.018.071.655.655 0 0 1-.045.093.424.424 0 0 0-.061-.032.2.2 0 0 0-.082-.018.09.09 0 0 0-.064.024c-.018.016-.027.04-.027.075v.043h.219v.264h-.219v.59h-.295v-.846l.001-.063c0-.027.001-.049.003-.065a.354.354 0 0 1 .101-.219.339.339 0 0 1 .231-.077zm3.134 0c.02 0 .041.001.064.005.021.003.042.008.064.013a.29.29 0 0 1 .09.049c.027.021.039.052.039.093a.5.5 0 0 1-.065.164.26.26 0 0 0-.059-.032.206.206 0 0 0-.083-.018.093.093 0 0 0-.065.024c-.018.016-.025.04-.025.075v.043h.219v.264h-.219v.59h-.295v-.846c0-.015 0-.036.002-.063 0-.027 0-.049.002-.065a.35.35 0 0 1 .102-.219.326.326 0 0 1 .229-.077zm-2.763.015c.024 0 .047.002.07.008a.144.144 0 0 1 .058.029c.017.013.03.033.041.057a.225.225 0 0 1 .016.093v.57a.425.425 0 0 1 .065-.152l.081-.122a.458.458 0 0 1 .062-.074.128.128 0 0 1 .092-.031.22.22 0 0 1 .067.012.348.348 0 0 1 .111.06l-.201.34.239.438a.408.408 0 0 1-.179.047c-.047 0-.084-.01-.11-.03s-.05-.046-.069-.078l-.095-.157a.531.531 0 0 1-.041-.077.335.335 0 0 1-.022-.079v.401h-.296v-1.241a.271.271 0 0 0 .038-.006c.011-.002.023-.005.036-.005a.222.222 0 0 1 .037-.003zm1.299 0c.023 0 .046.002.067.008a.156.156 0 0 1 .061.029.144.144 0 0 1 .039.057.21.21 0 0 1 .016.093v1.062a.318.318 0 0 1-.107.023.213.213 0 0 1-.106-.021.145.145 0 0 1-.078-.123c-.003-.028-.003-.058-.003-.088v-1.025a.214.214 0 0 0 .035-.006c.012-.002.023-.005.037-.005a.167.167 0 0 1 .039-.004zm.828 0c.023 0 .048.002.069.008s.041.015.059.029a.208.208 0 0 1 .057.15v1.068h-.223a.07.07 0 0 1-.04-.012c-.012-.008-.017-.025-.017-.053a.199.199 0 0 1-.066.057.22.22 0 0 1-.113.025.254.254 0 0 1-.1-.019.212.212 0 0 1-.088-.067c-.027-.033-.047-.078-.062-.133s-.027-.126-.027-.211c0-.085.01-.157.024-.216a.43.43 0 0 1 .062-.143.217.217 0 0 1 .09-.079.22.22 0 0 1 .168-.017.38.38 0 0 1 .049.021.313.313 0 0 1 .031.023l.018.016v-.433a.258.258 0 0 0 .037-.006c.011-.002.021-.005.035-.005a.222.222 0 0 1 .037-.003zm3.854.067c.068 0 .127.014.177.041a.321.321 0 0 1 .12.12.554.554 0 0 1 .07.191c.014.075.021.16.021.255 0 .194-.031.344-.095.449-.062.105-.163.158-.299.158-.137 0-.236-.05-.301-.152-.063-.102-.098-.254-.098-.455 0-.094.01-.177.025-.252s.04-.139.071-.191a.353.353 0 0 1 .125-.121.388.388 0 0 1 .184-.043zm.858 0a.337.337 0 0 1 .293.144.468.468 0 0 1 .073.168c.016.066.024.14.024.222 0 .122-.016.227-.043.312a.633.633 0 0 1-.114.21.45.45 0 0 1-.339.158.323.323 0 0 1-.083-.009.116.116 0 0 1-.052-.026.1.1 0 0 1-.026-.043.27.27 0 0 1-.007-.061c0-.018.003-.039.004-.062l.008-.063a.31.31 0 0 0 .16.002.176.176 0 0 0 .066-.026.242.242 0 0 0 .059-.053.315.315 0 0 0 .045-.082.196.196 0 0 1-.076.035.355.355 0 0 1-.075.009.242.242 0 0 1-.212-.115.372.372 0 0 1-.055-.121.626.626 0 0 1 .009-.344.399.399 0 0 1 .08-.142.295.295 0 0 1 .115-.084.36.36 0 0 1 .146-.029zm-.861.271a.07.07 0 0 0-.047.017c-.011.011-.021.03-.028.056s-.012.062-.016.104a3.33 3.33 0 0 0-.004.158c0 .124.008.211.021.261.014.051.038.075.073.075.016 0 .03-.004.04-.016a.148.148 0 0 0 .03-.058.572.572 0 0 0 .016-.104c.004-.043.005-.096.005-.158s-.001-.115-.005-.158a.558.558 0 0 0-.016-.104.15.15 0 0 0-.03-.056c-.008-.011-.023-.017-.039-.017zm.865.002c-.021 0-.037.014-.051.043a.3.3 0 0 0-.02.127c0 .058.006.1.021.127.018.026.041.039.068.039a.239.239 0 0 0 .062-.008l.005-.054v-.057c0-.029 0-.056-.004-.082a.206.206 0 0 0-.04-.117.054.054 0 0 0-.041-.018zm-3.254.037c.08 0 .152.015.213.044a.208.208 0 0 1 .066.048c.017.018.025.04.025.065a.235.235 0 0 1-.017.076.822.822 0 0 1-.042.084.421.421 0 0 0-.094-.066.205.205 0 0 0-.099-.027c-.043 0-.063.016-.063.045 0 .019.008.033.023.043s.035.018.059.025l.076.024c.029.009.054.021.077.04s.044.042.06.072a.268.268 0 0 1 .023.122.31.31 0 0 1-.083.226c-.056.055-.138.083-.243.083a.449.449 0 0 1-.225-.051.163.163 0 0 1-.053-.051.105.105 0 0 1-.014-.057c0-.031.006-.061.019-.09.013-.03.024-.059.04-.087.012.012.025.025.042.036a.287.287 0 0 0 .05.031.263.263 0 0 0 .11.03c.025 0 .043-.005.055-.015a.054.054 0 0 0 .017-.038c0-.018-.009-.032-.024-.043a.297.297 0 0 0-.062-.027l-.078-.029a.274.274 0 0 1-.14-.117.278.278 0 0 1-.023-.118.282.282 0 0 1 .092-.211.289.289 0 0 1 .098-.052.483.483 0 0 1 .115-.015zm.729 0c.116 0 .198.027.247.082.051.054.076.14.076.258v.345a.854.854 0 0 0 .024.188l-.038.011a1.06 1.06 0 0 1-.065.011h-.037c-.08 0-.125-.027-.139-.081a.26.26 0 0 1-.197.081.274.274 0 0 1-.09-.015.202.202 0 0 1-.074-.045.217.217 0 0 1-.051-.081.372.372 0 0 1-.019-.124.28.28 0 0 1 .044-.164.299.299 0 0 1 .109-.092.423.423 0 0 1 .135-.041.902.902 0 0 1 .117-.009v-.025a.085.085 0 0 0-.007-.039.07.07 0 0 0-.022-.023c-.006-.006-.017-.009-.027-.011-.013-.002-.025-.002-.037-.002a.326.326 0 0 0-.102.017.577.577 0 0 0-.111.053.31.31 0 0 1-.044-.081.168.168 0 0 1-.016-.059c0-.017.007-.034.016-.05a.17.17 0 0 1 .062-.051c.027-.017.062-.029.107-.039s.091-.014.139-.014zm.913 0a.238.238 0 0 1 .181.089.356.356 0 0 1 .063.131.664.664 0 0 1 .025.204.857.857 0 0 1-.026.235.452.452 0 0 1-.066.146.217.217 0 0 1-.094.074.246.246 0 0 1-.101.02.215.215 0 0 1-.07-.01c-.02-.006-.033-.015-.049-.023-.014-.008-.023-.017-.03-.024-.009-.007-.013-.013-.013-.017v.437h-.293v-1.232l.031-.006a.583.583 0 0 1 .084-.008c.089 0 .145.028.166.084a.248.248 0 0 1 .07-.071.232.232 0 0 1 .122-.029zm-4.345.018c.023 0 .045.002.068.008a.16.16 0 0 1 .059.028.162.162 0 0 1 .041.058c.01.024.015.055.015.092v.627l-.003.096a.523.523 0 0 1-.014.104.315.315 0 0 1-.285.251c-.043 0-.074-.01-.094-.03s-.033-.048-.039-.086a.37.37 0 0 1-.008-.048c0-.017-.003-.041-.005-.07.032-.003.058-.01.077-.021s.035-.024.047-.041a.148.148 0 0 0 .021-.058.399.399 0 0 0 .006-.073v-.824a.592.592 0 0 0 .072-.01.297.297 0 0 1 .042-.003zm4.213.235c-.012 0-.021.002-.029.003l-.014.005v.357a.05.05 0 0 0 .021.009c.01.002.018.002.026.002.034 0 .056-.019.07-.057a.555.555 0 0 0-.003-.274c-.013-.03-.036-.045-.071-.045zm-3.145.008c-.027.003-.046.021-.057.052a.431.431 0 0 0-.02.145.479.479 0 0 0 .022.142.127.127 0 0 0 .027.044c.013.01.028.015.045.015a.165.165 0 0 0 .043-.006v-.381a.081.081 0 0 0-.021-.01l-.027-.001h-.012zm2.41.221a.276.276 0 0 0-.098.031.107.107 0 0 0-.029.034.139.139 0 0 0-.01.055c0 .027.004.048.017.062a.07.07 0 0 0 .054.023.099.099 0 0 0 .047-.014c.014-.01.02-.025.02-.044v-.147zm3.143.093c.041 0 .074.015.1.045.027.03.04.069.04.118a.184.184 0 0 1-.038.12.122.122 0 0 1-.102.046.127.127 0 0 1-.105-.046.192.192 0 0 1-.035-.12c0-.048.012-.087.039-.118s.06-.045.101-.045zm-5.021.788c.039 0 .073.015.102.045.028.03.043.071.043.122s-.015.091-.043.12-.062.044-.102.044a.14.14 0 0 1-.104-.044.17.17 0 0 1-.041-.12c0-.051.014-.092.041-.122a.137.137 0 0 1 .104-.045zm-1.161.016a.44.44 0 0 1 .126.018c.035.01.066.025.092.047.027.021.039.052.039.092a.24.24 0 0 1-.019.072c-.013.03-.026.062-.046.093a.372.372 0 0 0-.061-.033.197.197 0 0 0-.082-.016.09.09 0 0 0-.064.023c-.018.016-.027.042-.027.076v.042h.219v.264h-.219v.592h-.293V289.427a.832.832 0 0 1 .004-.065c.012-.096.046-.168.101-.219s.132-.076.23-.076zm1.77 0a.47.47 0 0 1 .125.018c.036.01.067.025.094.047a.117.117 0 0 1 .038.092.192.192 0 0 1-.019.072.616.616 0 0 1-.046.093.322.322 0 0 0-.06-.033.203.203 0 0 0-.082-.016.095.095 0 0 0-.066.023c-.019.016-.026.042-.026.076v.042h.221v.264h-.221v.592h-.295v-.847l.001-.063a.758.758 0 0 1 .005-.065c.012-.096.045-.168.1-.219s.131-.076.231-.076zm1.813.015c.022 0 .046.002.067.007a.161.161 0 0 1 .059.028c.016.014.03.032.041.057.01.024.016.055.016.093v.569a.375.375 0 0 1 .064-.153l.08-.122a.314.314 0 0 1 .063-.072.132.132 0 0 1 .094-.032.19.19 0 0 1 .065.012c.021.007.041.016.059.024.018.012.035.022.052.036l-.202.339.24.438a.409.409 0 0 1-.18.047c-.047 0-.084-.009-.109-.03a.28.28 0 0 1-.07-.078l-.094-.157c-.018-.027-.029-.052-.041-.076a.31.31 0 0 1-.021-.081v.403h-.297v-1.243l.037-.004c.012-.003.023-.005.037-.006s.025.001.04.001zm.884 0c.022 0 .046.002.07.007a.178.178 0 0 1 .057.028.13.13 0 0 1 .041.057.225.225 0 0 1 .016.093v1.062a.314.314 0 0 1-.107.022.228.228 0 0 1-.105-.018c-.025-.013-.045-.031-.058-.052s-.019-.046-.022-.073c-.002-.028-.002-.058-.002-.088v-1.026l.035-.004c.012-.003.021-.005.036-.006l.039-.002zm-3.867.376c.061 0 .111.011.154.032a.305.305 0 0 1 .159.209c.012.047.02.097.02.149v.022l-.001.031-.001.031c-.002.009-.002.016-.002.02h-.396c.006.046.02.083.043.115.021.031.057.048.107.048a.209.209 0 0 0 .1-.022.36.36 0 0 0 .08-.057l.038.082c.013.031.02.058.02.082 0 .02-.003.039-.013.056a.184.184 0 0 1-.047.052c-.021.015-.051.028-.088.038a.538.538 0 0 1-.27-.001.301.301 0 0 1-.129-.069.393.393 0 0 1-.098-.145.65.65 0 0 1-.039-.242c0-.074.011-.14.031-.194a.4.4 0 0 1 .082-.134.354.354 0 0 1 .25-.103zm1.761 0c.115 0 .198.028.248.083.049.054.075.139.075.257v.345a.84.84 0 0 0 .021.188.184.184 0 0 1-.036.011l-.031.008a.158.158 0 0 1-.032.003l-.037.001c-.08 0-.127-.027-.141-.081a.239.239 0 0 1-.072.055.283.283 0 0 1-.124.024.296.296 0 0 1-.089-.014.202.202 0 0 1-.125-.126.33.33 0 0 1-.021-.125c0-.068.015-.122.046-.163a.306.306 0 0 1 .11-.093.397.397 0 0 1 .133-.041c.044-.005.085-.008.117-.008v-.026a.086.086 0 0 0-.009-.039c-.006-.01-.011-.018-.02-.022-.008-.006-.019-.008-.029-.011-.012-.001-.023-.003-.036-.003a.306.306 0 0 0-.103.018.543.543 0 0 0-.113.052.38.38 0 0 1-.041-.08.198.198 0 0 1-.014-.06c0-.018.005-.033.014-.049a.169.169 0 0 1 .062-.05.3.3 0 0 1 .109-.04.627.627 0 0 1 .138-.014zm.714 0c.081 0 .151.016.212.045a.322.322 0 0 1 .066.046.1.1 0 0 1 .025.065c0 .02-.006.046-.018.075s-.024.06-.043.086a.436.436 0 0 0-.094-.067.199.199 0 0 0-.098-.025c-.043 0-.062.015-.062.044 0 .019.008.034.023.043a.22.22 0 0 0 .061.025c.021.008.049.016.076.025a.266.266 0 0 1 .077.039.218.218 0 0 1 .058.073c.016.03.023.07.023.119 0 .094-.027.17-.084.226-.055.056-.137.084-.243.084a.496.496 0 0 1-.144-.017.508.508 0 0 1-.079-.035.14.14 0 0 1-.054-.05.124.124 0 0 1-.016-.058c0-.03.007-.06.02-.09a.758.758 0 0 1 .042-.086c.012.012.024.025.04.036.016.012.033.021.051.031.018.009.034.017.053.022.021.005.037.009.056.009.026 0 .044-.006.056-.016a.052.052 0 0 0 .018-.039c0-.018-.008-.031-.025-.042a.248.248 0 0 0-.061-.028 8.08 8.08 0 0 0-.078-.03.326.326 0 0 1-.078-.042.233.233 0 0 1-.061-.073.243.243 0 0 1-.024-.118c0-.047.008-.089.024-.124a.261.261 0 0 1 .069-.087.268.268 0 0 1 .095-.052.576.576 0 0 1 .117-.014zm-1.941.018c.024 0 .046.002.069.007a.19.19 0 0 1 .059.029.161.161 0 0 1 .04.056.27.27 0 0 1 .016.094v.625c0 .026 0 .059-.003.097a.614.614 0 0 1-.013.104.346.346 0 0 1-.128.196.296.296 0 0 1-.158.054c-.042 0-.074-.009-.094-.029a.165.165 0 0 1-.041-.087c-.001-.016-.004-.031-.006-.047l-.006-.07a.23.23 0 0 0 .078-.021.128.128 0 0 0 .068-.099.382.382 0 0 0 .005-.071v-.824l.038-.006a.327.327 0 0 1 .035-.005c.014-.003.028-.003.041-.003zm-.536.204c-.049 0-.07.042-.07.128h.142c0-.049-.005-.082-.016-.1-.013-.02-.032-.028-.056-.028zm1.81.258a.259.259 0 0 0-.098.032.09.09 0 0 0-.029.035.11.11 0 0 0-.012.056c0 .026.008.048.02.062.012.014.028.021.051.021a.08.08 0 0 0 .047-.014.05.05 0 0 0 .021-.043v-.149z"/><path opacity=".75" fill="#603813" stroke="#603813" stroke-width=".455" stroke-linecap="round" stroke-linejoin="round" d="M287.729 292.155h11.513l.641.89h-12.789l.635-.89zM286.946 295.445h13.08v-1.531h-13.072l-.008 1.531z"/></svg>