<svg xmlns="http://www.w3.org/2000/svg" width="580" height="580" xml:space="preserve"><g fill="#93278F" stroke="#93278F" stroke-width=".145"><path d="M285.627 278.368a.644.644 0 0 0-.74.491l-2.885 12.614a.645.645 0 0 0 .486.774l5.062 1.157a.643.643 0 0 0 .773-.485l2.885-12.614a.643.643 0 0 0-.485-.773l-5.062-1.158-.034-.006zm.363.904 4.045.925a.552.552 0 0 1 .416.662l-1.232 5.386a.552.552 0 0 1-.663.415l-4.045-.925a.55.55 0 0 1-.414-.663l1.232-5.387a.55.55 0 0 1 .66-.413zm-1.882 7.286.707.162c.192.044.311.233.267.424l-.153.67a.354.354 0 0 1-.424.266l-.71-.163a.353.353 0 0 1-.266-.424l.153-.67a.355.355 0 0 1 .426-.265zm1.858.425.708.162c.192.044.31.233.266.424l-.153.67a.352.352 0 0 1-.424.266l-.708-.162a.353.353 0 0 1-.267-.424l.153-.67a.353.353 0 0 1 .425-.266zm1.859.426.71.162c.191.044.31.232.266.424l-.154.67a.352.352 0 0 1-.423.265l-.71-.162a.352.352 0 0 1-.266-.424l.153-.67a.352.352 0 0 1 .424-.265zm-4.144 1.009.71.162c.19.044.31.233.266.425l-.153.668a.354.354 0 0 1-.425.267l-.709-.162a.354.354 0 0 1-.267-.425l.153-.669a.357.357 0 0 1 .425-.266zm1.86.425.709.162c.191.044.31.233.265.425l-.152.668a.354.354 0 0 1-.424.267l-.708-.161a.354.354 0 0 1-.267-.425l.153-.669a.354.354 0 0 1 .424-.267zm1.858.426.71.162c.192.044.31.234.266.425l-.153.668a.355.355 0 0 1-.424.268l-.71-.162a.354.354 0 0 1-.265-.426l.153-.669a.35.35 0 0 1 .423-.266zm-4.144 1.01.71.162c.19.044.31.233.266.424l-.153.67a.355.355 0 0 1-.425.266l-.709-.162a.353.353 0 0 1-.267-.424l.154-.67a.353.353 0 0 1 .424-.266zm1.86.427.708.16c.191.044.31.233.266.424l-.153.67a.352.352 0 0 1-.424.266l-.709-.162a.354.354 0 0 1-.267-.424l.153-.669a.354.354 0 0 1 .426-.265zm1.858.424.71.162c.191.044.31.232.265.424l-.153.668a.352.352 0 0 1-.422.266l-.71-.163a.35.35 0 0 1-.266-.423l.153-.67a.352.352 0 0 1 .423-.264z" stroke-width=".14999815"/><path d="m290.176 277.795.732.169c.115.026.188.14.161.255l-.315 1.378a.214.214 0 0 1-.255.16l-.732-.167a.215.215 0 0 1-.161-.256l.315-1.378a.212.212 0 0 1 .255-.16z" stroke-width=".14999815"/><path opacity=".2" d="m283.318 285.719-1.316 5.754a.645.645 0 0 0 .486.774l5.062 1.157a.643.643 0 0 0 .773-.485l1.316-5.755-6.321-1.445zM285.627 278.368a.644.644 0 0 0-.74.491l-1.544 6.752 6.32 1.446 1.545-6.752a.643.643 0 0 0-.485-.773l-5.062-1.158-.034-.006z" stroke-width=".14999815"/></g></svg>