<svg xmlns="http://www.w3.org/2000/svg" width="580" height="580" xml:space="preserve"><g stroke="#0071BC"><path fill="#FFF" stroke-width=".8326089999999999" stroke-linecap="round" d="m284.85 287.037-.075 5.799"/><path fill="#FFF" stroke-width=".8326089999999999" d="m284.924 290.68 11.148.074"/><path fill="#FFF" stroke-width=".8326089999999999" stroke-linecap="round" d="m296.147 292.612.075-3.791"/><path fill="#FFF" stroke-width=".9573067199999999" d="M289.68 288.56h4.832a.521.521 0 0 1 0 1.04h-4.831a.52.52 0 0 1 0-1.04z"/><path fill="#0071BC" stroke-width=".053441880000000004" d="M288.317 287.173c0 .397-.363.718-.811.718-.448 0-.81-.321-.81-.718s.362-.717.81-.717c.448 0 .81.32.81.717z"/><path fill="#FFF" stroke-width=".8326089999999999" d="M285.945 289.379h2.082c.051 0 .093.041.093.092a.093.093 0 0 1-.093.093h-2.082a.093.093 0 0 1-.093-.093c.001-.05.042-.092.093-.092z"/></g><path fill="#0071BC" d="M288.551 293.781c-.57 0-.873.311-1.013.676l-.742 1.915c-.294.038-.815.384-.815 1.037v2.436h.722v.779c0 .958 1.356.947 1.356 0v-.779h4.879v.779c0 .947 1.356.958 1.356 0v-.779h.721v-2.436c0-.653-.52-.999-.814-1.037l-.743-1.915c-.141-.365-.442-.676-1.013-.676h-3.894zm-.009.697h3.913c.245.002.35.155.418.367l.561 1.507h-5.869l.56-1.507c.068-.212.173-.366.417-.367zm-1.139 2.606c.346 0 .626.288.626.646 0 .355-.28.646-.626.646s-.626-.289-.626-.646c0-.357.28-.646.626-.646zm6.193 0c.346 0 .625.288.625.646 0 .355-.279.646-.625.646s-.627-.289-.627-.646c0-.357.281-.646.627-.646z"/></svg>