<svg xmlns="http://www.w3.org/2000/svg" width="580" height="580" xml:space="preserve"><g fill="#93278F"><path d="M292.212 281.378a1.694 1.694 0 0 0-1.637-1.267 1.688 1.688 0 0 0-1.634 2.13h.678c.05.118.105.184.105.184a1.137 1.137 0 0 0 2.067-.65c0-.143.035-.274-.023-.397h.444zM292.166 291.472c-.178.18-.425.32-.7.32v-3.68l2.546-.732.637 1.256-2.483 2.836z"/><path d="M290.028 283.057a.915.915 0 0 0-1.399.04l-2.02 3.086a.898.898 0 0 0-.128.47c0 .319.16.596.404.76l2.71 1.503v2.56a.656.656 0 1 0 1.31 0v-3.197s.087-.51-.491-.788l-1.69-.885 1.231-1.88.654 1.026c.132.208.307.288.47.285l1.677-.006c.684 0 .684-.889 0-.885h-1.36l-1.368-2.089zM297.456 287.25c.027.029.041.06.041.106a.15.15 0 0 1-.148.148c-.021 0-.035 0-.052-.006-.29-.124-.474-.201-.811-.201-.222 0-.5.077-.82.335l-.294-.583c.369-.11.671-.208.986-.208.504-.002.768.103 1.098.41z"/><path d="m286.186 287.7 2.844 1.568.006.63-3.25-1.79c-.234-.12-.55-.19-.774-.19-.334 0-.52.078-.81.201-.018.006-.033.006-.053.006a.148.148 0 0 1-.106-.253c.328-.308.666-.411 1.167-.411.26.001.574.032.976.239zM286.45 293.47a1.678 1.678 0 1 0 0-3.357 1.678 1.678 0 0 0 0 3.356zm-2.42-1.679a2.422 2.422 0 0 1 4.843 0 2.422 2.422 0 0 1-4.843 0zM296.46 293.47a1.68 1.68 0 1 0-.001-3.359 1.68 1.68 0 0 0 .002 3.358zm-2.42-1.679a2.422 2.422 0 1 1 4.843 0 2.422 2.422 0 0 1-4.843 0zM295.926 289.023l-1.177-2.352a.917.917 0 0 0-.8-.475h-.769c-.15 0-.27.123-.27.274 0 .152.12.272.27.272l.769-.003c.13 0 .272.088.328.214l1.107 2.258.542-.188z"/></g></svg>