<svg xmlns="http://www.w3.org/2000/svg" width="580" height="580" xml:space="preserve"><g stroke="#93278F" stroke-linecap="round" stroke-linejoin="round"><path fill="#FFF" stroke-width=".371577" d="M267.067 282.32a1.939 1.939 0 1 1-3.878 0 1.939 1.939 0 0 1 3.878 0z"/><path fill="#93278F" stroke-width=".743154" d="M266.908 273.43a.374.374 0 0 0-.367.377v7.188a1.937 1.937 0 1 0-1.413 3.264c.976 0 1.978-.621 2.142-1.81.005-.005.017-.2.015-.352v-8.29a.378.378 0 0 0-.11-.267.367.367 0 0 0-.267-.11zM273.416 270.807a.373.373 0 0 0-.367.377v7.187a1.938 1.938 0 1 0-1.413 3.264c.976 0 1.978-.622 2.141-1.81.005-.004.018-.2.015-.351v-8.29a.372.372 0 0 0-.377-.377z"/><path fill="none" stroke-width="1.486308" d="m266.981 273.722 6.357-2.52"/></g></svg>