<svg xmlns="http://www.w3.org/2000/svg" width="580" height="580" xml:space="preserve"><path fill="#93278F" stroke="#93278F" stroke-width=".03" d="M289.094 407.144c.729-.372 1.09-.819 1.499-1.861.226-.577.268-.632.553-.73.169-.058.49-.228.714-.377.224-.148.604-.391.844-.538.24-.146.687-.458.992-.691.555-.426.555.774.623.977.113.341.342.258.48-.175.328-1.024.161-2.299-.903-1.605-2.042 1.332-2.732 1.506-3.902.983-1.861-.831-2.869-.966-3.954-.527-.344.139-.479.156-.716.095a15.51 15.51 0 0 0-.796-.173c-.399-.076-.595-.17-.931-.444-.521-.425-1.329-.816-1.704-.827-.877-.025-.59-.275.865-.754.984-.323 1.959-.821 3.089.079.471.375.516.384.633.127.139-.305.054-.393-.84-.87-1.281-.685-2.147-.095-3.848.473-2.441.814-3.12 1.325-2.551 1.918.156.163.248.4.358.919.513 2.42 2.554 3.61 3.787 2.21.34-.387.97-1.523.97-1.75 0-.114.048-.127.298-.081.399.073.469.154.34.396-.093.173-.08.268.109.784.596 1.634 1.492 2.414 2.842 2.556.425.07.783.068 1.149-.114zm-1.695-.456c-1.152-.408-1.875-1.967-1.462-3.153.441-1.271 3.561-.448 3.947 1.04.384 1.483-.983 2.646-2.485 2.113zm-5.866-1.448c-1.273-.578-1.885-2.971-.869-3.396 1.266-.528 2.618.501 2.618 1.994.001 1.316-.701 1.879-1.749 1.402z"/></svg>