<svg xmlns="http://www.w3.org/2000/svg" width="580" height="580" xml:space="preserve"><path fill="#0071BC" stroke="#0071BC" stroke-width=".5" d="M500.742 278.013v-12.462h4.701c.829 0 1.459.04 1.896.119.611.102 1.124.296 1.537.583.414.286.748.687 1 1.202a3.85 3.85 0 0 1 .378 1.7c0 1.061-.337 1.957-1.012 2.691-.674.734-1.895 1.101-3.656 1.101h-3.196v5.066h-1.648zm1.651-6.537h3.222c1.064 0 1.821-.198 2.271-.595.445-.397.669-.955.669-1.675 0-.521-.131-.968-.393-1.338a1.846 1.846 0 0 0-1.042-.735c-.278-.074-.79-.11-1.538-.11h-3.188v4.453h-.001z"/></svg>