<svg xmlns="http://www.w3.org/2000/svg" width="580" height="580" xml:space="preserve"><path fill="none" stroke="#0071BC" stroke-width=".772" d="M454.277 291.842a1.903 1.903 0 1 0 3.805 0 1.903 1.903 0 0 0-3.805 0zM462.434 291.805a1.903 1.903 0 0 0 3.805 0 1.903 1.903 0 0 0-3.805 0z"/><path fill="none" stroke="#0071BC" stroke-width=".507" stroke-linejoin="round" d="m462.829 288.566-4.895.025-1.729 3.214h3.312l3.46-2.349"/><path fill="#0071BC" d="M462.641 286.641c.268 0 .469-.005.675.309a.542.542 0 0 1 .063.36.669.669 0 0 1-.213.372c-.135.111-.262.103-.241.203.026.129.106.308.193.599.089.295.192.656.296 1.012.104.355.204.706.283.979.039.136.073.253.102.341.025.086.05.152.047.147.084.146.097.242.236.365.156.137.282.239.326.271.112.082.166.254.104.34-.074.117-.229.135-.342.1a1.346 1.346 0 0 1-.474-.256l-.002-.004-.003-.002c-.273-.234-.374-.519-.386-.535l-.015-.021-.011-.023c-.023-.059-.037-.11-.064-.202-.029-.093-.063-.21-.104-.349-.082-.275-.183-.625-.285-.981-.103-.355-.206-.714-.294-1.005-.087-.291-.143-.531-.163-.582a.643.643 0 0 1-.041-.392c.035-.134.136-.243.227-.268.207-.058.152-.207.047-.207l-.889-.002-.002-.567c.004-.002.581-.002.93-.002z"/><path fill="#FFF" stroke="#0071BC" stroke-width=".607" d="m459.454 291.704-1.679-4.108"/><path fill="#FFF" stroke="#0071BC" stroke-width=".222" stroke-linecap="round" d="m460.03 290.654-1.014 2.359"/><path fill="#FFF" stroke="#0071BC" stroke-width=".93" d="M458.962 291.812c0 .262.241.474.536.474.297 0 .537-.212.537-.474 0-.264-.24-.475-.537-.475-.295.001-.536.212-.536.475z"/><path fill="#FFF" stroke="#0071BC" stroke-width=".31" stroke-linecap="round" d="m460.481 290.656-.896.008M459.473 292.98l-.895.009"/><path fill="#0071BC" d="M456.954 287.229h2.105c.078 0 .181.14.078.232-.108.104-1.096.318-1.096.318s-.271.075-.416.057c-.142-.018-.641-.06-.671-.607z"/><path fill="#0071BC" stroke="#0071BC" stroke-width=".5" d="M451.646 290.442v-10.985h4.145c.729 0 1.286.035 1.67.105.54.09.992.261 1.356.514.363.251.656.605.881 1.06.222.455.334.954.334 1.499 0 .935-.297 1.726-.893 2.372-.595.646-1.67.97-3.223.97H453.1v4.466l-1.454-.001zm1.454-5.763h2.843c.938 0 1.604-.174 2-.525.394-.35.592-.842.592-1.477 0-.459-.116-.853-.351-1.18a1.609 1.609 0 0 0-.918-.648c-.243-.064-.695-.097-1.354-.097H453.1v3.927z"/></svg>