<svg xmlns="http://www.w3.org/2000/svg" width="580" height="580" xml:space="preserve"><path fill="#0071BC" stroke="#FFF" stroke-width=".03" d="M252.323 324.449c-.569-.13-3.549-.02-4.41-.02-.027-1.874-.032-3.746-.049-5.62-.538-.564-.256-1.582.489-1.801.737-.305 1.648.381 1.529 1.183.032.637-.705.792-.955 1.14-.018.742-.032 1.484.012 2.225 1.004.079 2.022.021 3.031.035v.978h-2.966c-.245.562 0 1.029-.056.977 1.116.005 2.948.003 4.061.003.641 1.317 1.257 2.649 1.903 3.961.681-.082 1.173-.466 1.431-.483.284-.024.29.878.258.85-.607.218-1.561.692-2.173.898-.153-.251-1.53-3.148-2.105-4.326zm-3.455 5.616c-1.333-.149-2.264-.546-2.975-1.186-1.017-.884-1.604-2.252-1.449-3.607.078-1.533 1.101-2.921 2.457-3.597.214.203.071.715.109 1.053.056.293-.333.375-.476.579-1.007.966-1.228 2.612-.593 3.84.675 1.396 2.379 2.277 3.899 1.847 1.139-.286 2.043-1.149 2.643-2.124.251.201.787 1.052.243 1.43-.913 1.146-2.378 1.869-3.858 1.765z" transform="matrix(.6625 0 0 .6408 136.388 93.963)"/><path fill="#0071BC" stroke="#0071BC" stroke-width=".5" d="M291.676 301.884v-10.985h4.143c.729 0 1.287.035 1.671.105.541.09.992.262 1.356.514.363.252.657.605.881 1.061.224.454.332.956.332 1.499 0 .935-.297 1.726-.891 2.371-.594.647-1.668.971-3.221.971h-2.818v4.466l-1.453-.002zm1.453-5.762h2.84c.939 0 1.606-.175 2.002-.524s.592-.842.592-1.477c0-.459-.116-.852-.35-1.182a1.626 1.626 0 0 0-.918-.648c-.244-.064-.695-.096-1.357-.096h-2.809v3.927z"/></svg>