<svg xmlns="http://www.w3.org/2000/svg" width="580" height="580" xml:space="preserve"><path fill="#0071BC" stroke="#0071BC" stroke-width=".033" d="M286.794 308.476c-.566 0-.867.31-1.005.671l-.736 1.9c-.292.037-.809.38-.809 1.028v2.417h.717v.772c0 .951 1.345.939 1.345 0v-.772H291.147v.772c0 .939 1.346.951 1.346 0v-.772h.717v-2.417c0-.648-.518-.991-.81-1.028l-.736-1.9c-.139-.361-.438-.671-1.005-.671H286.794zm-.008.692h3.881c.242.002.347.153.416.364l.555 1.495h-5.823l.555-1.495c.069-.211.173-.362.416-.364zm-1.131 2.587c.343 0 .621.286.621.64s-.278.642-.621.642-.622-.288-.622-.642.279-.64.622-.64zm6.144 0c.344 0 .622.286.622.64s-.278.642-.622.642c-.343 0-.622-.288-.622-.642s.279-.64.622-.64zM279.214 311.771v-12.206h4.604c.811 0 1.43.039 1.857.117.6.1 1.102.29 1.507.57s.731.673.979 1.178.371 1.061.371 1.665c0 1.038-.331 1.917-.991 2.636-.66.719-1.854 1.078-3.58 1.078h-3.13v4.962h-1.617zm1.615-6.402h3.155c1.044 0 1.785-.194 2.223-.583s.658-.936.658-1.641c0-.511-.129-.947-.387-1.311a1.81 1.81 0 0 0-1.02-.721c-.272-.072-.774-.108-1.507-.108h-3.122v4.364z"/><path fill="#0071BC" d="M295.003 307.055c-.358.242-.97.474-1.721.474-.936 0-1.779-.358-2.345-1.028-.439-.484-.728-1.154-.832-1.986h-.716v-.577h.658v-.174c0-.173.012-.347.023-.508h-.681v-.578h.762c.139-.808.473-1.478.947-1.951.578-.612 1.34-.959 2.275-.959.693 0 1.225.196 1.548.369l-.23.763a2.702 2.702 0 0 0-1.294-.323c-.624 0-1.144.22-1.536.624-.335.346-.566.866-.682 1.478h3.223v.578h-3.326c-.023.15-.023.312-.023.485v.196h3.35v.577h-3.269c.092.67.312 1.167.635 1.513.428.462 1.005.67 1.629.67.612 0 1.144-.219 1.409-.381l.196.738z"/></svg>