<svg xmlns="http://www.w3.org/2000/svg" width="580" height="580" xml:space="preserve"><path fill="#77C2F3" stroke="#77C2F3" stroke-width=".749" stroke-linecap="round" stroke-linejoin="round" d="M300.2 298.415v-13.847h5.223c.92 0 1.622.044 2.106.132.68.113 1.25.329 1.71.647.459.318.829.763 1.107 1.336.28.573.42 1.203.421 1.889-.001 1.178-.375 2.174-1.124 2.991-.75.814-2.104 1.224-4.062 1.224h-3.552v5.63l-1.829-.002h0zm1.832-7.265h3.58c1.184 0 2.022-.221 2.521-.66.497-.441.746-1.061.746-1.86 0-.58-.146-1.075-.438-1.488s-.68-.685-1.156-.817c-.311-.082-.879-.123-1.71-.123h-3.542l-.001 4.948h0z"/></svg>