<svg xmlns="http://www.w3.org/2000/svg" width="580" height="580" xml:space="preserve"><path fill="#0071BC" d="M260.521 308.476c-.566 0-.867.31-1.005.671l-.736 1.9c-.292.037-.809.38-.809 1.028v2.417h.716v.772c0 .951 1.346.939 1.346 0v-.772H264.874v.772c0 .939 1.346.951 1.346 0v-.772h.716v-2.417c0-.648-.518-.991-.809-1.028l-.737-1.9c-.139-.361-.439-.671-1.005-.671h-3.864zm-.008.692h3.881c.243.002.347.153.416.364l.555 1.495h-5.823l.555-1.495c.069-.211.173-.362.416-.364zm-1.131 2.587c.343 0 .621.286.621.64s-.278.642-.621.642-.622-.288-.622-.642.279-.64.622-.64zm6.144 0c.343 0 .621.286.621.64s-.278.642-.621.642c-.344 0-.623-.288-.623-.642s.28-.64.623-.64zM252.941 311.771v-12.206h4.604c.811 0 1.43.039 1.857.117.6.1 1.102.29 1.507.57s.731.673.979 1.178.371 1.061.371 1.665c0 1.038-.331 1.917-.991 2.636-.66.719-1.854 1.078-3.58 1.078h-3.13v4.962h-1.617zm1.615-6.402h3.155c1.043 0 1.785-.194 2.223-.583s.658-.936.658-1.641c0-.511-.129-.947-.387-1.311a1.81 1.81 0 0 0-1.02-.721c-.272-.072-.774-.108-1.507-.108h-3.122v4.364z"/></svg>