<svg xmlns="http://www.w3.org/2000/svg" version="1.0" width="580" height="580"><path d="M66.275 1.768c-41.335 0-64.571 21.371-64.571 65.036v450.123c0 40.844 20.895 62.229 62.192 62.229H515.92c41.307 0 62.229-20.315 62.229-62.229V66.804c0-42.601-20.922-65.036-63.521-65.036-.004 0-448.495-.143-448.353 0z" style="fill:#111;stroke:#eee;stroke-width:3.40799999"/><path style="fill:#fff;fill-opacity:1;fill-rule:evenodd;stroke:#fff;stroke-width:18.03055191;stroke-linecap:round;stroke-linejoin:round;stroke-miterlimit:4;stroke-dasharray:none;stroke-opacity:1" d="m27.243-248.978 12.306 20.187 113.315 44.705-.986-56.982-111.59-22.465-13.045 14.555z"/><path d="M210.084 467.489h169.642c0-24.116-1.722-28.9-41.66-28.9 6.38-19.14 32.315-65.45 46.727-65.45 12.75 0 27.96.703 27.96 29.796 0 33.027 55.581 86.278 69.059 64.554 20.085-32.376-34.53-22.503-34.53-100.585 0-106.819 62.34-91.612 62.34-151.627 0-30.025-8.294-34.08-8.294-55.546 0-28.37 24.993-26.724 20.13-50.247-3.358-16.248-5.987-29.279-7.945-48.927-1.39-13.942-1.833-28.801-16.314-28.204-17.014.702-23.47 30.651-49.916 32.798-26.393 2.143-48.897-22.468-59.112-18.953-10.13 3.486-6.944 30.964-.939 50.48 9.439 30.674 30.026 70.559-7.506 76.564-37.531 6.005-102.085 12.01-148.624 73.562-46.54 61.551-44.821 133.787-63.053 156.13-61.189 74.99-123.892 44.2-123.892 106.59 0 27.932 47.328 48.04 54.834 39.033 7.506-9.008-63.781-35.848 15.983-67.557 68.145-27.09 74.228-32.62 95.11-13.511z" style="fill:#fff;fill-opacity:1;fill-rule:evenodd;stroke:none"/></svg>