<svg xmlns="http://www.w3.org/2000/svg" width="580" height="580" xml:space="preserve"><path fill="#FFF" stroke="#754C24" stroke-width="1.081" stroke-linecap="round" stroke-miterlimit="1.1" d="m282.708 275.711 15.885 2.993"/><path fill="#754C24" stroke="#754C24" stroke-width=".063" d="m290.65 277.304-1.675 3.359h3.35l-1.675-3.359z"/><g fill="#754C24" stroke="#754C24"><path stroke-width=".042" d="M417.575 475.079c-.286.056-.691 1.507-.691 1.507l1.104-.164s-.146.48-.274.836c-.08.222.174.289.306.042.245-.456.431-.959.431-.959s-.574-1.321-.876-1.262z" transform="matrix(2.13571 .9043 -.84165 2.29468 -206.634 -1194.987)"/><path stroke-width=".185" d="M417.447 474.505c-.051.212.105.4.348.419.243.019.48-.137.53-.349.051-.212-.105-.4-.348-.419-.242-.02-.479.137-.53.349z" transform="matrix(2.13571 .9043 -.84165 2.29468 -206.634 -1194.987)"/></g><g fill="#754C24" stroke="#754C24"><path stroke-width=".042" d="M427.204 480.392c-.286.05-.66 1.485-.66 1.485l1.107-.142s-.135.474-.256.826c-.076.219.182.291.309.048.236-.449.411-.946.411-.946s-.608-1.324-.911-1.271z" transform="matrix(-2.30754 -.23175 -.3622 2.41727 1457.356 -786.998)"/><path stroke-width=".185" d="M427.063 479.818c-.046.21.115.4.359.424.244.024.48-.127.525-.337.046-.21-.115-.4-.359-.424s-.48.127-.525.337z" transform="matrix(-2.30754 -.23175 -.3622 2.41727 1457.356 -786.998)"/></g></svg>