<svg xmlns="http://www.w3.org/2000/svg" width="580" height="580" xml:space="preserve"><path fill="#754C24" d="M290.804 288.333c.037.292.279.508.532.476l.243-.031c.253-.032.433-.302.396-.594l-.128-.995c-.037-.292-.279-.508-.532-.476l-.243.031c-.253.032-.433.302-.395.594l.127.995zm.472-.071c-.13-.116-.222-.828-.125-.973.097-.145.094-.145.224-.029.13.116.221.828.124.973s-.093.144-.223.029zM293.489 285.548c.251.18.585.161.734-.041l.144-.194c.148-.202.064-.52-.187-.699l-.856-.614c-.251-.18-.585-.161-.734.041l-.144.194c-.149.202-.064.52.187.7l.856.613zm.27-.385c-.179.01-.791-.429-.837-.599-.045-.171-.047-.168.132-.178.18-.01.792.428.837.599.046.17.047.168-.132.178z"/><path fill="#754C24" d="M292.696 284.81c.293-.025.52-.258.497-.512l-.012.232c-.021-.254-.284-.445-.577-.419l-1 .086c-.293.025-.519.258-.497.512l.012-.232c.022.254.284.445.577.42l1-.087zm-.051-.475c-.121.125-.837.187-.978.084s-.132.377-.01.252c.121-.125.836-.187.977-.084s.132-.377.011-.252z"/><path fill="#603813" d="M291.753 285.031c.185-.247.173-.581-.025-.734l-.191-.147c-.198-.153-.519-.075-.703.172l-.631.844c-.185.247-.173.581.025.734l.191.147c.198.153.519.075.703-.172l.631-.844zm-.38-.277c.007.179-.444.782-.616.824s-.169.043-.175-.136c-.007-.179.444-.782.616-.824.171-.042.169-.044.175.136z"/><path fill="#754C24" d="M290.79 286.984c.098.278.379.438.62.354l-.229.046c.241-.084.36-.386.263-.664l-.332-.947c-.098-.277-.379-.438-.62-.354l.228-.046c-.241.084-.36.386-.263.664l.333.947zm.447-.169c-.151-.086-.39-.763-.325-.925.064-.162-.397-.033-.246.053.15.086.389.764.324.926-.064.161.398.032.247-.054z"/><g fill="#754C24"><path d="M289.423 289.287c-.182.106-.117.48-.074.677.121.302.624.677.75.579 1.016-.488 1.978-.1 2.465.916.487 1.015.165 2.075-.85 2.562-.404.193-.782-.067-1.153.19-.36.25-.473.527-.488.79-.016.277.027.688.573.8.561.116.944-.03 1.487-.291 1.684-.81 2.477-2.96 1.668-4.646-.809-1.685-2.693-2.386-4.378-1.577z"/><path opacity=".8" d="M289.338 289.42a3.245 3.245 0 0 0-1.518 4.317c.566 1.18 1.69 2.008 2.924 1.978l.11-1.471c-.82.216-1.448-.086-1.881-.987-.526-1.095-.172-2.308.922-2.834.305-.147.476-.078.837-.114l-.228-1.198a3.21 3.21 0 0 0-1.166.309z"/><path d="m290.7 290.744.507.084c1.036.214 1.492-.045 1.642-.903.148-.856-1.473-1.825-1.473-1.825l-.018-.003s-1.853.364-2.002 1.22c-.15.857.193 1.255 1.24 1.404l.506.091"/></g><path fill="#754C24" d="M291.72 294.968a.862.862 0 1 1-1.723 0 .862.862 0 0 1 1.724 0z"/><g fill="#754C24"><path d="M295.947 284.444c.204-.047.413.27.515.445.119.303.007.92-.152.936-1.074.337-1.512 1.278-1.173 2.351.337 1.075 1.297 1.629 2.37 1.292.428-.135.527-.583.974-.649.435-.063.705.061.895.242.2.192.451.522.129.977-.331.467-.711.621-1.285.801-1.783.56-3.832-.467-4.392-2.251-.563-1.783.335-3.583 2.119-4.144z"/><path opacity=".8" d="M296.099 284.483a3.246 3.246 0 0 1 4.058 2.115c.393 1.25.137 2.62-.785 3.443l-1.085-1c.746-.402 1-1.052.7-2.006-.365-1.159-1.451-1.803-2.61-1.439-.322.102-.4.268-.688.49l-.653-1.032c.307-.249.664-.445 1.063-.57z"/><path d="m296.009 286.38-.313.409c-.61.864-1.121.985-1.815.462s-.172-2.338-.172-2.338l.012-.015s1.603-1 2.296-.476c.693.523.717 1.048.053 1.873l-.307.413"/></g><path fill="#754C24" d="M298.15 290.163a.861.861 0 1 0 1.257-1.177.861.861 0 0 0-1.258 1.177z"/><path fill="none" stroke="#754C24" stroke-width=".528" stroke-linecap="round" stroke-linejoin="round" d="M294.405 281.688c-.504.394-1.045.77-1.669.945-1.186.376-2.521.221-3.609-.372-.264-.018-.401.26-.611.372-.498.414-1.021.806-1.488 1.25-.085.189.126.336.157.514.448.984.936 2.05.739 3.159-.201 1.413-1.07 2.629-1.323 4.031-.28 1.811.533 3.775 2.101 4.758 1.817 1.264 4.056 1.693 5.94 2.83.253.12.447-.159.66-.244 1.795-1.088 3.913-1.603 5.577-2.925a4.625 4.625 0 0 0 1.774-2.986 5.039 5.039 0 0 0-.558-3.243c-.513-1.095-1.104-2.246-.99-3.491.089-.903.503-1.731.819-2.569.004-.224-.27-.272-.389-.417-.561-.425-1.111-.893-1.721-1.246-.379.083-.685.38-1.071.449-1.437.476-3.113.172-4.276-.808a.1.1 0 0 0-.062-.007z"/><path opacity=".1" fill="#FFF" stroke="#754C24" stroke-width=".315" stroke-linecap="round" stroke-linejoin="round" d="M294.791 299.104h0c2.89-1.996 7.75-2.354 7.793-6.915.021-2.045-1.196-2.692-1.618-5.22-.192-1.156.856-3.294.856-3.294l-2.016-1.519c-1.207.764-3.476 1.224-5.382-.346-1.841 1.644-4.126 1.269-5.364.55l-1.952 1.593s1.135 2.098.989 3.26c-.319 2.542-1.509 3.233-1.405 5.276.228 4.557 5.1 4.733 8.068 6.62h0"/></svg>