<svg xmlns="http://www.w3.org/2000/svg" width="580" height="580" xml:space="preserve"><g fill="#0092DA"><path d="M292.39 295.711c.98-.424 1.435-.367 2.242.054.806.422 1.612.422 2.562-.063.951-.484 1.724-.208 2.154.053.36.217.719.306 1.256.306v-1.94c-.81.001-1.158-.274-1.158-.274-.837-.516-1.604-.414-2.658.134-.6.312-1.554.23-2.229-.122-.93-.485-1.457-.366-2.431.067-.755.337-1.436.337-2.189 0-.974-.434-1.476-.552-2.406-.067-.675.353-1.642.434-2.243.122-1.055-.548-1.808-.65-2.644-.134 0 0-.362.273-1.158.273v1.94c.502 0 .894-.099 1.232-.305.429-.262 1.227-.536 2.178-.053.95.486 1.756.486 2.562.063.805-.42 1.253-.496 2.232-.072.953.484 1.892.44 2.698.018zM289.663 276.148v1.92h-2.232v1.433h-1.593v2.72l-.826.336c-.497.21-.704.653-.497 1.14l1.364 3.14v4.375c-.885-.001-1.637-1.075-3.244-.178 0 0-.46.257-1.158.274v1.875c.545-.04.806-.128 1.219-.359.439-.245 1.24-.483 2.19.001.951.486 1.757.486 2.563.065.806-.422 1.508-.444 2.263-.065.95.486 1.697.49 2.654.012.773-.393 1.468-.369 2.274.053.806.421 1.613.421 2.562-.065.952-.484 1.748-.24 2.191 0 .388.208.66.317 1.22.358v-1.893c-.712-.016-1.158-.273-1.158-.273-1.645-.897-2.362.195-3.245.195v-4.374l1.366-3.142c.205-.484-.001-.928-.497-1.139l-.826-.336v-2.72h-1.592v-1.432h-2.232v-1.921h-2.766zm-1.055 3.057H293.485v1.412h1.59v1.097l-4.028-1.662-4.03 1.662v-1.097h1.591v-1.412z"/></g></svg>