<svg xmlns="http://www.w3.org/2000/svg" width="580" height="580" xml:space="preserve"><path opacity=".1" fill="#FFF" stroke="#754C24" stroke-width=".736" d="M299.314 292.466a8 8 0 1 1-16 0 8 8 0 0 1 16 0z"/><path fill="#754C24" stroke="#754C24" stroke-width=".029" d="m286.644 289.526 2.823 2.836-2.823 2.824v-5.66zm8.784-.532-3.478 3.465a.887.887 0 0 1-.655.259.926.926 0 0 1-.681-.272l-3.451-3.451 8.265-.001zm.547 6.193-2.824-2.824 2.824-2.836v5.66zm-8.827.531 2.837-2.823.123.123c.329.318.724.477 1.187.477.464 0 .854-.158 1.173-.477l.122-.123 2.838 2.823h-8.28zm-1.268.766h10.885v-8.268H285.88v8.268z"/><path opacity=".5" fill="none" stroke="#754C24" stroke-width=".736" d="M299.314 292.466a8 8 0 1 1-16 0 8 8 0 0 1 16 0z"/></svg>