<svg xmlns="http://www.w3.org/2000/svg" width="580" height="580" xml:space="preserve"><path fill="#FCEE21" d="M299.154 292.465a7.84 7.84 0 1 1-15.68-.001 7.84 7.84 0 0 1 15.68.001z"/><path fill="#00F" stroke="#00F" stroke-width=".029" d="m286.644 289.526 2.823 2.835-2.823 2.824v-5.659zm8.784-.532-3.478 3.465a.889.889 0 0 1-.655.259.927.927 0 0 1-.681-.272l-3.451-3.449 8.265-.003zm.547 6.194-2.824-2.824 2.824-2.835v5.659zm-8.827.53 2.837-2.823.123.123c.329.318.724.479 1.187.479.464 0 .854-.158 1.173-.479l.122-.123 2.838 2.823h-8.28zm-1.268.766h10.886v-8.27H285.88v8.27z"/><path fill="none" stroke="#00F" stroke-width=".736" d="M299.314 292.466a8 8 0 1 1-16 0 8 8 0 0 1 16 0z"/></svg>