<svg xmlns="http://www.w3.org/2000/svg" width="580" height="580" xml:space="preserve"><path fill="#FCEE21" d="M286.297 288.656h10.016v7.406h-10.016z"/><path fill="#00F" stroke="#00F" stroke-width=".029" d="m286.644 289.526 2.823 2.835-2.823 2.824v-5.659zm8.784-.532-3.478 3.465a.889.889 0 0 1-.655.259.927.927 0 0 1-.681-.272l-3.451-3.45 8.265-.002zm.547 6.194-2.824-2.824 2.824-2.836v5.66zm-8.827.53 2.837-2.823.123.123c.329.318.724.478 1.187.478a1.59 1.59 0 0 0 1.173-.478l.122-.123 2.838 2.823h-8.28zm-1.268.766h10.886v-8.269H285.88v8.269z"/></svg>