<svg xmlns="http://www.w3.org/2000/svg" width="580" height="580" xml:space="preserve"><path fill="#754C24" d="M461.076 283.863c-.653 0-1.224.238-1.707.71a2.31 2.31 0 0 0-.726 1.721c0 .678.241 1.254.726 1.726a2.364 2.364 0 0 0 1.707.705l.071-.001.073.001c.653 0 1.22-.233 1.705-.705a2.323 2.323 0 0 0 .724-1.726c0-.677-.241-1.25-.724-1.722-.485-.471-1.052-.71-1.705-.71l-.073.003-.071-.002zm-1.853 5.01c-.146 0-.28.017-.4.049a2.075 2.075 0 0 0-2.261 2.113l.042 4.833a2.072 2.072 0 0 0 1.458 1.99V298.673l3.083-.092 3.085.092V297.764a2.075 2.075 0 0 0 1.213-1.935l-.042-4.835a2.068 2.068 0 0 0-1.956-2.08 1.576 1.576 0 0 0-.376-.04h-3.846z" opacity=".5"/><path fill="#754C24" stroke="#754C24" stroke-width=".437" stroke-linecap="round" stroke-linejoin="round" d="M463.862 282.889c-.074 0-.141.01-.185.043v12.029c.037-.34.218-.681.563-.754v-11.312c-.108.017-.255-.007-.378-.006zm-.184 12.347v3.947c.175-.027.444.053.563-.037V296c-.335-.052-.547-.442-.563-.764zM458.163 282.889c-.074 0-.14.01-.185.043v11.273c.296.042.493.352.547.633.007.033.013.068.018.103v-12.045c-.109.016-.256-.008-.38-.007zm.38 12.387c-.044.327-.216.639-.55.725l-.015.001v3.182c.175-.027.444.053.564-.037l.001-3.871zM468.033 299.183c.175-.026.445.054.564-.037v-16.25c-.175.027-.445-.053-.564.037v16.25zM452.962 299.183c.176-.026.445.054.565-.037v-16.25c-.176.027-.445-.053-.565.037v16.25z"/><path fill="#754C24" stroke="#754C24" stroke-width=".431" stroke-linecap="round" stroke-linejoin="round" d="M468.606 282.851c-.026-.177.051-.45-.035-.571h-15.615c.026.177-.051.451.036.571h15.614zM468.606 299.549c-.026-.178.051-.45-.035-.571h-15.615c.026.177-.051.45.036.571h15.614z"/></svg>