<svg xmlns="http://www.w3.org/2000/svg" width="580" height="580" xml:space="preserve"><path opacity=".1" fill="#FFF" d="m282.555 286.408 9.418.078-1.525 11.544-6.444.078-1.449-11.7z"/><path fill="#754C24" d="M292.85 285.124h-.008c.009-.007.014-.016.014-.023 0-.185-2.462-.333-5.5-.333-3.037 0-5.5.15-5.5.333 0 .007.004.016.014.023h-.014l1.717 13.388h.008c-.016.008-.023.017-.023.025 0 .127 1.701.229 3.798.229s3.798-.103 3.798-.229c0-.01-.008-.018-.022-.025l1.718-13.388zm-2.821 12.408c-.088.084-5.303.044-5.391-.039l-1.63-10.571c2.887 2.047 4.787-.277 8.571-.078l-1.55 10.688z"/></svg>