<svg xmlns="http://www.w3.org/2000/svg" version="1.0" width="580" height="580"><path d="M66.275 1.768c-41.335 0-64.571 21.371-64.571 65.036v450.123c0 40.844 20.895 62.229 62.192 62.229H515.92c41.307 0 62.229-20.315 62.229-62.229V66.804c0-42.601-20.922-65.036-63.521-65.036-.004 0-448.495-.143-448.353 0z" style="fill:#111;stroke:#eee;stroke-width:3.40799999"/><path style="font-size:12px;opacity:.2;fill:#fff;fill-opacity:1;fill-rule:evenodd;stroke:#fff;stroke-width:1.24141979;stroke-opacity:1" d="M286.944 44.002 34.884 235.909h50.412V543.77h403.296V235.909h50.412L286.944 44.002z"/><path d="M286.944 34.002 34.884 225.909h50.412V543.77h403.296V225.909h50.412L286.944 34.002z" style="font-size:12px;opacity:1;fill:none;fill-opacity:1;fill-rule:evenodd;stroke:#fff;stroke-width:20;stroke-linejoin:round;stroke-miterlimit:4;stroke-dasharray:none;stroke-opacity:1"/><path d="M117.844 42.625c-10.577 0-19.79 3.832-27.625 11.469-7.834 7.637-11.75 16.916-11.75 27.875 0 10.971 3.916 20.3 11.75 27.937 7.834 7.637 17.048 11.438 27.625 11.438.39 0 .77-.022 1.156-.031.39.01.793.03 1.188.03 10.576.001 19.759-3.8 27.593-11.437 7.834-7.636 11.75-16.966 11.75-27.937 0-10.96-3.916-20.238-11.75-27.875-7.834-7.637-17.017-11.469-27.594-11.469-.394 0-.797.021-1.187.031-.386-.01-.766-.031-1.156-.031zm-29.969 87.531c-11.353 0-17.61 5.877-18.781 17.625v141.001l49.906-1.47 49.938 1.47v-141c-1.172-11.749-7.428-17.625-18.782-17.626H87.875z" style="font-size:40px;font-style:normal;font-variant:normal;font-weight:400;font-stretch:normal;text-align:start;line-height:125%;writing-mode:lr-tb;text-anchor:start;fill:#fff;fill-opacity:1;stroke:none;font-family:NPSPICT3;-inkscape-font-specification:NPSPICT3" transform="matrix(.87658 0 0 .87658 99.682 266.47)"/><path style="fill:#fff;fill-rule:evenodd;stroke:#fff;stroke-width:67.0968399;stroke-linecap:round;stroke-linejoin:miter;stroke-miterlimit:4;stroke-opacity:1;stroke-dasharray:none" d="m79.06 243.054-.7-78.245M155.06 243.054l-.7-78.245" transform="matrix(.87658 0 0 .87658 99.682 266.47)"/><g><path style="font-size:40px;font-style:normal;font-variant:normal;font-weight:400;font-stretch:normal;text-align:start;line-height:125%;writing-mode:lr-tb;text-anchor:start;fill:#fff;fill-opacity:1;stroke:none;font-family:NPSPICT3;-inkscape-font-specification:NPSPICT3" d="M117.844 42.625c-10.577 0-19.79 3.832-27.625 11.469-7.834 7.637-11.75 16.916-11.75 27.875 0 10.971 3.916 20.3 11.75 27.937 7.834 7.637 17.048 11.438 27.625 11.438.39 0 .77-.022 1.156-.031.39.01.793.03 1.188.03 10.576.001 19.759-3.8 27.593-11.437 7.834-7.636 11.75-16.966 11.75-27.937 0-10.96-3.916-20.238-11.75-27.875-7.834-7.637-17.017-11.469-27.594-11.469-.394 0-.797.021-1.187.031-.386-.01-.766-.031-1.156-.031zm-29.969 87.531c-11.353 0-17.61 5.877-18.781 17.625v141.001l49.906-1.47 49.938 1.47v-141c-1.172-11.749-7.428-17.625-18.782-17.626H87.875z" transform="matrix(.87658 0 0 .87658 266.233 266.47)"/><path d="m79.06 243.054-.7-78.245M155.06 243.054l-.7-78.245" style="fill:#fff;fill-rule:evenodd;stroke:#fff;stroke-width:67.0968399;stroke-linecap:round;stroke-linejoin:miter;stroke-miterlimit:4;stroke-opacity:1;stroke-dasharray:none" transform="matrix(.87658 0 0 .87658 266.233 266.47)"/></g><g><path style="font-size:40px;font-style:normal;font-variant:normal;font-weight:400;font-stretch:normal;text-align:start;line-height:125%;writing-mode:lr-tb;text-anchor:start;fill:#fff;fill-opacity:1;stroke:none;font-family:NPSPICT3;-inkscape-font-specification:NPSPICT3" d="M117.844 42.625c-10.577 0-19.79 3.832-27.625 11.469-7.834 7.637-11.75 16.916-11.75 27.875 0 10.971 3.916 20.3 11.75 27.937 7.834 7.637 17.048 11.438 27.625 11.438.39 0 .77-.022 1.156-.031.39.01.793.03 1.188.03 10.576.001 19.759-3.8 27.593-11.437 7.834-7.636 11.75-16.966 11.75-27.937 0-10.96-3.916-20.238-11.75-27.875-7.834-7.637-17.017-11.469-27.594-11.469-.394 0-.797.021-1.187.031-.386-.01-.766-.031-1.156-.031zm-29.969 87.531c-11.353 0-17.61 5.877-18.781 17.625v141.001l49.906-1.47 49.938 1.47v-141c-1.172-11.749-7.428-17.625-18.782-17.626H87.875z" transform="matrix(.48931 0 0 .48931 127.156 142.643)"/><path d="m79.06 243.054-.7-78.245M155.06 243.054l-.7-78.245" style="fill:#fff;fill-rule:evenodd;stroke:#fff;stroke-width:67.0968399;stroke-linecap:round;stroke-linejoin:miter;stroke-miterlimit:4;stroke-opacity:1;stroke-dasharray:none" transform="matrix(.48931 0 0 .48931 127.156 142.643)"/><g><path d="M117.844 42.625c-10.577 0-19.79 3.832-27.625 11.469-7.834 7.637-11.75 16.916-11.75 27.875 0 10.971 3.916 20.3 11.75 27.937 7.834 7.637 17.048 11.438 27.625 11.438.39 0 .77-.022 1.156-.031.39.01.793.03 1.188.03 10.576.001 19.759-3.8 27.593-11.437 7.834-7.636 11.75-16.966 11.75-27.937 0-10.96-3.916-20.238-11.75-27.875-7.834-7.637-17.017-11.469-27.594-11.469-.394 0-.797.021-1.187.031-.386-.01-.766-.031-1.156-.031zm-29.969 87.531c-11.353 0-17.61 5.877-18.781 17.625v141.001l49.906-1.47 49.938 1.47v-141c-1.172-11.749-7.428-17.625-18.782-17.626H87.875z" style="font-size:40px;font-style:normal;font-variant:normal;font-weight:400;font-stretch:normal;text-align:start;line-height:125%;writing-mode:lr-tb;text-anchor:start;fill:#fff;fill-opacity:1;stroke:none;font-family:NPSPICT3;-inkscape-font-specification:NPSPICT3" transform="matrix(.48931 0 0 .48931 227.156 142.643)"/><path style="fill:#fff;fill-rule:evenodd;stroke:#fff;stroke-width:67.0968399;stroke-linecap:round;stroke-linejoin:miter;stroke-miterlimit:4;stroke-opacity:1;stroke-dasharray:none" d="m79.06 243.054-.7-78.245M155.06 243.054l-.7-78.245" transform="matrix(.48931 0 0 .48931 227.156 142.643)"/></g><g><path style="font-size:40px;font-style:normal;font-variant:normal;font-weight:400;font-stretch:normal;text-align:start;line-height:125%;writing-mode:lr-tb;text-anchor:start;fill:#fff;fill-opacity:1;stroke:none;font-family:NPSPICT3;-inkscape-font-specification:NPSPICT3" d="M117.844 42.625c-10.577 0-19.79 3.832-27.625 11.469-7.834 7.637-11.75 16.916-11.75 27.875 0 10.971 3.916 20.3 11.75 27.937 7.834 7.637 17.048 11.438 27.625 11.438.39 0 .77-.022 1.156-.031.39.01.793.03 1.188.03 10.576.001 19.759-3.8 27.593-11.437 7.834-7.636 11.75-16.966 11.75-27.937 0-10.96-3.916-20.238-11.75-27.875-7.834-7.637-17.017-11.469-27.594-11.469-.394 0-.797.021-1.187.031-.386-.01-.766-.031-1.156-.031zm-29.969 87.531c-11.353 0-17.61 5.877-18.781 17.625v141.001l49.906-1.47 49.938 1.47v-141c-1.172-11.749-7.428-17.625-18.782-17.626H87.875z" transform="matrix(.48931 0 0 .48931 327.156 142.643)"/><path d="m79.06 243.054-.7-78.245M155.06 243.054l-.7-78.245" style="fill:#fff;fill-rule:evenodd;stroke:#fff;stroke-width:67.0968399;stroke-linecap:round;stroke-linejoin:miter;stroke-miterlimit:4;stroke-opacity:1;stroke-dasharray:none" transform="matrix(.48931 0 0 .48931 327.156 142.643)"/></g></g></svg>