<svg xmlns="http://www.w3.org/2000/svg" width="580" height="580" xml:space="preserve"><path fill="#009245" stroke="#FFF" stroke-width=".18" stroke-linecap="round" stroke-linejoin="round" d="m285.488 300.378-1.867-3.252h-3.754l1.526.883-.943 1.626a.946.946 0 0 0 0 .924l1.485 2.59c.067-.188.134-.348.201-.481l1.847-3.172 1.505.882zm-2.79 2.61a1.054 1.054 0 0 0-.161.562c0 .309.11.569.332.783.221.214.485.321.792.321h3.694v-2.991h-3.895c-.027.054-.127.228-.301.521l-.461.804zm4.999-7.408h3.735l1.887-3.252-1.525.883-.944-1.626c-.174-.308-.441-.462-.803-.462h-2.971c.12.134.221.268.301.401l1.826 3.172-.301.181-1.205.703zm-1.827-4.296c-.429 0-.75.187-.964.562l-1.867 3.212c.709.415 1.572.91 2.59 1.486a418.042 418.042 0 0 0 1.947-3.373l-.743-1.325a1.04 1.04 0 0 0-.963-.562h0zm4.798 10.339v-1.746l-1.867 3.252 1.867 3.232v-1.747h1.867a.906.906 0 0 0 .823-.462l1.485-2.59c-.2.054-.368.08-.502.08l-3.673-.019zm2.77-5.501c-.066.04-.93.535-2.59 1.485l1.968 3.394h1.506c.441 0 .77-.188.983-.562.2-.361.194-.729-.021-1.104l-1.846-3.213z"/></svg>