<svg xmlns="http://www.w3.org/2000/svg" width="400" height="400" xml:space="preserve"><path fill="#093" stroke="#093" stroke-width=".075" d="M-105.845 191.461h15.268v15.226h-15.268z"/><path fill="#FFF" stroke="#093" stroke-width=".075" d="M-94.615 198.971s.064.294-.23.449c-.295.154-.5.103-.667-.077s-.128-1.719-.128-1.719l1.029-.426-.004 1.773zM-95.806 197.705v1.369l-.721-.685z"/><path fill="#FFF" stroke="#093" stroke-width=".075" d="m-96.588 198.461 3.345 3.305.653-.718v2.576h-2.537l.653-.641-2.718-2.717v-1.046z"/><path fill="#FFF" stroke="#093" stroke-width=".075" d="M-97.326 199.399v4.597h.968l-1.808 1.846-1.834-1.808.976-.038v-3.705l.794-.78z"/><path fill="#FFF" stroke="#093" stroke-width=".075" d="m-97.515 197.466-.664-.597-4.897 4.909-.666-.735v2.581h2.551l-.654-.653 3.542-3.517z"/><path fill="#FFF" stroke="#093" stroke-width=".075" d="m-98.55 194.164 5.051-1.949s.551-.09.897.064 1 .551 1.128.756.564 1.128.564 1.128l-1.628.641s.089.756-.103 1.038c-.192.282-.539.795-.987.975-.198.079-.583.224-.983.381-.506.197-1.038.414-1.26.542-.397.231-1.423 1.615-1.423 1.615s-.141.244-.474.257c-.333.013-.577-.09-.692-.41-.115-.321-.064-.526.128-.706S-97 196.779-97 196.779s-.295-.462-.282-.77c.013-.308 0-.564 0-.564s-.782.154-1.039.456c-.256.301-.179.096-.308.557-.128.462-.089.911-.089.911l-.77.744s-.539-.397-.513-.987c.025-.59.692-2.218.975-2.563.283-.348.476-.399.476-.399z"/></svg>