<svg xmlns="http://www.w3.org/2000/svg" width="580" height="580" xml:space="preserve"><path fill="none" stroke="#0071BC" stroke-width=".78" d="M281.675 305.564a2.454 2.454 0 1 0 4.909 0 2.454 2.454 0 0 0-4.909 0zM292.19 305.517a2.454 2.454 0 1 0 4.909 0 2.454 2.454 0 0 0-4.909 0z"/><path fill="none" stroke="#0071BC" stroke-width=".653" stroke-linejoin="round" d="m292.7 301.343-6.309.031-2.23 4.143h4.27l4.461-3.027"/><path fill="#0071BC" d="M292.458 298.86c.343 0 .602-.008.867.397a.707.707 0 0 1 .083.465.854.854 0 0 1-.274.479c-.173.144-.337.133-.311.262.034.166.138.396.25.771.114.38.249.846.382 1.304l.365 1.262c.052.177.097.327.132.44.033.11.063.196.061.19.107.188.122.312.302.473.202.177.366.307.424.347.145.105.212.327.136.438-.097.149-.296.172-.441.128a1.684 1.684 0 0 1-.61-.33l-.003-.003-.003-.002c-.353-.303-.483-.67-.496-.691l-.019-.028-.013-.031c-.031-.075-.05-.142-.086-.26a57.78 57.78 0 0 1-.134-.449c-.104-.355-.233-.808-.365-1.265-.133-.458-.268-.921-.38-1.297-.112-.375-.184-.684-.21-.749a.824.824 0 0 1-.053-.505c.044-.173.174-.312.291-.345.268-.074.196-.267.06-.268l-1.146-.002-.003-.731h1.194z"/><path fill="#FFF" stroke="#0071BC" stroke-width=".783" d="m288.349 305.387-2.163-5.295"/><path fill="#FFF" stroke="#0071BC" stroke-width=".286" stroke-linecap="round" d="m289.093 304.035-1.307 3.042"/><path fill="#0071BC" stroke="#0071BC" stroke-width=".939" d="M287.715 305.524c0 .338.31.611.691.611.382 0 .692-.273.692-.611 0-.337-.31-.61-.692-.61-.381 0-.691.274-.691.61z"/><path fill="#FFF" stroke="#0071BC" stroke-width=".399" stroke-linecap="round" d="m289.674 304.036-1.154.011M288.374 307.033l-1.154.011"/><path fill="#0071BC" d="M285.127 299.619h2.715c.101 0 .232.179.101.299-.142.134-1.414.411-1.414.411s-.35.096-.535.073c-.185-.023-.827-.079-.867-.783zM286.578 293.305c-1.386-.01-2.55 1.435-2.255 2.79.194 1.133 1.292 2.066 2.46 1.951a2.421 2.421 0 0 0 1.904-1.183c.356-.279.888.09 1.238-.21.24-.247.44-.578.778-.69.27.077.391.37.614.507.225-.145.353-.486.661-.484.217.13.355.361.56.498.233-.15.371-.505.688-.506.222.125.344.385.576.485.321-.29.65-.59.919-.935-.001-.196-.265-.304-.37-.464-.218-.192-.404-.547-.746-.474-.466.037-.94-.012-1.409.008-1.134-.001-2.28.028-3.41-.028-.31-.266-.475-.682-.856-.87a2.315 2.315 0 0 0-1.352-.395zm-.943 1.556c.678-.018 1.083.945.59 1.414-.4.439-1.252.298-1.419-.29-.186-.528.247-1.183.829-1.124z"/></svg>