<svg xmlns="http://www.w3.org/2000/svg" width="580" height="580" xml:space="preserve"><path fill="#0071BC" stroke="#0071BC" stroke-width=".347271" stroke-linecap="round" stroke-linejoin="round" d="M293.833 292.124c-1.385-.009-2.55 1.436-2.255 2.79.194 1.133 1.292 2.066 2.46 1.952a2.417 2.417 0 0 0 1.903-1.183c.357-.28.89.09 1.239-.21.24-.249.44-.578.778-.69.27.077.391.37.614.505.225-.143.354-.485.661-.484.217.131.355.361.56.498.233-.15.371-.506.688-.506.221.125.344.386.576.485.321-.29.65-.59.919-.935-.001-.196-.265-.303-.37-.463-.22-.193-.404-.549-.747-.475-.464.037-.94-.011-1.408.007-1.135 0-2.28.028-3.409-.028-.31-.266-.475-.681-.855-.871a2.335 2.335 0 0 0-1.354-.392zm-.943 1.556c.678-.017 1.083.946.59 1.415-.398.439-1.252.296-1.42-.29-.185-.529.248-1.184.83-1.125z"/><path fill="#0071BC" d="M294.307 297.937c-.713 0-1.091.389-1.266.845l-.928 2.395c-.367.047-1.019.479-1.019 1.296v3.044h.902v.974c0 1.198 1.695 1.185 1.695 0v-.974h6.1v.974c0 1.185 1.695 1.198 1.695 0v-.974h.902v-3.044c0-.817-.651-1.249-1.019-1.296l-.929-2.395c-.175-.456-.553-.845-1.266-.845h-4.867zm-.011.871h4.891c.306.003.437.194.523.459l.699 1.884h-7.337l.699-1.884c.088-.265.219-.456.525-.459zm-1.424 3.259c.433 0 .782.36.782.807 0 .445-.35.808-.782.808s-.783-.362-.783-.808c0-.446.35-.807.783-.807zm7.74 0c.433 0 .783.36.783.807a.797.797 0 0 1-.783.808.796.796 0 0 1-.783-.808c0-.446.352-.807.783-.807z"/></svg>