<svg xmlns="http://www.w3.org/2000/svg" width="580" height="580" xml:space="preserve"><path fill="#754C24" d="M295.86 287.185c1.242-.576 2.14-2.244 2.14-4.212 0-2.445-2.04-5.123-3.097-5.123s-1.214 15.161-1.214 15.161h2.428l-.257-5.826zM288.59 288.175c1.242-.577 1.696-1.318 1.696-3.286l-.323-6.693a.231.231 0 0 0-.231-.231h-.152a.231.231 0 0 0-.231.231l.107 6.693h-.668l-.169-6.758a.232.232 0 0 0-.231-.231h-.198a.232.232 0 0 0-.231.231l.092 6.758h-.83l.092-6.758a.232.232 0 0 0-.232-.231h-.198a.231.231 0 0 0-.231.231l-.169 6.758h-.655l.108-6.692a.232.232 0 0 0-.231-.232h-.152a.231.231 0 0 0-.231.232l-.336 6.692c0 1.968.453 2.709 1.695 3.286l-.257 4.835h2.427l-.261-4.835z"/></svg>