<svg xmlns="http://www.w3.org/2000/svg" width="580" height="580" xml:space="preserve"><path fill="none" stroke="#0092DA" stroke-width=".691" stroke-linecap="round" d="m294.564 272.713-2.838 2.838M298.407 271.633l-2.838 2.838M293.844 276.676l-2.229 2.229M299.647 273.83l-2.839 2.839M306.159 273.215l-2.84 2.839M309.379 272.951l-2.1 2.024M309.456 275.729l-2.177 2.126M305.799 276.727l-.98.904M302.458 274.35l-1.412 1.363M303.056 271.242l-1.668 1.719"/><g fill="#0092DA" stroke="#0092DA" stroke-linecap="round" stroke-linejoin="round"><path stroke-width=".67355456" d="m292.79 281.445 7.54-4.02 7.537 4.02-.505.514-2.52-1.017-4.516-.543-4.528.535-2.505 1.013-.503-.502z"/><path stroke-width=".7110712" d="M304.309 280.901h.968v8.125h-.968zM295.325 280.901h.968v8.125h-.968z"/></g></svg>