<svg xmlns="http://www.w3.org/2000/svg" width="400" height="400" xml:space="preserve"><path fill="#903B89" d="M206.745 204.619c-.276.041-.917-1.29-.579-1.662.721-.998 1.914-1.592 2.447-2.737.102-.278.35-.371.605-.468.502-.213.924-.656 1.336-1.014 1.408-1.271 2.672-2.701 4.09-3.965.654-.599 1.281-1.246 2.033-1.722.303-.053.5.146.662.405.447.677.812 1.337.895 2.157a3.251 3.251 0 0 1-.418 1.808c-.314.543-.717 1.038-.951 1.627-.352.759-.519 1.629-.326 2.453-.295.19-.592.354-.742.397-.024.007-.346-.262-.497-.402-.067-.175-.054-.324-.036-.55.027-.563.052-1.141-.042-1.699-.056-.225-.163-.336-.376-.102a8.31 8.31 0 0 0-1.066 1.272 9.523 9.523 0 0 0-.707 1.432c-.112.312-.201.634-.336.938-.316.684-1.135.84-1.768 1.102-1.369.397-2.785.814-4.224.73z"/></svg>