<svg xmlns="http://www.w3.org/2000/svg" width="580" height="580" xml:space="preserve"><path fill="#93278F" d="M288.566 293.429c-.952 0-1.457.52-1.69 1.128l-1.237 3.195c-.491.062-1.36.639-1.36 1.729v4.063h1.204v1.299c0 1.599 2.263 1.58 2.263 0v-1.299h8.14v1.299c0 1.58 2.263 1.599 2.263 0v-1.299h1.205v-4.063c0-1.091-.87-1.667-1.36-1.729l-1.239-3.195c-.232-.608-.737-1.128-1.689-1.128h-6.5zm-.014 1.163H295.08c.407.004.582.259.699.612l.933 2.515h-9.792l.933-2.515c.116-.353.291-.608.699-.612zm-1.901 4.349c.578 0 1.045.481 1.045 1.077 0 .595-.467 1.077-1.045 1.077-.577 0-1.044-.482-1.044-1.077-.001-.595.467-1.077 1.044-1.077zm10.331 0c.577 0 1.045.481 1.045 1.077 0 .595-.468 1.077-1.045 1.077s-1.047-.482-1.047-1.077c.001-.595.47-1.077 1.047-1.077z"/></svg>