<svg xmlns="http://www.w3.org/2000/svg" width="400" height="400" xml:space="preserve"><path fill="#93278F" d="M191.402 180.303s1.971-.396 2.503-.415c.531-.018 2.663.217 3.006.208.341-.009 2.844-.117 3.348-.117.503 0 1.8.071 2.34.117.54.045 1.999.208 1.999.208s-.271 1.422-.289 1.727c-.018.307-.576 3.132-.541 3.402.037.271.145 2.25-.431 2.717-.575.469-2.34.541-2.682.541-.343 0-5.922.09-6.219.072-.297-.018-.945.144-1.431-.215-.487-.36-.594-1.171-.685-1.549-.09-.378-.216-2.393-.27-2.843-.053-.451-.648-3.853-.648-3.853z"/><path fill="#93278F" stroke="#93278F" stroke-width=".9" d="M195.615 180.375s.107-2.593.503-3.331c.397-.738.793-1.836 1.278-2.07.486-.234 1.062-.072 1.404.27.342.342 1.278 2.034 1.368 3.384.09 1.35.163 1.747.163 1.747h-.469s-.107-1.819-.324-2.539c-.216-.72-.828-2.304-1.277-2.376-.45-.072-.829-.035-1.044.325-.216.359-.54 1.313-.648 2.033-.107.72-.162 2.557-.162 2.557h-.792z"/></svg>