<svg xmlns="http://www.w3.org/2000/svg" width="580" height="580" xml:space="preserve"><path fill="none" stroke="#93278F" stroke-width=".78" d="M284.119 287.655a2.312 2.312 0 1 0 4.625-.001 2.312 2.312 0 0 0-4.625.001zM294.029 287.61a2.312 2.312 0 1 0 4.624 0 2.312 2.312 0 0 0-4.624 0z"/><path fill="none" stroke="#93278F" stroke-width=".616" stroke-linejoin="round" d="m294.51 283.676-5.946.03-2.102 3.904h4.024l4.205-2.853"/><path fill="#93278F" d="M294.281 281.336c.323 0 .567-.007.817.375a.67.67 0 0 1 .079.438.807.807 0 0 1-.26.452c-.162.136-.317.125-.292.247.032.156.13.374.235.727.107.358.234.797.359 1.229l.345 1.189.124.415c.031.104.06.185.057.179.102.178.115.294.285.445.19.167.346.29.399.327.136.099.199.309.128.412-.091.141-.279.163-.416.121a1.6 1.6 0 0 1-.576-.311l-.002-.003-.002-.001c-.333-.286-.456-.632-.469-.652l-.018-.027-.012-.03c-.029-.071-.046-.133-.08-.245s-.078-.256-.127-.423c-.098-.334-.22-.76-.345-1.192s-.252-.868-.357-1.222c-.106-.354-.173-.645-.197-.706a.763.763 0 0 1-.05-.476c.041-.163.164-.294.274-.325.252-.07.185-.251.056-.252l-1.08-.002-.002-.69 1.127.001z"/><path fill="#FFF" stroke="#93278F" stroke-width=".738" d="m290.409 287.488-2.039-4.991"/><path fill="#FFF" stroke="#93278F" stroke-width=".269" stroke-linecap="round" d="m291.109 286.214-1.231 2.867"/><path fill="#93278F" stroke="#93278F" stroke-width=".939" d="M289.811 287.618c0 .318.292.576.652.576.36 0 .652-.258.652-.576 0-.318-.292-.576-.652-.576-.36 0-.652.258-.652.576z"/><path fill="#FFF" stroke="#93278F" stroke-width=".376" stroke-linecap="round" d="m291.658 286.215-1.089.01M290.433 289.04l-1.088.01"/><path fill="#93278F" d="M287.372 282.052h2.559c.096 0 .219.169.096.281-.133.127-1.333.388-1.333.388s-.329.09-.504.069c-.176-.021-.781-.075-.818-.738z"/></svg>