<svg xmlns="http://www.w3.org/2000/svg" width="580" height="580" xml:space="preserve"><path fill="#93278F" stroke="#93278F" stroke-width=".128" stroke-linecap="round" stroke-linejoin="round" d="m290 282.875-.639.933h4.315l-.583-.933H290zm.895.112h1.296v.731h-1.296v-.731zm4.292.283-.226.533h1.705l-.207-.533h-1.272zm-8.306.184-.11.345h1.147l-.08-.345h-.957z"/><path fill="#93278F" d="M286.199 284.109a1.11 1.11 0 0 0-1.112 1.112v5.945a1.11 1.11 0 0 0 1.112 1.112h10.664a1.11 1.11 0 0 0 1.112-1.112v-5.945a1.11 1.11 0 0 0-1.112-1.112h-10.664zm6.506 1.075a2.953 2.953 0 1 1-2.954 2.953 2.953 2.953 0 0 1 2.954-2.953z"/><path fill="#93278F" d="M294.47 288.137a1.765 1.765 0 0 1-3.529.001v-.001a1.764 1.764 0 1 1 3.529 0c0-.001 0-.001 0 0z"/></svg>