<svg xmlns="http://www.w3.org/2000/svg" width="580" height="580" xml:space="preserve"><path opacity=".8" fill="#4D4D4D" stroke="#4D4D4D" stroke-width=".237" stroke-linecap="round" stroke-linejoin="round" d="m263.787 283.251-.414 10.978c2.534.036 4.505.028 7.077.028v-3.41h-5.509l-.178-7.596h-.976z"/><path fill="#4D4D4D" stroke="#4D4D4D" stroke-width=".06" stroke-linecap="round" d="M260.786 287.517c-.255-.221 2.553-3.715 2.616-4.046.063-.332-1.248-4.617-.93-4.728.319-.111 1.941 4.068 2.196 4.289s4.623 1.228 4.559 1.559c-.063.332-4.493-.353-4.812-.243s-3.374 3.39-3.629 3.169z"/><path fill="#4D4D4D" stroke="#4D4D4D" stroke-width=".06" stroke-linecap="round" d="M264.656 283.645a.495.495 0 1 1-.991-.001.495.495 0 0 1 .991.001z"/></svg>