<svg xmlns="http://www.w3.org/2000/svg" width="580" height="580" xml:space="preserve"><path fill="none" stroke="#93278F" stroke-width=".845" stroke-linecap="round" stroke-linejoin="round" d="m304.715 296.476-1.482.84-1.899 8.09v1.714h-8.666"/><path fill="none" stroke="#93278F" stroke-width=".845" stroke-linecap="round" stroke-linejoin="round" d="M302.925 298.686h-12.687l1.49 5.814 9.586 1.337 1.611-7.151z"/><path fill="none" stroke="#93278F" stroke-width=".564" stroke-linecap="round" d="M292.395 298.72v5.324M291.146 301.038h10.763"/><path fill="none" stroke="#93278F" stroke-width=".6" stroke-linecap="round" stroke-linejoin="round" d="M293.766 308.137c0 .549-.426.994-.95.994-.524-.001-.95-.445-.95-.994s.426-.993.95-.993.95.444.95.993M301.115 308.197c0 .549-.426.993-.95.993-.525 0-.95-.445-.95-.993 0-.549.426-.994.95-.994s.95.445.95.994"/><path fill="none" stroke="#93278F" stroke-width=".564" stroke-linecap="round" d="M295.007 298.72v5.926M297.739 298.72v6.193M300.412 298.72v6.594M291.68 303.411h9.694"/></svg>