<svg xmlns="http://www.w3.org/2000/svg" width="580" height="580" xml:space="preserve"><path fill="none" stroke="#93278F" stroke-width=".845" stroke-linecap="round" stroke-linejoin="round" d="m304.715 296.477-1.48.84-1.899 8.091v1.714h-8.666"/><path fill="#5CA855" stroke="#93278F" stroke-width=".845" stroke-linecap="round" stroke-linejoin="round" d="M302.925 298.686h-12.687l1.49 5.814 9.586 1.337 1.611-7.151z"/><path fill="none" stroke="#93278F" stroke-width=".6" stroke-linecap="round" stroke-linejoin="round" d="M293.766 308.137c0 .549-.428.994-.95.994-.524-.001-.95-.445-.95-.994s.426-.992.95-.992.95.443.95.992M301.115 308.197c0 .549-.426.992-.95.992-.525 0-.95-.444-.95-.992 0-.549.426-.994.95-.994s.95.445.95.994"/></svg>