<svg xmlns="http://www.w3.org/2000/svg" width="580" height="580" xml:space="preserve"><path fill="#0071BC" d="M292.799 270.8c-.226 0-.364.129-.364.383v.633h-1.366c-.735 0-1.125.395-1.305.856l-.956 2.426c-.38.047-1.05.484-1.05 1.313v3.086h.93v.986c0 1.214 1.748 1.2 1.748 0v-.986h6.286v.986c0 1.2 1.748 1.214 1.748 0v-.986h.929v-3.086c0-.83-.671-1.266-1.05-1.313l-.956-2.426c-.181-.461-.57-.856-1.306-.856h-1.35v-.633c0-.253-.14-.382-.364-.382H292.798zm-1.741 1.899H296.099c.314.003.45.196.54.465l.72 1.876h-7.56l.72-1.876c.089-.268.223-.462.539-.465zm-1.468 3.276c.446 0 .807.366.807.818 0 .452-.361.818-.807.818s-.807-.366-.807-.818a.812.812 0 0 1 .807-.818zm7.976 0c.446 0 .808.366.808.818a.812.812 0 0 1-.808.818.812.812 0 0 1-.806-.818c0-.451.36-.818.806-.818zM287.919 282.728h2.905v.759h-.975v2.313h-.956v-2.313h-.975v-.759zm5.242 2.565h-1.088l-.15.507h-.977l1.162-3.072h1.043l1.162 3.072h-1l-.152-.507zm-.2-.664-.342-1.104-.34 1.104h.682zm1.443-1.901h1.052l.549.945.531-.945h1.042l-.962 1.488 1.053 1.584h-1.073l-.609-.987-.612.987h-1.067l1.067-1.601-.971-1.471zm3.609 0h.958v3.072h-.958v-3.072z"/></svg>