<svg xmlns="http://www.w3.org/2000/svg" width="580" height="580" xml:space="preserve"><g fill="#63472D"><path d="M301.099 289.334c-.604-.328-3.289-.816-6.697 3.942-3.588 5.012-2.17 7.582-1.597 7.965l2.33-3.34c-.465-.326-.207-.9.418-2.018.412-.743.988-1.616 1.675-2.404.479-.555.999-1.06 1.487-.72l2.384-3.425zM294.003 302.083c.217.15.493.083.63-.114l.004-.002s1.814-2.604 1.816-2.605a.452.452 0 0 0-.114-.628l-.945-.66-2.336 3.35.945.66zM299.92 293.6c.216.148.494.08.63-.116l.004-.002 1.866-2.679a.448.448 0 0 0-.111-.627l-.946-.66-2.387 3.423.943.66z"/></g></svg>