<svg xmlns="http://www.w3.org/2000/svg" width="580" height="580" xml:space="preserve"><path fill="#FFF" stroke="#603813" stroke-width=".633" d="M275.686 284.965c-.307.001-.647.246-.864.451-.929.712-1.607 1.223-3.159 1.641-.589.178-1.79-.039-2.967-.122-.751-.117-.107 1.225-.007 1.771.669 2.092 1.438 4.211 2.796 5.966.774.862 1.846 1.612 3.047 1.6.992-.083 1.812-.88 2.044-1.829a3.33 3.33 0 0 0 .056-.195c.026-.099.052-.198.076-.299a2.477 2.477 0 0 1-.322-.744 4.25 4.25 0 0 1-.055-.193c-.54-2.019-.506-4.142-.272-6.202.068-.33.151-.658.241-.983-.062-.207-.124-.414-.184-.621a.499.499 0 0 0-.43-.241z"/><path fill="#FFF" stroke="#603813" stroke-width=".633" d="M276.33 293.012c-.54-2.019-.505-4.143-.271-6.203.198-.962.516-1.896.786-2.839.346-.509.963-.103 1.294.209.928.713 1.608 1.224 3.159 1.642.589.178 1.789-.039 2.966-.122.752-.117.108 1.225.008 1.771-.668 2.092-1.438 4.21-2.796 5.966-.774.861-1.845 1.613-3.046 1.6-.993-.083-1.812-.88-2.044-1.83-.021-.064-.038-.129-.056-.194z"/><path fill="#603813" stroke="#603813" stroke-width=".633" d="M277.229 283.984c-.246.063-.211.384-.292.57-.362 1.159-.727 2.338-.741 3.563-.112 1.841-.04 3.742.601 5.483.378.785 1.284 1.353 2.163 1.13 1.24-.256 2.229-1.188 2.872-2.244 1.207-1.886 1.888-4.035 2.505-6.171.012-.113.058-.288-.011-.37-.595.041-1.194.12-1.792.172-.653.062-1.319.001-1.929-.237-1.09-.361-2.049-1.011-2.922-1.743a.794.794 0 0 0-.454-.153zm1.949 2.893c.517-.017.752.722.401 1.059-.474.51-1.216.853-1.917.672-.43-.154-.673-.774-.346-1.137.516-.447 1.256-.37 1.862-.594zm2.089.459c.542-.016.938.497 1.008.993.142.342.392.726.214 1.103-.13.284-.499.336-.765.231-.637-.147-1.062-.778-1.074-1.418-.058-.367.115-.838.522-.899a.613.613 0 0 1 .095-.01zm-2.103 3.345c.669.011 1.281.418 1.673.938.25.428.13 1.113-.376 1.289-.347.076-.576-.257-.853-.399-.442-.283-1.008-.287-1.491-.118-.237.074-.56.021-.65-.242-.154-.363.066-.785.384-.979.376-.29.834-.488 1.313-.489z"/><path fill="#603813" d="M273.184 294.098c-.493-.068-.965-.361-1.202-.807.263-.291.638.005.945.033.716.09 1.385-.381 1.734-.979.226-.217.256-.808.649-.721.283.156.229.518.161.78-.045.35-.215.664-.439.932-.177.236-.353.508-.659.586-.394.074-.783.26-1.189.176zm-1.749-3.827c-.378-.223-.833-.36-1.1-.729-.06-.421.471-.696.824-.531.416.13.809.368 1.072.721.175.317-.128.818-.506.655-.1-.032-.193-.079-.29-.116zm2.407-.78c-.264-.347-.267-.95.144-1.188.27-.178.656-.3.942-.09.15.31-.115.594-.234.862-.072.271-.25.575-.56.602-.123.003-.234-.08-.292-.186z"/></svg>