<svg xmlns="http://www.w3.org/2000/svg" version="1.0" width="580" height="580"><defs><linearGradient id="a"><stop style="stop-color:#fff;stop-opacity:.341667" offset="0"/><stop style="stop-color:#fff;stop-opacity:0" offset="1"/></linearGradient><linearGradient id="b"><stop style="stop-color:#fff;stop-opacity:0" offset="0"/><stop style="stop-color:#ffa617;stop-opacity:.733333" offset="1"/></linearGradient></defs><path d="M66.275 1.768c-41.335 0-64.571 21.371-64.571 65.036v450.123c0 40.844 20.895 62.229 62.192 62.229H515.92c41.307 0 62.229-20.315 62.229-62.229V66.804c0-42.601-20.922-65.036-63.521-65.036-.004 0-448.495-.143-448.353 0z" style="fill:#111;stroke:#eee;stroke-width:3.40799999"/><path style="fill:#fff" d="M77.051 358.937h361.106v63.906H77.051zM455.202 359.176h18.233v63.669h-18.233zM489.293 359.176h18.233v63.669h-18.233zM363.085 275.195c-27.5 0-49.89-22.272-49.89-49.77 0-5.227.831-10.216 2.316-14.968-34.091-.593-61.47-28.448-61.47-62.659 0-34.447 27.617-62.302 61.945-62.777v18.114c-24.35.357-43.95 20.194-43.95 44.663 0 24.589 20.075 44.664 44.663 44.664 3.148 0 6.058-.357 8.909-.95a9.463 9.463 0 0 1 2.554-.357c5.82 0 10.572 4.751 10.572 10.572 0 2.197-.713 4.157-1.842 5.939-3.385 5.108-5.464 11.166-5.464 17.758 0 17.402 14.136 31.656 31.657 31.656h65.45c24.826 0 44.782 20.075 44.782 44.782l.119 35.755h-18.234v-35.695c0-14.73-11.938-26.667-26.667-26.667h-65.45z"/><path d="M377.576 205.944c6.712-8.672 10.69-19.481 10.69-31.3 0-28.508-23.103-51.612-51.611-51.612h-4.039v-18.234h4.039c38.486 0 69.845 31.3 69.845 69.846a69.422 69.422 0 0 1-6.355 28.983l12.77-.118c52.324 0 94.671 42.465 94.671 94.671v39.437h-18.233V298.18c0-42.228-34.21-76.438-76.438-76.438h-26.727c-5.583 0-10.215-4.633-10.215-10.334 0-2.079.712-3.801 1.603-5.464z" style="fill:#fff"/></svg>