<svg xmlns="http://www.w3.org/2000/svg" width="580" height="580" xml:space="preserve"><path fill="#63472D" d="M288.836 294.938h1.289v-16.247h-1.289v16.247zm-3.876-13.279h-2.603c-.406 0-.771.146-1.095.438a1.677 1.677 0 0 0-.486.754l-1.119 3.721a.604.604 0 0 0-.048.219c0 .373.187.56.559.56.26 0 .43-.146.511-.438l1.021-3.405h.559l-1.678 6.056h1.63v4.718c0 .422.203.633.608.633s.608-.211.608-.633v-4.742h.608v4.767c0 .405.203.608.608.608s.608-.203.608-.608v-4.743h1.629l-1.702-6.056h.583l1.021 3.405c.081.292.251.438.511.438.373 0 .56-.187.56-.56a.49.49 0 0 0-.048-.219l-1.119-3.721c-.081-.26-.268-.511-.559-.754-.356-.292-.746-.438-1.167-.438zm-1.24-.268c.373 0 .688-.129.948-.389.26-.259.39-.567.39-.924 0-.373-.13-.689-.39-.948a1.29 1.29 0 0 0-.948-.389c-.357 0-.665.13-.925.389a1.29 1.29 0 0 0-.389.948c0 .357.13.665.389.924.26.26.568.389.925.389zm11.376-.023c.357 0 .665-.13.925-.39.26-.259.39-.567.39-.924 0-.373-.13-.685-.39-.936a1.285 1.285 0 0 0-.925-.377c-.356 0-.664.126-.924.377a1.251 1.251 0 0 0-.389.936c0 .357.13.665.389.924.26.26.567.39.924.39zm1.727.267h-3.479c-.47 0-.871.166-1.203.499a1.669 1.669 0 0 0-.499 1.229v4.037c0 .389.179.584.535.584.34 0 .511-.195.511-.584v-3.94h.632v10.701c0 .486.243.729.729.729.487 0 .73-.243.73-.729v-6.202h.632v6.202c0 .486.243.729.729.729.503 0 .754-.243.754-.729V283.46h.608v3.94c0 .405.17.608.511.608s.511-.203.511-.608v-4.013c0-.47-.158-.879-.474-1.228-.315-.35-.724-.524-1.227-.524z"/></svg>