<svg xmlns="http://www.w3.org/2000/svg" width="580" height="580" xml:space="preserve"><g stroke="#4D4D4D"><path fill="none" stroke-width="1.641" stroke-linecap="round" d="m286.151 285.884 11.085-2.472"/><path opacity=".75" fill="#4D4D4D" stroke-width=".03" d="M296.156 286.659a.434.434 0 0 0-.302.125.431.431 0 0 0-.125.301v5.116c0 .111.046.223.125.302s.19.125.302.125h1.556c.111 0 .223-.046.302-.125s.125-.19.125-.302v-5.116a.43.43 0 0 0-.427-.426h-1.556zM284.861 282.369a.537.537 0 0 0-.376.156.537.537 0 0 0-.155.376v9.195c0 .14.057.278.155.376a.537.537 0 0 0 .376.156h1.346a.542.542 0 0 0 .376-.156.537.537 0 0 0 .155-.376v-4.634c-.672.207-1.479.023-1.913-.547-.659-.788-.323-2.181.648-2.548l1.265-.292V282.9a.537.537 0 0 0-.155-.376.537.537 0 0 0-.376-.156h-1.346v.001z"/></g><path fill="#4D4D4D" stroke="#4D4D4D" stroke-width=".03" d="M293.976 295.745c-.357.199-.967.399-1.639.399-1.039 0-1.974-.42-2.562-1.197a2.947 2.947 0 0 1-.588-1.365h-.682v-.745h.577v-.179c0-.105.011-.21.011-.315h-.588v-.745h.703c.126-.567.389-1.05.725-1.428.588-.682 1.428-1.082 2.426-1.082.63 0 1.197.147 1.575.315l-.294 1.196a3.176 3.176 0 0 0-1.177-.251c-.493 0-.955.178-1.28.567-.158.168-.263.409-.337.683h2.615v.745h-2.772c-.011.105-.011.21-.011.326v.168h2.783v.745h-2.636c.073.315.189.557.347.735.336.378.829.535 1.354.535.482 0 .977-.157 1.197-.272l.253 1.165z"/></svg>