<svg xmlns="http://www.w3.org/2000/svg" width="580" height="580" xml:space="preserve"><path stroke="#000" stroke-width=".05" stroke-linecap="round" d="M303.858 284.045c-.008.448-.452.807-.992.8s-.972-.375-.964-.823.452-.806.992-.8c.535.007.966.37.964.814"/><path fill="none" stroke="#000" stroke-width=".792" stroke-linecap="round" d="M302.856 284.733v.037c0 .973-.653 9.451-4.817 15.008"/><path fill="none" stroke="#000" stroke-width=".792" stroke-linecap="round" d="M302.845 284.715v.037c0 .973.653 9.45 4.817 15.008"/><path fill="none" stroke="#000" stroke-width=".5" stroke-linecap="round" d="M307.912 279.865c2.608 2.085 2.838 5.672.513 8.011a6.224 6.224 0 0 1-1.147.905"/><path fill="none" stroke="#000" stroke-width=".5" stroke-linecap="round" d="M306.206 281.279c1.747 1.239 2.044 3.513.661 5.08-.3.34-.665.628-1.079.853M304.967 282.69c.88.578 1.029 1.639.333 2.37a1.96 1.96 0 0 1-.544.398M297.994 279.874c-2.608 2.085-2.838 5.671-.513 8.011.341.342.726.646 1.147.905"/><path fill="none" stroke="#000" stroke-width=".5" stroke-linecap="round" d="M299.7 281.288c-1.747 1.239-2.043 3.514-.661 5.08.3.34.665.628 1.079.853M300.939 282.699c-.88.578-1.029 1.639-.333 2.37.151.158.336.293.544.397"/><path fill="none" stroke="#000" stroke-width=".501" stroke-linecap="round" d="m303.869 290.814-2.74 2.537M301.85 290.814l2.74 2.537"/><path fill="none" stroke="#000" stroke-width=".617" stroke-linecap="round" d="m301.67 293.344 4.289 3.971M304.035 293.344l-4.289 3.971"/></svg>