<svg xmlns="http://www.w3.org/2000/svg" width="580" height="580" xml:space="preserve"><path fill="#FFF" stroke="#FFF" stroke-width=".045" d="m286.944 280.07-9.074 6.909h1.814v11.083h14.519v-11.083h1.814l-9.073-6.909z"/><path fill="none" stroke="#3B3C3D" stroke-width=".72" stroke-linejoin="round" d="m286.944 279.71-9.074 6.909h1.814v11.443h14.519v-11.443h1.814l-9.073-6.909z"/><path opacity=".66" fill="#646569" d="M282.377 291.204h9.262l1.657 1.433h-12.595l1.676-1.433zM280.722 297.036h12.573l.002-3.608h-12.595l.02 3.608z"/><path fill="#646569" d="M284.149 284.316c-.344 0-.643.124-.898.373s-.383.551-.383.908.128.661.383.909c.255.249.554.373.898.373l.038-.001.039.001c.344 0 .644-.124.899-.373s.381-.552.381-.909c0-.356-.126-.659-.381-.908s-.555-.373-.899-.373h-.077zm-.974 2.849a.809.809 0 0 0-.211.025 1.104 1.104 0 0 0-.889.334 1.104 1.104 0 0 0-.301.779l.023 2.546v.004a2.49 2.49 0 0 1 .368-.224c1.427-.042 2.856-.045 4.286-.041l-.021-2.307a1.103 1.103 0 0 0-.295-.75 1.106 1.106 0 0 0-.73-.343.837.837 0 0 0-.202-.023h-2.028zM289.835 284.316c.344 0 .643.124.897.373s.384.551.384.908-.13.661-.384.909a1.245 1.245 0 0 1-.897.373l-.039-.001-.038.001c-.344 0-.644-.124-.899-.373s-.381-.552-.381-.909c0-.356.126-.659.381-.908s.555-.373.899-.373h.077zm.976 2.849a.83.83 0 0 1 .211.025c.041-.004.082-.005.125-.004.285.007.565.131.764.338.197.207.309.493.302.779l-.022 2.546v.004a2.45 2.45 0 0 0-.369-.224 132.969 132.969 0 0 0-4.285-.041l.021-2.307c-.001-.275.107-.55.295-.75.188-.201.456-.326.73-.343a.835.835 0 0 1 .201-.023h2.027z"/></svg>