<svg xmlns="http://www.w3.org/2000/svg" width="580" height="580" xml:space="preserve"><path fill="#93278F" stroke="#93278F" stroke-width=".274" stroke-linecap="round" stroke-linejoin="round" d="m292.354 281.569 2.828-.633c1.293-.199 1.96.071 2.396.512 1.703-.409 2.392.175 2.963.874l-.371.495c-.457-.636-1.218-1.235-2.388-.993.149.77.626 1.391 1.277 1.919.413 1 .84 2.469 1.535 3.311l-.431.663c-.47-1.108-1.15-2.723-2.122-3.35-.747-.213-1.438-.405-1.972-1.016l-.356-.116c-.876.809-2.216 1.091-3.441 1.11-.83.876-1.53 2.107-2.693 3.582l-.808-.361c.966-.751 1.705-2.399 2.531-3.462-.035-1.323-.801-2.479-1.322-2.839-.522-.361-1.148.392-1.749.484-.344.054-.604-.444-.404-.693.208-.26 1-1.17 1.697-1.537l.27-.693.162.663c.833.543 1.7.929 2.398 2.08z"/><path fill="none" stroke="#93278F" stroke-width=".9" stroke-linecap="round" d="M301.972 286.879a13.2 13.2 0 0 1-7.108 2.063c-2.718 0-5.245-.817-7.348-2.22"/></svg>