<svg xmlns="http://www.w3.org/2000/svg" width="580" height="580" xml:space="preserve"><path opacity=".6" d="M297.482 286.33c0 1.413-1.164 2.559-2.602 2.559s-2.604-1.145-2.604-2.558v-.001c0-1.413 1.164-2.559 2.602-2.559s2.604 1.145 2.604 2.559c0-.001 0 0 0 0z"/><path opacity=".2" d="M297.482 291.359c0 1.414-1.164 2.559-2.602 2.559-1.438.001-2.604-1.145-2.604-2.557v-.002c0-1.413 1.164-2.559 2.602-2.559s2.604 1.146 2.604 2.559z"/><path opacity=".3" fill="#FFF" d="M297.482 296.332c0 1.413-1.164 2.559-2.602 2.559s-2.604-1.144-2.604-2.557v-.002c0-1.412 1.164-2.559 2.602-2.559s2.604 1.145 2.604 2.559z"/><path fill="#FFF" d="M294.93 283.351h-.104c-1.479-.002-2.838 1.242-2.912 2.7-.047.75.005 1.5-.016 2.25.006 2.803-.019 5.608.016 8.411.123 1.339 1.291 2.503 2.658 2.622 1.291.143 2.627-.623 3.093-1.822.244-.582.239-1.225.22-1.846-.008-3.227.02-6.453-.016-9.68-.122-1.331-1.273-2.489-2.633-2.617a3.12 3.12 0 0 0-.306-.018zm0 .73c1.269 0 2.297 1.011 2.297 2.258s-1.029 2.257-2.297 2.257c-1.27 0-2.298-1.011-2.298-2.257s1.028-2.258 2.298-2.258zm0 4.997c1.269 0 2.297 1.011 2.297 2.257 0 1.248-1.029 2.258-2.297 2.258-1.27 0-2.298-1.01-2.298-2.258 0-1.247 1.028-2.257 2.298-2.257zm0 4.996c1.269 0 2.297 1.012 2.297 2.258 0 1.247-1.029 2.257-2.297 2.257-1.27 0-2.298-1.01-2.298-2.257 0-1.246 1.028-2.258 2.298-2.258z"/><path d="M294.93 283.351h-.104c-1.479-.002-2.838 1.242-2.912 2.7-.047.75.005 1.5-.016 2.25.006 2.803-.019 5.608.016 8.411.123 1.339 1.291 2.503 2.658 2.622 1.291.143 2.627-.623 3.093-1.822.244-.582.239-1.225.22-1.846-.008-3.227.02-6.453-.016-9.68-.122-1.331-1.273-2.489-2.633-2.617a3.12 3.12 0 0 0-.306-.018zm0 .73c1.269 0 2.297 1.011 2.297 2.258s-1.029 2.257-2.297 2.257c-1.27 0-2.298-1.011-2.298-2.257s1.028-2.258 2.298-2.258zm0 4.997c1.269 0 2.297 1.011 2.297 2.257 0 1.248-1.029 2.258-2.297 2.258-1.27 0-2.298-1.01-2.298-2.258 0-1.247 1.028-2.257 2.298-2.257zm0 4.996c1.269 0 2.297 1.012 2.297 2.258 0 1.247-1.029 2.257-2.297 2.257-1.27 0-2.298-1.01-2.298-2.257 0-1.246 1.028-2.258 2.298-2.258z"/></svg>