<svg xmlns="http://www.w3.org/2000/svg" width="580" height="580" xml:space="preserve"><g fill="#0071BC"><path stroke="#0071BC" stroke-width=".62962832" d="M287.13 286.522c-.33 0-.494.271-.629.551-.553 1.334-1.108 2.31-1.312 4.125-.042 1.278-.104 2.547-.088 3.855 0 .773.898 1.96 1.65 1.96H301.1v-1.444a.925.925 0 0 1-.086-.023v-1.306l.086.016v-.405c-2.97-.949-5.473-2.882-6.855-6.296-.238-.616-.71-.99-1.33-1.035h-5.783zm-.048.86h5.586c.363 0 .685 1.377.947 2.08.083.23.018.595-.16.595h-7.266c-.167 0-.236-.3-.167-.579.354-.696.76-2.097 1.06-2.097zm7.783 3.025c.407.398.847.944 1.227 1.194v2.426l-1.107-.51c-.104-1.022-.116-2.066-.12-3.11zm1.859 1.759c.456.389.643.468 1.039.757l.016 1.866-1.055-.445c-.026-1.02.006-1.134 0-2.178zm-9.91.71h.035a.666.666 0 0 1 0 1.334.666.666 0 0 1-.035-1.333zm5.479 0h.032c.368 0 .665.3.665.667a.665.665 0 1 1-1.329 0 .671.671 0 0 1 .632-.666zm6.016.38 1.033.424v1.535c-.38-.042-.732-.13-1.033-.294v-1.665zm1.458.63.82.213v1.391a2.477 2.477 0 0 1-.82-.148v-1.456z"/><path d="M291.596 297.353v.688h-3.041v-.685h-2.077v.694h-1.377l-.002.975h9.699c1.363-.618 3.75-1.396 6.298-1.503v-.169h-9.5z"/></g></svg>