<svg xmlns="http://www.w3.org/2000/svg" width="400" height="400" xml:space="preserve"><path fill="#29ABE2" d="M197.366 192.92c-.771 0-1.18.421-1.369.914l-1.001 2.588c-.398.05-1.102.517-1.102 1.4v3.29h.976v1.054c0 1.294 1.833 1.279 1.833 0v-1.054H203.297v1.054c0 1.279 1.83 1.294 1.83 0v-1.054h.979v-3.29c0-.884-.705-1.35-1.102-1.4L204 193.834c-.189-.492-.598-.914-1.369-.914h-5.265zm-.012.942h5.288c.328.003.471.21.566.496l.756 2.037h-7.932l.756-2.037c.094-.286.236-.493.566-.496zm-1.539 3.524c.468 0 .846.389.846.871s-.378.873-.846.873a.86.86 0 0 1-.846-.873.857.857 0 0 1 .846-.871zm8.369 0c.467 0 .846.389.846.871s-.379.873-.846.873c-.469 0-.85-.391-.85-.873s.381-.871.85-.871z"/><path fill="none" stroke="#29ABE2" d="M194.046 206.02s.979-1.533 2.708-1.533 3.85 2.12 6.264 2.12 2.675-1.06 2.675-1.06"/></svg>