<svg xmlns="http://www.w3.org/2000/svg" width="400" height="400" xml:space="preserve"><path fill="#903B89" d="M203.978 193.8s-.637-.417-1.174-.537-1.492-.179-2.188.119-1.115.656-1.394.955-.478.936-.478.936-.159-.358-.915-.558-1.572-.199-2.169 0-1.055.479-1.433.936-.537 1.273-.537 1.273.596.04 1.193 0 .797-.044 1.334.018.796.261.796.261-.598.04-1.035.458-.896 1.113-.995 1.83-.139 1.036-.079 1.493.219.975.219.975.557.001.915-.278.876-.854 1.095-1.174 1.114-1.334 1.114-1.334.139.737.338 1.075.298.479.637.736.955.517.955.517.159-1.016.159-1.214-.061-.716.159-1.034.379-.418.379-.418.338 1.333.397 2.029.159 1.97.04 2.746-.896 1.99-.896 1.99-.637-.26-1.114-.08-.956.457-1.194.796-.338.916-.338.916 1.632.199 2.269.259 2.348.021 2.984 0 2.886-.239 2.886-.239-.041-.577-.239-.855-.517-.537-.915-.696-1.433-.398-1.433-.398.08-1.075.04-1.95-.537-2.287-.736-2.785-.995-2.468-.995-2.468.757.298 1.095.438 1.353.676 1.73.796 1.214.219 1.214.219-.079-.916-.278-1.433-.776-1.412-1.254-1.771-2.467-1.095-2.467-1.095.815-.259 1.134-.418.676-.339.855-.518.319-.518.319-.518z"/></svg>