<svg xmlns="http://www.w3.org/2000/svg" width="580" height="580" xml:space="preserve"><path fill="#93278F" d="M284.313 283.58c-.641 0-.98.35-1.138.759l-.833 2.15c-.329.042-.915.43-.915 1.164v2.734h.811v.875c0 1.075 1.521 1.062 1.521 0v-.875h5.476v.875c0 1.062 1.521 1.075 1.521 0v-.875h.812v-2.734c0-.734-.585-1.122-.915-1.164l-.833-2.15c-.157-.409-.497-.759-1.137-.759h-4.37zm-.009.783h4.39c.273.002.392.174.47.412l.627 1.691H283.206l.627-1.691c.079-.238.196-.41.471-.412zm-1.279 2.926c.388 0 .703.324.703.725 0 .4-.315.725-.703.725s-.703-.325-.703-.725c0-.401.315-.725.703-.725zm6.951 0c.388 0 .703.324.703.725 0 .4-.315.725-.703.725a.715.715 0 0 1-.704-.725.714.714 0 0 1 .704-.725zM290.817 285.25l.827-.825 5.126 5.133-.826.825z"/><circle fill="#93278F" cx="290.596" cy="284.213" r="3.452"/><circle fill="#FFF" cx="290.596" cy="284.214" r="2.208"/></svg>