<svg xmlns="http://www.w3.org/2000/svg" version="1.0" width="580" height="580"><path d="M66.275 1.768c-41.335 0-64.571 21.371-64.571 65.036v450.123c0 40.844 20.894 62.229 62.192 62.229H515.92c41.307 0 62.229-20.316 62.229-62.229V66.804c0-42.601-20.922-65.036-63.522-65.036-.003 0-448.494-.143-448.352 0z" style="fill:#111;stroke:#eee;stroke-width:3.40799999"/><path d="M317.406 102c-2.612 1.875-5.077 3.975-7.469 6.188l8.657 18-13.813 6.656-6.5-13.531c-2.344 2.114-4.734 4.098-7.281 5.812l27.281 56.719-128.5 61.844-34.281-71.25c-.593.24-1.168.501-1.75.78-5.772 2.822-11.002 7.55-16.094 12.595l11.156-5.375 10.75 22.28-13.812 6.657L135.469 188c-1.833 1.843-3.66 3.715-5.5 5.5l132.906 276.219c2.763-2.778 5.543-5.588 8.375-8.188l-3.375 1.625-10.75-22.281 13.813-6.656 9.656 20.094a34.746 34.746 0 0 1 2.562-1.375c2.012-.966 4.088-1.672 6.219-2.22l-28.625-59.53 128.5-61.813L424.188 402c8.924-7.19 16.516-17.03 26.593-22.844L317.406 102zm14.875 52.688L343 176.968l-13.781 6.626-10.719-22.281 13.781-6.625zm-8.156 39.343 59.281 123.188-128.5 61.812-59.281-123.187 128.5-61.813zm32.594 11.406 10.719 22.282-13.813 6.625-10.719-22.281 13.813-6.625zm-183.469 25.75 10.719 22.282-13.781 6.656-10.75-22.281 13.812-6.656zm207.875 25 10.719 22.282-13.781 6.656-10.72-22.313 13.782-6.625zM197.656 281.97l10.75 22.281-13.812 6.625-10.719-22.281 13.781-6.625zm207.906 24.969 10.72 22.28-13.813 6.657-10.719-22.281 13.813-6.656zm-183.468 25.78L232.813 355l-13.782 6.625-10.75-22.281 13.813-6.625zm207.875 24.97L440.688 380l-13.782 6.625-10.719-22.281 13.782-6.656zm-183.438 25.78 10.719 22.282-13.813 6.656-10.718-22.312 13.812-6.625z" style="fill:#fff;fill-opacity:1;stroke:none" transform="matrix(1.05546 0 0 1.05546 5.237 67.003)"/><path d="M291 125.125a39.62 39.62 0 0 1-5.313 3.031c-14.978 6.682-34.337 3.29-49.125 9.563-15.066 6.202-25.097 21.68-39.062 27.719-13.229 5.534-28.921 1.703-42 7l34.281 71.25 128.5-61.844L291 125.125z" style="opacity:.3317308;fill:#fff;fill-opacity:1;stroke:none" transform="matrix(1.05546 0 0 1.05546 5.237 67.003)"/><path transform="matrix(.95109 -.45763 .45763 .95109 5.237 67.003)" style="opacity:.3317308;fill:#fff;fill-opacity:1;stroke:none" d="M65.343 315.359h142.605v136.712H65.343z"/><path d="m389.25 329.375-128.5 61.813 28.625 59.5c12.078-3.098 25.746-.614 37.5-5.532 13.965-6.04 24.027-21.516 39.094-27.719 14.788-6.272 34.146-2.88 49.125-9.562 3.262-1.527 6.237-3.573 9.094-5.875l-34.938-72.625z" style="opacity:.3317308;fill:#fff;fill-opacity:1;stroke:none" transform="matrix(1.05546 0 0 1.05546 5.237 67.003)"/><g style="fill:#fff;fill-opacity:1;stroke:#fff;stroke-width:10;stroke-linecap:round;stroke-linejoin:round;stroke-miterlimit:4;stroke-opacity:1;stroke-dasharray:none"><g style="fill:#fff;fill-opacity:1;stroke:#fff;stroke-width:10;stroke-linecap:round;stroke-linejoin:round;stroke-miterlimit:4;stroke-opacity:1;stroke-dasharray:none"><path style="fill:#fff;fill-opacity:1;stroke:#fff;stroke-width:10.00000095;stroke-linecap:round;stroke-linejoin:round;stroke-miterlimit:4;stroke-opacity:1;stroke-dasharray:none" d="M100.25 5.75c-39.915-.253-73.423 41.33-64.926 80.33 5.576 32.628 37.204 59.513 70.832 56.201 22.483-1.388 43.51-14.783 54.813-34.094 10.254-8.044 25.571 2.61 35.656-6.062 6.895-7.135 12.66-16.63 22.375-19.844 7.792 2.202 11.287 10.647 17.719 14.563 6.458-4.138 10.19-13.98 19.031-13.938 6.254 3.764 10.219 10.407 16.125 14.344 6.709-4.293 10.686-14.55 19.813-14.563 6.38 3.598 9.906 11.11 16.562 13.97 9.26-8.353 18.737-17 26.469-26.938-.028-5.623-7.637-8.739-10.657-13.337-6.281-5.544-11.586-15.781-21.468-13.663-13.365 1.067-27.033-.322-40.531.218-32.697-.014-65.65.784-98.188-.812-8.918-7.667-13.667-19.624-24.625-25.063-11.382-7.593-25.22-11.738-39-11.312zM73.094 50.531c19.527-.486 31.184 27.246 17 40.719-11.48 12.633-36.05 8.572-40.875-8.375-5.35-15.155 7.11-34.022 23.875-32.344z" transform="matrix(1.15757 0 0 1.15757 66.55 26.188)"/></g></g></svg>