<svg xmlns="http://www.w3.org/2000/svg" width="580" height="580" xml:space="preserve"><path fill="#603813" stroke="#603813" stroke-width=".466" stroke-linecap="round" stroke-linejoin="round" d="M293.244 269.951c.021.009-1.262 1.103-2.904 2.193-.376.247-2.232 1.737-2.88-.056-.664-1.834 1.743-1.884 2.279-1.924 1.89-.142 3.482-.221 3.505-.213zM294.323 271.316c.018-.015.324 1.643.447 3.611.025.449.389 2.802-1.488 2.466-1.92-.342-.76-2.451-.526-2.936.821-1.707 1.548-3.124 1.567-3.141zM295.742 271.098c-.004-.023 1.586.541 3.352 1.418.401.203 2.621 1.064 1.391 2.522-1.256 1.491-2.502-.568-2.805-1.013-1.069-1.564-1.933-2.901-1.938-2.927zM296.207 269.399c-.021-.008 1.261-1.104 2.903-2.194.376-.247 2.232-1.737 2.88.057.664 1.833-1.743 1.882-2.279 1.922-1.889.144-3.481.223-3.504.215zM295.076 268.355c-.018.015-.324-1.644-.447-3.611-.025-.449-.389-2.802 1.488-2.465 1.92.341.76 2.451.525 2.935-.82 1.706-1.546 3.124-1.566 3.141zM293.638 268.626c.004.022-1.586-.54-3.352-1.417-.402-.202-2.621-1.065-1.391-2.522 1.255-1.492 2.502.568 2.805 1.012 1.069 1.564 1.933 2.903 1.938 2.927z"/></svg>