<svg xmlns="http://www.w3.org/2000/svg" width="443" height="367" xml:space="preserve"><path fill="none" stroke="#00F" stroke-width="1.012" stroke-linecap="square" stroke-miterlimit="99" d="M229.14 195.169h-12.826l12.826-4.484z"/><path fill="#00F" d="M219.643 192.074a4.97 4.97 0 0 1-1.175-.243c-1.706-.585-2.973-2.1-3.268-3.909a8.26 8.26 0 0 1-.047-.325 9.027 9.027 0 0 1 0-.987 5.13 5.13 0 0 1 .468-1.664 4.987 4.987 0 0 1 2.208-2.297l.138-.071.006.058c.006.062.103 1.367.103 1.396 0 .009-.04.044-.09.077a3.602 3.602 0 0 0-.629.565 3.726 3.726 0 0 0-.874 1.93 2.707 2.707 0 0 0-.024.485c-.001.33.007.444.049.67.136.743.465 1.381.988 1.915.181.185.333.312.549.459a3.443 3.443 0 0 0 2.84.477c.237-.063.423-.139.702-.28a3.645 3.645 0 0 0 1.885-2.643c.01-.069.022-.127.023-.127.004 0 .197.4.431.891l.424.89-.055.106a4.987 4.987 0 0 1-2.714 2.36 4.756 4.756 0 0 1-1.077.253c-.16.017-.697.028-.861.014zm5.841-1.656-.993-2.387-.974-2.338h-2.421c-1.332 0-2.421-.002-2.422-.004-.001-.001-.108-1.526-.237-3.391l-.236-3.39-.038-.085a1.398 1.398 0 0 1-.123-.526 1.35 1.35 0 0 1 1.076-1.377c.138-.027.355-.025.501.006.394.085.725.343.907.708.103.205.146.387.146.613 0 .431-.194.824-.539 1.09a1.35 1.35 0 0 1-.583.248l-.07.008.004.057c.006.068.146 2.614.146 2.654v.027h3.388v1.266h-3.262l.006.08.031.434.025.353.449-.007a293.88 293.88 0 0 1 4.06-.02c.003.005.438 1.029.965 2.275.526 1.246.959 2.266.965 2.266.005 0 .333-.118.73-.265.396-.147.722-.265.725-.262.016.016.399.966.395.973-.008.006-2.545 1.027-2.58 1.039-.014.003-.027-.01-.041-.045z"/></svg>