<svg xmlns="http://www.w3.org/2000/svg" width="580" height="580" xml:space="preserve"><g stroke="#0071BC" stroke-linecap="round" stroke-linejoin="round"><path fill="none" stroke-width="3.339" d="m265.815 397.817-.647 3.608" transform="matrix(1.33087 -.283 .20606 .96905 -134.695 -21.09)"/><path fill="none" stroke-width="1.467" d="m269.167 400.993-1.549-1.335-1.009-2.356" transform="matrix(1.33087 -.283 .20606 .96905 -134.695 -21.09)"/><path fill="none" stroke-width="1.859" d="m268.404 409.097-.513-4.249" transform="matrix(1.33087 -.283 .20606 .96905 -134.695 -21.09)"/><path fill="none" stroke-width="2.03" d="m265.328 401.357 2.442 3.371M264.497 401.407l.074 3.931" transform="matrix(1.33087 -.283 .20606 .96905 -134.695 -21.09)"/><path fill="none" stroke-width="2.039" d="m262.935 409.169 1.683-3.635" transform="matrix(1.33087 -.283 .20606 .96905 -134.695 -21.09)"/><path fill="#FFF" stroke-width="2.03" d="M266.843 393.959c-.425.02-.592.632-.239.864.319.264.848-.055.762-.465a.487.487 0 0 0-.523-.399z" transform="matrix(1.33087 -.283 .20606 .96905 -134.695 -21.09)"/><path fill="none" stroke-width="1.467" d="m262.284 401.212.733-2.496 2.325-1.739" transform="matrix(1.33087 -.283 .20606 .96905 -134.695 -21.09)"/></g><path opacity=".25" fill="#0071BC" d="m291.132 293.685 2.546-.534 6.949 13.601-3.591.916-5.904-13.983zM296.995 292.294l2.82-.604 8.195 13.27-3.309.854-7.706-13.52zM303.894 290.733l2.586-.756 8.822 13.068-3.281.959-8.127-13.271z"/></svg>