<svg xmlns="http://www.w3.org/2000/svg" width="400" height="400" xml:space="preserve"><path fill="#603813" stroke="#603813" stroke-width=".05" d="M194.554 199.953s.87-.649 1.275-.742 1.252-.093 1.728 0 1.403.417 1.728.22c.325-.197.615-.672 1.021-.788.405-.116.812-.244 1.09-.221.278.023.568.11.962-.002a4.433 4.433 0 0 1 1.299-.183c.522 0 .928.128 1.195.499s.904 1.136.974 1.554c.069.418.151.626.302.823s.44.8.406 1.125c-.035.325-.696 3.536-.836 3.305-.139-.231-.371-.579-.405-.939-.035-.359-.093-1.589-.209-1.739s-.267-.29-.267-.29.035.231-.115.337c-.151.104-.337-.116-.568-.232-.232-.115-.371-.232-.511-.174s-.104.44-.104.44l-.301-.382s-.465 0-.522.011c-.058.012.14.255.116.406-.023.15-.059.278-.15.336-.094.058.186.557.289.823.104.268.73 1.914.881 2.18.151.268.209 1.044.43 1.195.221.15.801.51.835.591s-.302.383-.591.487c-.291.104-1.172.174-1.311.139-.14-.034-.232-.15-.244-.312s.174-.371.15-.476c-.022-.104-.463-.974-.545-1.113-.08-.14-.893-.939-.996-1.021-.105-.081-.395-.209-.441-.324-.047-.116-.301-.465-.301-.465s-.557 1.276-.615 1.404c-.058.127-.406.974-.394 1.24.011.267.139.418.301.486.163.07.383.279.395.349.011.069-.012.278-.139.359s-1.624.128-1.728.128-.29-.082-.313-.209c-.023-.128-.012-.324.046-.43.058-.104.116-.8.139-1.043.023-.244.058-1.357.058-1.357l-.046-.695-1.021.267s-.255.371-.186.661.348 1.055.348 1.055.359.65.475.73c.116.082.208.268.093.36s-1.136.278-1.183.278c-.046 0-.684.012-.765-.035-.082-.047-.221-.162-.221-.221 0-.058.209-.439.209-.439s-.221-.349-.267-.592c-.047-.244-.14-.87-.244-.951-.104-.081-.695-.371-.776-.371s-1.102.858-1.322 1.16c-.22.301-.672.8-.672.8s.278.405.255.557c-.023.15-.197.174-.197.174H191.9s-.684-.371-.73-.499c-.046-.127-.046-.162 0-.277.047-.117.371-.441.406-.639.035-.197.186-.174.278-.289.093-.117.591-.674.591-.766 0-.094-.127.197-.463.312-.336.116-.591.047-.591.047l.336-.244s.615-.545.685-.719c.069-.174.093-2.156.174-2.551s.499-1.542.765-1.832 1.203-1.276 1.203-1.276z"/><path fill="#603813" stroke="#603813" stroke-width=".05" d="M208.666 203.611s-.568.342-.788.574c-.221.231-.72.893-.905.951-.186.058-.359.104-.486 0-.127-.105-.347-.975-.347-.975l-.442 1.38s0 .046.186.174.545.29.766.231c.221-.058.521-.08.858-.429.336-.348.858-.938.938-.997.082-.059.453-.312.453-.312l-.29-.186s.162-.163.128-.232a1.344 1.344 0 0 1-.071-.179z"/><path fill="#603813" stroke="#603813" stroke-width=".05" d="M206.46 202.654s.362.637.583.776.846.639 1.159.708c.313.07 0 .244 0 .244s-.382-.023-.614-.14-1.286-.812-1.286-.812l.158-.776zm-.208 1.006 1.32.879-.167.195s-.479-.108-.745-.213-.521-.359-.521-.359l.113-.502z"/></svg>